NunitoSans-CondensedSemiBold.ufo
<glyph name="exclam" format="2">
  <advance width="207.39156626506025"/>
  <unicode hex="0021"/>
  <outline>
    <contour>
      <point x="75.73493975903614" y="189.92168674698797" type="line"/>
      <point x="132.0120481927711" y="189.92168674698797" type="line"/>
      <point x="161.0722891566265" y="705.0" type="line"/>
      <point x="46.674698795180724" y="705.0" type="line"/>
    </contour>
    <contour>
      <point x="50.626506024096386" y="0.0" type="line"/>
      <point x="157.12048192771084" y="0.0" type="line"/>
      <point x="157.12048192771084" y="109.56024096385542" type="line"/>
      <point x="50.626506024096386" y="109.56024096385542" type="line"/>
    </contour>
  </outline>
</glyph>
<glyph name="numbersign" format="2">
  <advance width="523.6867469879518"/>
  <unicode hex="0023"/>
  <outline>
    <contour>
      <point x="76.3132530120482" y="0.0" type="line"/>
      <point x="141.74698795180723" y="0.0" type="line"/>
      <point x="170.6807228915663" y="179.56024096385542" type="line"/>
      <point x="299.2289156626506" y="179.56024096385542" type="line"/>
      <point x="270.2951807228916" y="0.0" type="line"/>
      <point x="336.0843373493976" y="0.0" type="line"/>
      <point x="364.66265060240966" y="179.56024096385542" type="line"/>
      <point x="475.06626506024094" y="179.56024096385542" type="line"/>
      <point x="475.06626506024094" y="243.86144578313252" type="line"/>
      <point x="373.8614457831325" y="243.86144578313252" type="line"/>
      <point x="409.59638554216866" y="469.1385542168674" type="line"/>
      <point x="491.48795180722885" y="469.1385542168674" type="line"/>
      <point x="491.48795180722885" y="533.4397590361446" type="line"/>
      <point x="419.15060240963857" y="533.4397590361446" type="line"/>
      <point x="447.0843373493976" y="705.0" type="line"/>
      <point x="381.2951807228916" y="705.0" type="line"/>
      <point x="353.7168674698795" y="533.4397590361446" type="line"/>
      <point x="225.52409638554218" y="533.4397590361446" type="line"/>
      <point x="253.1024096385542" y="705.0" type="line"/>
      <point x="187.3132530120482" y="705.0" type="line"/>
      <point x="160.09036144578315" y="533.4397590361446" type="line"/>
      <point x="48.62048192771085" y="533.4397590361446" type="line"/>
      <point x="48.62048192771085" y="469.1385542168674" type="line"/>
      <point x="150.53614457831324" y="469.1385542168674" type="line"/>
      <point x="114.8012048192771" y="243.86144578313252" type="line"/>
      <point x="32.19879518072289" y="243.86144578313252" type="line"/>
      <point x="32.19879518072289" y="179.56024096385542" type="line"/>
      <point x="104.89156626506025" y="179.56024096385542" type="line"/>
    </contour>
    <contour>
      <point x="180.23493975903614" y="243.86144578313252" type="line"/>
      <point x="216.32530120481928" y="469.1385542168674" type="line"/>
      <point x="343.8072289156627" y="469.1385542168674" type="line"/>
      <point x="307.71686746987956" y="243.86144578313252" type="line"/>
    </contour>
  </outline>
</glyph>
<glyph name="dollar" format="2">
  <advance width="498.0"/>
  <unicode hex="0024"/>
  <outline>
    <contour>
      <point x="219.80722891566268" y="-115.0" type="line"/>
      <point x="294.1927710843373" y="-115.0" type="line"/>
      <point x="294.1927710843373" y="14.620481927710843" type="line"/>
      <point x="269.33132530120486" y="-5.066265060240964" type="line"/>
      <point x="384.6385542168675" y="3.1987951807228914"/>
      <point x="462.1927710843374" y="78.59638554216868"/>
      <point x="462.1927710843374" y="196.99397590361446" type="curve" smooth="yes"/>
      <point x="462.1927710843374" y="292.90361445783134"/>
      <point x="412.83734939759034" y="348.87951807228916"/>
      <point x="310.03614457831327" y="375.5240963855422" type="curve" smooth="yes"/>
      <point x="224.57228915662654" y="396.65662650602405" type="line" smooth="yes"/>
      <point x="169.5421686746988" y="411.9698795180723"/>
      <point x="141.2289156626506" y="445.7289156626506"/>
      <point x="141.2289156626506" y="505.2469879518072" type="curve" smooth="yes"/>
      <point x="141.2289156626506" y="579.9216867469879"/>
      <point x="190.210843373494" y="628.9939759036145"/>
      <point x="261.3734939759036" y="628.9939759036145" type="curve" smooth="yes"/>
      <point x="320.1987951807229" y="628.9939759036145"/>
      <point x="375.10843373493975" y="605.4156626506024"/>
      <point x="415.8433734939759" y="555.5" type="curve"/>
      <point x="443.86144578313247" y="627.3072289156627" type="line"/>
      <point x="401.9277108433735" y="679.066265060241"/>
      <point x="340.3493975903615" y="705.289156626506"/>
      <point x="281.50602409638554" y="709.0662650602409" type="curve"/>
      <point x="294.1927710843373" y="694.9337349397591" type="line"/>
      <point x="294.1927710843373" y="820.0" type="line"/>
      <point x="219.80722891566268" y="820.0" type="line"/>
      <point x="219.80722891566268" y="694.9337349397591" type="line"/>
      <point x="230.84939759036143" y="708.289156626506" type="line"/>
      <point x="120.00602409638553" y="699.8253012048193"/>
      <point x="47.36144578313253" y="616.0481927710844"/>
      <point x="47.36144578313253" y="499.5602409638554" type="curve" smooth="yes"/>
      <point x="47.36144578313253" y="399.7831325301205"/>
      <point x="96.56024096385542" y="341.6506024096385"/>
      <point x="193.13855421686748" y="316.65060240963857" type="curve" smooth="yes"/>
      <point x="277.6024096385542" y="294.51807228915663" type="line" smooth="yes"/>
      <point x="342.9879518072289" y="276.84939759036143"/>
      <point x="368.45783132530124" y="245.24698795180723"/>
      <point x="368.45783132530124" y="187.81927710843374" type="curve" smooth="yes"/>
      <point x="368.45783132530124" y="120.07831325301206"/>
      <point x="326.69879518072287" y="76.00602409638553"/>
      <point x="246.73493975903617" y="76.00602409638553" type="curve" smooth="yes"/>
      <point x="175.26506024096383" y="76.00602409638553"/>
      <point x="115.3132530120482" y="100.36144578313252"/>
      <point x="64.73493975903615" y="149.83132530120483" type="curve"/>
      <point x="35.78313253012048" y="75.11445783132531" type="line"/>
      <point x="88.4277108433735" y="22.710843373493976"/>
      <point x="160.56024096385542" y="-3.289156626506024"/>
      <point x="236.49397590361448" y="-5.421686746987952" type="curve"/>
      <point x="219.80722891566268" y="13.620481927710843" type="line"/>
    </contour>
  </outline>
</glyph>
<glyph name="ampersand" format="2">
  <advance width="591.7409638554217"/>
  <unicode hex="0026"/>
  <outline>
    <contour>
      <point x="241.5722891566265" y="-9.421686746987952" type="curve" smooth="yes"/>
      <point x="319.8855421686747" y="-9.421686746987952"/>
      <point x="384.2409638554217" y="24.602409638554217"/>
      <point x="430.43975903614455" y="88.22891566265059" type="curve"/>
      <point x="416.9518072289157" y="87.87349397590361" type="line"/>
      <point x="481.7108433734939" y="0.0" type="line"/>
      <point x="592.1746987951807" y="0.0" type="line"/>
      <point x="463.6746987951807" y="159.9036144578313" type="line"/>
      <point x="463.5421686746988" y="129.62048192771084" type="line"/>
      <point x="503.71686746987956" y="200.17469879518075"/>
      <point x="527.3373493975904" y="297.7951807228916"/>
      <point x="529.9819277108434" y="415.4397590361446" type="curve"/>
      <point x="453.10843373493975" y="415.4397590361446" type="line"/>
      <point x="450.39759036144585" y="322.6566265060241"/>
      <point x="436.3975903614458" y="247.83132530120483"/>
      <point x="413.8855421686747" y="190.74096385542168" type="curve"/>
      <point x="433.77108433734946" y="194.16265060240963" type="line"/>
      <point x="285.0301204819277" y="391.578313253012" type="line"/>
      <point x="275.433734939759" y="365.51807228915663" type="line"/>
      <point x="368.9879518072289" y="429.9879518072289"/>
      <point x="410.45180722891564" y="493.4518072289157"/>
      <point x="410.45180722891564" y="573.4277108433735" type="curve" smooth="yes"/>
      <point x="410.45180722891564" y="660.3132530120482"/>
      <point x="359.69879518072287" y="714.4216867469879"/>
      <point x="265.15060240963857" y="714.4216867469879" type="curve" smooth="yes"/>
      <point x="175.8012048192771" y="714.4216867469879"/>
      <point x="115.13855421686749" y="652.9578313253012"/>
      <point x="115.13855421686749" y="561.9397590361447" type="curve" smooth="yes"/>
      <point x="115.13855421686749" y="506.45180722891564"/>
      <point x="138.7831325301205" y="449.8734939759036"/>
      <point x="191.29518072289156" y="380.7590361445783" type="curve"/>
      <point x="196.13855421686748" y="399.9759036144578" type="line"/>
      <point x="184.0722891566265" y="391.3313253012048" type="line" smooth="yes"/>
      <point x="90.1566265060241" y="321.7469879518072"/>
      <point x="52.60240963855422" y="255.86144578313255"/>
      <point x="52.60240963855422" y="172.57228915662648" type="curve" smooth="yes"/>
      <point x="52.60240963855422" y="61.53012048192771"/>
      <point x="125.97590361445783" y="-9.421686746987952"/>
    </contour>
    <contour>
      <point x="252.81325301204816" y="63.451807228915655" type="curve" smooth="yes"/>
      <point x="182.80722891566265" y="63.451807228915655"/>
      <point x="142.6265060240964" y="106.05421686746988"/>
      <point x="142.6265060240964" y="180.32530120481928" type="curve" smooth="yes"/>
      <point x="142.6265060240964" y="236.0421686746988"/>
      <point x="162.09638554216866" y="277.15662650602405"/>
      <point x="229.21686746987953" y="332.76506024096386" type="curve" smooth="yes"/>
      <point x="244.15060240963857" y="346.12048192771084" type="line"/>
      <point x="219.5120481927711" y="345.8313253012048" type="line"/>
      <point x="386.2048192771084" y="124.10843373493975" type="line"/>
      <point x="386.2710843373494" y="144.17469879518072" type="line"/>
      <point x="355.2469879518072" y="89.78915662650603"/>
      <point x="311.62048192771084" y="63.451807228915655"/>
    </contour>
    <contour>
      <point x="267.2168674698795" y="647.5903614457831" type="curve" smooth="yes"/>
      <point x="306.84337349397595" y="647.5903614457831"/>
      <point x="330.37951807228916" y="619.4096385542169"/>
      <point x="330.37951807228916" y="569.4277108433735" type="curve" smooth="yes"/>
      <point x="330.37951807228916" y="503.4277108433735"/>
      <point x="302.6024096385542" y="472.86746987951807"/>
      <point x="232.55421686746988" y="421.37349397590367" type="curve"/>
      <point x="262.36746987951807" y="418.17469879518075" type="line"/>
      <point x="221.67469879518072" y="472.82530120481925"/>
      <point x="199.12048192771084" y="512.8493975903615"/>
      <point x="199.12048192771084" y="562.9156626506024" type="curve" smooth="yes"/>
      <point x="199.12048192771084" y="615.1204819277109"/>
      <point x="225.3012048192771" y="647.5903614457831"/>
    </contour>
  </outline>
</glyph>
<glyph name="parenleft" format="2">
  <advance width="291.6927710843373"/>
  <unicode hex="0028"/>
  <outline>
    <contour>
      <point x="195.7710843373494" y="-193.55421686746988" type="curve"/>
      <point x="259.1144578313253" y="-168.98192771084337" type="line"/>
      <point x="207.11445783132532" y="-23.84939759036145"/>
      <point x="183.66867469879517" y="111.22289156626506"/>
      <point x="183.66867469879517" y="263.0" type="curve" smooth="yes"/>
      <point x="183.66867469879517" y="415.4879518072289"/>
      <point x="207.11445783132532" y="549.8493975903615"/>
      <point x="259.1144578313253" y="694.9819277108434" type="curve"/>
      <point x="195.7710843373494" y="719.5542168674699" type="line"/>
      <point x="121.90963855421687" y="574.6626506024096"/>
      <point x="86.44578313253012" y="427.2409638554217"/>
      <point x="86.44578313253012" y="263.0" type="curve" smooth="yes"/>
      <point x="86.44578313253012" y="99.46987951807229"/>
      <point x="121.90963855421687" y="-49.01807228915663"/>
    </contour>
  </outline>
</glyph>
<glyph name="parenright" format="2">
  <advance width="291.6927710843373"/>
  <unicode hex="0029"/>
  <outline>
    <contour>
      <point x="95.92168674698794" y="-193.1987951807229" type="line"/>
      <point x="169.78313253012047" y="-48.66265060240964"/>
      <point x="205.2469879518072" y="99.46987951807229"/>
      <point x="205.2469879518072" y="263.0" type="curve" smooth="yes"/>
      <point x="205.2469879518072" y="426.8855421686747"/>
      <point x="169.78313253012047" y="574.6626506024096"/>
      <point x="95.92168674698794" y="719.1987951807229" type="curve"/>
      <point x="32.57831325301205" y="694.6265060240963" type="line"/>
      <point x="84.22289156626506" y="549.4939759036145"/>
      <point x="108.73493975903614" y="415.13253012048193"/>
      <point x="108.73493975903614" y="263.0" type="curve" smooth="yes"/>
      <point x="108.73493975903614" y="110.86746987951807"/>
      <point x="84.22289156626506" y="-23.49397590361446"/>
      <point x="32.57831325301205" y="-168.6265060240964" type="curve"/>
    </contour>
  </outline>
</glyph>
<glyph name="asterisk" format="2">
  <advance width="427.9096385542168"/>
  <unicode hex="002A"/>
  <outline>
    <contour>
      <point x="152.15060240963857" y="364.96385542168673" type="line"/>
      <point x="220.3313253012048" y="500.18674698795184" type="line"/>
      <point x="208.28915662650604" y="500.18674698795184" type="line"/>
      <point x="276.1144578313253" y="365.2530120481928" type="line"/>
      <point x="335.90361445783134" y="399.9578313253012" type="line"/>
      <point x="251.77108433734938" y="531.4036144578313" type="line"/>
      <point x="238.66265060240963" y="513.6746987951808" type="line"/>
      <point x="396.46385542168673" y="506.4759036144578" type="line"/>
      <point x="396.46385542168673" y="575.4638554216867" type="line"/>
      <point x="238.66265060240963" y="567.5542168674699" type="line"/>
      <point x="251.77108433734938" y="550.5361445783133" type="line"/>
      <point x="335.90361445783134" y="681.5602409638554" type="line"/>
      <point x="276.1144578313253" y="716.9759036144578" type="line"/>
      <point x="208.28915662650604" y="581.8192771084338" type="line"/>
      <point x="220.3313253012048" y="581.8192771084338" type="line"/>
      <point x="152.86144578313252" y="716.9759036144578" type="line"/>
      <point x="93.07228915662651" y="682.2710843373494" type="line"/>
      <point x="176.49397590361446" y="549.8253012048193" type="line"/>
      <point x="189.66867469879517" y="567.5542168674699" type="line"/>
      <point x="32.1566265060241" y="575.4638554216867" type="line"/>
      <point x="32.1566265060241" y="506.4759036144578" type="line"/>
      <point x="189.66867469879517" y="513.6746987951808" type="line"/>
      <point x="175.78313253012047" y="531.4036144578313" type="line"/>
      <point x="92.36144578313252" y="399.9578313253012" type="line"/>
    </contour>
  </outline>
</glyph>
<glyph name="plus" format="2">
  <advance width="498.0"/>
  <unicode hex="002B"/>
  <outline>
    <contour>
      <point x="213.2951807228916" y="67.0" type="line"/>
      <point x="284.7048192771084" y="67.0" type="line"/>
      <point x="284.7048192771084" y="252.0722891566265" type="line"/>
      <point x="466.0" y="252.0722891566265" type="line"/>
      <point x="466.0" y="319.06024096385545" type="line"/>
      <point x="284.7048192771084" y="319.06024096385545" type="line"/>
      <point x="284.7048192771084" y="501.0" type="line"/>
      <point x="213.2951807228916" y="501.0" type="line"/>
      <point x="213.2951807228916" y="319.06024096385545" type="line"/>
      <point x="32.0" y="319.06024096385545" type="line"/>
      <point x="32.0" y="252.0722891566265" type="line"/>
      <point x="213.2951807228916" y="252.0722891566265" type="line"/>
    </contour>
  </outline>
</glyph>
<glyph name="comma" format="2">
  <advance width="207.74698795180723"/>
  <unicode hex="002C"/>
  <outline>
    <contour>
      <point x="96.37349397590361" y="-120.39156626506025" type="line"/>
      <point x="139.07831325301206" y="-74.04216867469879"/>
      <point x="157.12048192771084" y="-27.37951807228916"/>
      <point x="157.12048192771084" y="32.68072289156626" type="curve" smooth="yes"/>
      <point x="157.12048192771084" y="109.56024096385542" type="line"/>
      <point x="50.626506024096386" y="109.56024096385542" type="line"/>
      <point x="50.626506024096386" y="0.0" type="line"/>
      <point x="121.03614457831326" y="0.0" type="line"/>
      <point x="100.30722891566265" y="21.86144578313253" type="line"/>
      <point x="100.30722891566265" y="-22.46987951807229"/>
      <point x="88.6867469879518" y="-52.578313253012055"/>
      <point x="56.66867469879517" y="-89.24096385542168" type="curve"/>
    </contour>
  </outline>
</glyph>
<glyph name="hyphen" format="2">
  <advance width="360.3072289156627"/>
  <unicode hex="002D"/>
  <outline>
    <contour>
      <point x="61.31325301204819" y="229.5180722891566" type="line"/>
      <point x="298.99397590361446" y="229.5180722891566" type="line"/>
      <point x="298.99397590361446" y="304.39156626506025" type="line"/>
      <point x="61.31325301204819" y="304.39156626506025" type="line"/>
    </contour>
  </outline>
</glyph>
<glyph name="period" format="2">
  <advance width="207.74698795180723"/>
  <unicode hex="002E"/>
  <outline>
    <contour>
      <point x="50.626506024096386" y="0.0" type="line"/>
      <point x="157.12048192771084" y="0.0" type="line"/>
      <point x="157.12048192771084" y="109.56024096385542" type="line"/>
      <point x="50.626506024096386" y="109.56024096385542" type="line"/>
    </contour>
  </outline>
</glyph>
<glyph name="zero" format="2">
  <advance width="498.0"/>
  <unicode hex="0030"/>
  <outline>
    <contour>
      <point x="249.0" y="-9.421686746987952" type="curve" smooth="yes"/>
      <point x="388.8855421686747" y="-9.421686746987952"/>
      <point x="456.0843373493976" y="109.57831325301206"/>
      <point x="456.0843373493976" y="353.35542168674704" type="curve" smooth="yes"/>
      <point x="456.0843373493976" y="596.4216867469879"/>
      <point x="388.88554216867465" y="714.4216867469879"/>
      <point x="249.0" y="714.4216867469879" type="curve" smooth="yes"/>
      <point x="109.46987951807229" y="714.4216867469879"/>
      <point x="41.91566265060241" y="596.1325301204819"/>
      <point x="41.91566265060241" y="352.0" type="curve" smooth="yes"/>
      <point x="41.91566265060241" y="108.93373493975903"/>
      <point x="109.46987951807229" y="-9.421686746987952"/>
    </contour>
    <contour>
      <point x="249.0" y="69.2289156626506" type="curve" smooth="yes"/>
      <point x="167.6566265060241" y="69.2289156626506"/>
      <point x="133.7409638554217" y="150.01204819277106"/>
      <point x="133.7409638554217" y="352.35542168674704" type="curve" smooth="yes"/>
      <point x="133.7409638554217" y="553.6325301204819"/>
      <point x="167.6566265060241" y="635.7710843373494"/>
      <point x="249.0" y="635.7710843373494" type="curve" smooth="yes"/>
      <point x="330.69879518072287" y="635.7710843373494"/>
      <point x="364.2590361445783" y="554.277108433735"/>
      <point x="364.2590361445783" y="353.35542168674704" type="curve" smooth="yes"/>
      <point x="364.2590361445783" y="150.65662650602408"/>
      <point x="330.3433734939759" y="69.2289156626506"/>
    </contour>
  </outline>
</glyph>
<glyph name="one" format="2">
  <advance width="498.0"/>
  <unicode hex="0031"/>
  <outline>
    <contour>
      <point x="96.09638554216868" y="0.0" type="line"/>
      <point x="440.9879518072289" y="0.0" type="line"/>
      <point x="440.9879518072289" y="77.00602409638554" type="line"/>
      <point x="320.12048192771084" y="77.00602409638554" type="line"/>
      <point x="320.12048192771084" y="705.0" type="line"/>
      <point x="243.89156626506025" y="705.0" type="line"/>
      <point x="79.5" y="602.9578313253013" type="line"/>
      <point x="115.62650602409637" y="534.5060240963855" type="line"/>
      <point x="263.86746987951807" y="626.5060240963855" type="line"/>
      <point x="225.96385542168676" y="626.5060240963855" type="line"/>
      <point x="225.96385542168676" y="77.00602409638554" type="line"/>
      <point x="96.09638554216868" y="77.00602409638554" type="line"/>
    </contour>
  </outline>
</glyph>
<glyph name="two" format="2">
  <advance width="498.0"/>
  <unicode hex="0032"/>
  <outline>
    <contour>
      <point x="73.27108433734941" y="0.0" type="line"/>
      <point x="448.0180722891567" y="0.0" type="line"/>
      <point x="448.0180722891567" y="77.00602409638554" type="line"/>
      <point x="162.09638554216866" y="77.00602409638554" type="line"/>
      <point x="165.29518072289156" y="55.831325301204814" type="line"/>
      <point x="322.3734939759036" y="272.95783132530124" type="line" smooth="yes"/>
      <point x="374.62048192771084" y="345.7831325301205"/>
      <point x="426.43975903614455" y="433.1385542168675"/>
      <point x="426.43975903614455" y="526.7349397590361" type="curve" smooth="yes"/>
      <point x="426.43975903614455" y="644.289156626506"/>
      <point x="360.0421686746988" y="714.4216867469879"/>
      <point x="241.6686746987952" y="714.4216867469879" type="curve" smooth="yes"/>
      <point x="166.82530120481928" y="714.4216867469879"/>
      <point x="93.69277108433735" y="685.5542168674699"/>
      <point x="48.716867469879524" y="637.6867469879519" type="curve"/>
      <point x="79.51204819277109" y="566.5240963855422" type="line"/>
      <point x="121.24698795180723" y="610.4156626506025"/>
      <point x="172.53614457831324" y="633.6385542168675"/>
      <point x="224.93975903614455" y="633.6385542168675" type="curve" smooth="yes"/>
      <point x="296.5903614457831" y="633.6385542168675"/>
      <point x="332.1265060240964" y="592.8795180722891"/>
      <point x="332.1265060240964" y="515.2951807228916" type="curve" smooth="yes"/>
      <point x="332.1265060240964" y="450.44578313253015"/>
      <point x="301.23493975903614" y="384.9518072289157"/>
      <point x="258.27710843373495" y="325.1265060240964" type="curve" smooth="yes"/>
      <point x="73.27108433734941" y="69.58433734939759" type="line"/>
    </contour>
  </outline>
</glyph>
<glyph name="three" format="2">
  <advance width="498.0"/>
  <unicode hex="0033"/>
  <outline>
    <contour>
      <point x="230.57831325301208" y="-9.421686746987952" type="curve" smooth="yes"/>
      <point x="360.8855421686747" y="-9.421686746987952"/>
      <point x="442.57228915662654" y="70.77710843373494"/>
      <point x="442.57228915662654" y="191.55421686746988" type="curve" smooth="yes"/>
      <point x="442.57228915662654" y="287.13253012048193"/>
      <point x="395.15060240963857" y="352.48795180722897"/>
      <point x="314.50602409638554" y="369.77710843373495" type="curve"/>
      <point x="314.50602409638554" y="358.71084337349396" type="line"/>
      <point x="383.15060240963857" y="380.355421686747"/>
      <point x="425.5060240963855" y="445.86746987951807"/>
      <point x="425.5060240963855" y="532.8012048192771" type="curve" smooth="yes"/>
      <point x="425.5060240963855" y="642.9337349397591"/>
      <point x="355.2409638554217" y="714.4216867469879"/>
      <point x="240.1566265060241" y="714.4216867469879" type="curve" smooth="yes"/>
      <point x="165.95783132530119" y="714.4216867469879"/>
      <point x="94.33734939759037" y="685.5542168674699"/>
      <point x="49.4277108433735" y="636.0421686746988" type="curve"/>
      <point x="79.86746987951808" y="563.2349397590361" type="line"/>
      <point x="124.73493975903615" y="609.7710843373494"/>
      <point x="171.60240963855424" y="632.9939759036145"/>
      <point x="224.9156626506024" y="632.9939759036145" type="curve" smooth="yes"/>
      <point x="297.27710843373495" y="632.9939759036145"/>
      <point x="333.61445783132535" y="594.2349397590361"/>
      <point x="333.61445783132535" y="521.7168674698795" type="curve" smooth="yes"/>
      <point x="333.61445783132535" y="443.3313253012048"/>
      <point x="292.6987951807229" y="396.6144578313253"/>
      <point x="223.6265060240964" y="396.6144578313253" type="curve" smooth="yes"/>
      <point x="148.56024096385542" y="396.6144578313253" type="line"/>
      <point x="148.56024096385542" y="317.18674698795184" type="line"/>
      <point x="229.53614457831324" y="317.18674698795184" type="line" smooth="yes"/>
      <point x="306.21084337349396" y="317.18674698795184"/>
      <point x="350.03614457831327" y="277.33734939759034"/>
      <point x="350.03614457831327" y="196.59638554216866" type="curve" smooth="yes"/>
      <point x="350.03614457831327" y="118.63253012048193"/>
      <point x="306.4759036144578" y="72.00602409638553"/>
      <point x="225.2469879518072" y="72.00602409638553" type="curve" smooth="yes"/>
      <point x="169.09036144578315" y="72.00602409638553"/>
      <point x="116.24698795180724" y="95.00602409638554"/>
      <point x="70.15662650602411" y="137.89759036144576" type="curve"/>
      <point x="40.07228915662651" y="64.66867469879519" type="line"/>
      <point x="85.07228915662651" y="18.57831325301205"/>
      <point x="155.53614457831324" y="-9.421686746987952"/>
    </contour>
  </outline>
</glyph>
<glyph name="four" format="2">
  <advance width="498.0"/>
  <unicode hex="0034"/>
  <outline>
    <contour>
      <point x="299.50000000000006" y="0.0" type="line"/>
      <point x="388.68072289156623" y="0.0" type="line"/>
      <point x="388.68072289156623" y="146.67469879518072" type="line"/>
      <point x="469.8614457831325" y="146.67469879518072" type="line"/>
      <point x="469.8614457831325" y="225.4578313253012" type="line"/>
      <point x="388.68072289156623" y="225.4578313253012" type="line"/>
      <point x="388.68072289156623" y="705.0" type="line"/>
      <point x="310.4759036144578" y="705.0" type="line"/>
      <point x="36.2710843373494" y="216.19277108433735" type="line"/>
      <point x="36.2710843373494" y="146.67469879518072" type="line"/>
      <point x="299.50000000000006" y="146.67469879518072" type="line"/>
    </contour>
    <contour>
      <point x="299.50000000000006" y="225.4578313253012" type="line"/>
      <point x="112.30120481927712" y="225.4578313253012" type="line"/>
      <point x="112.30120481927712" y="205.79518072289156" type="line"/>
      <point x="323.96385542168673" y="592.1144578313252" type="line"/>
      <point x="299.50000000000006" y="592.1144578313252" type="line"/>
    </contour>
  </outline>
</glyph>
<glyph name="five" format="2">
  <advance width="498.0"/>
  <unicode hex="0035"/>
  <outline>
    <contour>
      <point x="252.62650602409641" y="-9.421686746987952" type="curve" smooth="yes"/>
      <point x="384.06626506024094" y="-9.421686746987952"/>
      <point x="462.88554216867476" y="78.42168674698794"/>
      <point x="462.88554216867476" y="228.8855421686747" type="curve" smooth="yes"/>
      <point x="462.88554216867476" y="363.17469879518075"/>
      <point x="397.95180722891564" y="443.59638554216866"/>
      <point x="285.3734939759036" y="443.59638554216866" type="curve" smooth="yes"/>
      <point x="222.41566265060243" y="443.59638554216866"/>
      <point x="176.1024096385542" y="416.5722891566265"/>
      <point x="147.1686746987952" y="362.81325301204816" type="curve"/>
      <point x="166.27710843373492" y="362.81325301204816" type="line"/>
      <point x="166.27710843373492" y="627.3493975903614" type="line"/>
      <point x="424.59638554216866" y="627.3493975903614" type="line"/>
      <point x="424.59638554216866" y="705.0" type="line"/>
      <point x="77.45180722891565" y="705.0" type="line"/>
      <point x="77.45180722891565" y="287.1385542168675" type="line"/>
      <point x="142.43975903614458" y="287.1385542168675" type="line"/>
      <point x="171.24096385542168" y="340.921686746988"/>
      <point x="206.77710843373495" y="364.23493975903614"/>
      <point x="256.04819277108436" y="364.23493975903614" type="curve" smooth="yes"/>
      <point x="331.078313253012" y="364.23493975903614"/>
      <point x="371.6385542168675" y="312.7409638554217"/>
      <point x="371.6385542168675" y="221.6867469879518" type="curve" smooth="yes"/>
      <point x="371.6385542168675" y="124.14457831325302"/>
      <point x="327.5903614457831" y="72.00602409638553"/>
      <point x="246.0722891566265" y="72.00602409638553" type="curve" smooth="yes"/>
      <point x="192.18072289156626" y="72.00602409638553"/>
      <point x="141.89156626506025" y="93.58433734939759"/>
      <point x="92.37951807228916" y="137.89759036144576" type="curve"/>
      <point x="62.584337349397586" y="64.66867469879519" type="line"/>
      <point x="109.22891566265059" y="17.867469879518072"/>
      <point x="178.7831325301205" y="-9.421686746987952"/>
    </contour>
  </outline>
</glyph>
<glyph name="six" format="2">
  <advance width="498.0"/>
  <unicode hex="0036"/>
  <outline>
    <contour>
      <point x="261.355421686747" y="-9.421686746987952" type="curve" smooth="yes"/>
      <point x="384.59638554216866" y="-9.421686746987952"/>
      <point x="457.15060240963857" y="79.48795180722891"/>
      <point x="457.15060240963857" y="222.46385542168676" type="curve" smooth="yes"/>
      <point x="457.15060240963857" y="357.8855421686747"/>
      <point x="391.8614457831325" y="444.72891566265065"/>
      <point x="288.0602409638554" y="444.72891566265065" type="curve" smooth="yes"/>
      <point x="195.210843373494" y="444.72891566265065"/>
      <point x="138.3855421686747" y="377.23493975903614"/>
      <point x="131.76506024096386" y="265.09638554216866" type="curve"/>
      <point x="139.3855421686747" y="265.09638554216866" type="line"/>
      <point x="139.3855421686747" y="349.4819277108434" type="line" smooth="yes"/>
      <point x="139.3855421686747" y="519.5481927710844"/>
      <point x="179.99397590361446" y="632.9939759036145"/>
      <point x="293.2409638554217" y="632.9939759036145" type="curve" smooth="yes"/>
      <point x="342.9096385542169" y="632.9939759036145"/>
      <point x="389.1987951807229" y="610.9036144578314"/>
      <point x="427.8433734939759" y="567.3674698795181" type="curve"/>
      <point x="456.9939759036145" y="639.8192771084338" type="line"/>
      <point x="416.08433734939763" y="687.2650602409639"/>
      <point x="356.3072289156627" y="714.4216867469879"/>
      <point x="288.4638554216868" y="714.4216867469879" type="curve" smooth="yes"/>
      <point x="135.95783132530119" y="714.4216867469879"/>
      <point x="51.13855421686747" y="582.2650602409639"/>
      <point x="51.13855421686747" y="335.355421686747" type="curve" smooth="yes"/>
      <point x="51.13855421686747" y="108.13253012048193"/>
      <point x="121.11445783132528" y="-9.421686746987952"/>
    </contour>
    <contour>
      <point x="264.355421686747" y="68.09638554216868" type="curve" smooth="yes"/>
      <point x="198.39156626506025" y="68.09638554216868"/>
      <point x="160.25301204819277" y="121.87951807228916"/>
      <point x="160.25301204819277" y="217.33132530120483" type="curve" smooth="yes"/>
      <point x="160.25301204819277" y="313.49397590361446"/>
      <point x="200.03614457831324" y="368.27710843373495"/>
      <point x="265.644578313253" y="368.27710843373495" type="curve" smooth="yes"/>
      <point x="330.96385542168673" y="368.27710843373495"/>
      <point x="368.8132530120482" y="314.78313253012044"/>
      <point x="368.8132530120482" y="218.97590361445782" type="curve" smooth="yes"/>
      <point x="368.8132530120482" y="122.59036144578313"/>
      <point x="330.67469879518075" y="68.09638554216868"/>
    </contour>
  </outline>
</glyph>
<glyph name="seven" format="2">
  <advance width="498.0"/>
  <unicode hex="0037"/>
  <outline>
    <contour>
      <point x="81.01204819277109" y="0.0" type="line"/>
      <point x="185.14457831325302" y="0.0" type="line"/>
      <point x="445.34939759036143" y="634.9939759036145" type="line"/>
      <point x="445.34939759036143" y="705.0" type="line"/>
      <point x="53.0722891566265" y="705.0" type="line"/>
      <point x="53.0722891566265" y="621.6626506024096" type="line"/>
      <point x="361.10240963855426" y="621.6626506024096" type="line"/>
      <point x="361.10240963855426" y="663.5240963855422" type="line"/>
    </contour>
  </outline>
</glyph>
<glyph name="eight" format="2">
  <advance width="498.0"/>
  <unicode hex="0038"/>
  <outline>
    <contour>
      <point x="249.0" y="-9.421686746987952" type="curve" smooth="yes"/>
      <point x="382.53012048192767" y="-9.421686746987952"/>
      <point x="460.43975903614455" y="63.99999999999999"/>
      <point x="460.43975903614455" y="185.90963855421688" type="curve" smooth="yes"/>
      <point x="460.43975903614455" y="289.2409638554217"/>
      <point x="404.8192771084337" y="360.79518072289153"/>
      <point x="319.55421686746985" y="367.6867469879518" type="curve"/>
      <point x="319.55421686746985" y="350.0903614457831" type="line"/>
      <point x="394.8855421686747" y="363.40361445783134"/>
      <point x="446.7289156626506" y="431.6024096385542"/>
      <point x="446.7289156626506" y="526.4457831325302" type="curve" smooth="yes"/>
      <point x="446.7289156626506" y="642.710843373494"/>
      <point x="371.8192771084337" y="714.4216867469879"/>
      <point x="249.0" y="714.4216867469879" type="curve" smooth="yes"/>
      <point x="126.89156626506022" y="714.4216867469879"/>
      <point x="51.98192771084337" y="642.710843373494"/>
      <point x="51.98192771084337" y="526.4457831325302" type="curve" smooth="yes"/>
      <point x="51.98192771084337" y="431.9578313253012"/>
      <point x="103.82530120481928" y="363.7590361445783"/>
      <point x="178.44578313253012" y="350.0903614457832" type="curve"/>
      <point x="178.44578313253012" y="367.6867469879518" type="line"/>
      <point x="93.89156626506025" y="360.4397590361446"/>
      <point x="37.56024096385542" y="288.88554216867465"/>
      <point x="37.56024096385542" y="185.90963855421688" type="curve" smooth="yes"/>
      <point x="37.56024096385542" y="63.99999999999999"/>
      <point x="115.46987951807229" y="-9.421686746987952"/>
    </contour>
    <contour>
      <point x="249.0" y="66.38554216867469" type="curve" smooth="yes"/>
      <point x="169.45783132530119" y="66.38554216867469"/>
      <point x="125.60843373493975" y="111.07831325301204"/>
      <point x="125.60843373493975" y="194.53012048192772" type="curve" smooth="yes"/>
      <point x="125.60843373493975" y="277.98192771084337"/>
      <point x="167.52409638554215" y="319.0963855421687"/>
      <point x="249.0" y="319.0963855421687" type="curve" smooth="yes"/>
      <point x="331.18674698795184" y="319.0963855421687"/>
      <point x="372.39156626506025" y="277.98192771084337"/>
      <point x="372.39156626506025" y="194.53012048192772" type="curve" smooth="yes"/>
      <point x="372.39156626506025" y="111.07831325301204"/>
      <point x="329.8975903614458" y="66.38554216867469"/>
    </contour>
    <contour>
      <point x="249.0" y="394.9036144578313" type="curve" smooth="yes"/>
      <point x="180.74698795180723" y="394.9036144578313"/>
      <point x="140.03012048192772" y="439.8192771084337"/>
      <point x="140.03012048192772" y="517.7590361445783" type="curve" smooth="yes"/>
      <point x="140.03012048192772" y="595.6325301204819"/>
      <point x="180.1024096385542" y="638.6144578313254"/>
      <point x="249.0" y="638.6144578313254" type="curve" smooth="yes"/>
      <point x="317.8975903614458" y="638.6144578313254"/>
      <point x="358.68072289156623" y="595.6325301204819"/>
      <point x="358.68072289156623" y="517.7590361445783" type="curve" smooth="yes"/>
      <point x="358.68072289156623" y="439.8192771084337"/>
      <point x="317.2530120481928" y="394.9036144578313"/>
    </contour>
  </outline>
</glyph>
<glyph name="nine" format="2">
  <advance width="498.0"/>
  <unicode hex="0039"/>
  <outline>
    <contour>
      <point x="210.6024096385542" y="-9.421686746987952" type="curve" smooth="yes"/>
      <point x="362.3975903614458" y="-9.421686746987952"/>
      <point x="447.21686746987945" y="123.44578313253012"/>
      <point x="447.21686746987945" y="369.644578313253" type="curve" smooth="yes"/>
      <point x="447.21686746987945" y="596.8674698795181"/>
      <point x="377.95180722891564" y="714.4216867469879"/>
      <point x="237.0" y="714.4216867469879" type="curve" smooth="yes"/>
      <point x="114.46987951807229" y="714.4216867469879"/>
      <point x="41.204819277108435" y="626.2228915662652"/>
      <point x="41.204819277108435" y="482.5361445783132" type="curve" smooth="yes"/>
      <point x="41.204819277108435" y="347.1144578313253"/>
      <point x="107.20481927710843" y="260.27108433734935"/>
      <point x="210.2951807228916" y="260.27108433734935" type="curve" smooth="yes"/>
      <point x="303.85542168674704" y="260.27108433734935"/>
      <point x="360.6807228915663" y="327.76506024096386"/>
      <point x="366.5903614457831" y="439.90361445783134" type="curve"/>
      <point x="359.68072289156623" y="439.90361445783134" type="line"/>
      <point x="359.68072289156623" y="355.5180722891566" type="line" smooth="yes"/>
      <point x="359.68072289156623" y="185.45180722891567"/>
      <point x="319.0722891566265" y="72.00602409638553"/>
      <point x="205.1144578313253" y="72.00602409638553" type="curve" smooth="yes"/>
      <point x="155.44578313253012" y="72.00602409638553"/>
      <point x="109.15662650602411" y="94.80722891566265"/>
      <point x="71.22289156626506" y="138.3433734939759" type="curve"/>
      <point x="41.36144578313253" y="65.89156626506025" type="line"/>
      <point x="82.98192771084337" y="18.44578313253012"/>
      <point x="142.04819277108433" y="-9.421686746987952"/>
    </contour>
    <contour>
      <point x="233.42168674698794" y="337.433734939759" type="curve" smooth="yes"/>
      <point x="168.10240963855424" y="337.433734939759"/>
      <point x="130.25301204819277" y="390.21686746987956"/>
      <point x="130.25301204819277" y="486.0240963855422" type="curve" smooth="yes"/>
      <point x="130.25301204819277" y="582.4096385542168"/>
      <point x="168.39156626506025" y="637.6144578313254"/>
      <point x="234.71084337349396" y="637.6144578313254" type="curve" smooth="yes"/>
      <point x="300.6746987951807" y="637.6144578313254"/>
      <point x="338.81325301204816" y="583.1204819277108"/>
      <point x="338.81325301204816" y="487.6686746987952" type="curve" smooth="yes"/>
      <point x="338.81325301204816" y="391.50602409638554"/>
      <point x="299.03012048192767" y="337.433734939759"/>
    </contour>
  </outline>
</glyph>
<glyph name="colon" format="2">
  <advance width="207.74698795180723"/>
  <unicode hex="003A"/>
  <outline>
    <contour>
      <point x="50.626506024096386" y="378.0602409638554" type="line"/>
      <point x="157.12048192771084" y="378.0602409638554" type="line"/>
      <point x="157.12048192771084" y="487.5542168674699" type="line"/>
      <point x="50.626506024096386" y="487.5542168674699" type="line"/>
    </contour>
    <contour>
      <point x="50.626506024096386" y="0.0" type="line"/>
      <point x="157.12048192771084" y="0.0" type="line"/>
      <point x="157.12048192771084" y="110.20481927710843" type="line"/>
      <point x="50.626506024096386" y="110.20481927710843" type="line"/>
    </contour>
  </outline>
</glyph>
<glyph name="semicolon" format="2">
  <advance width="207.74698795180723"/>
  <unicode hex="003B"/>
  <outline>
    <contour>
      <point x="96.37349397590361" y="-122.87951807228916" type="line"/>
      <point x="139.07831325301206" y="-76.5301204819277"/>
      <point x="157.12048192771084" y="-29.867469879518072"/>
      <point x="157.12048192771084" y="30.19277108433735" type="curve" smooth="yes"/>
      <point x="157.12048192771084" y="109.56024096385542" type="line"/>
      <point x="50.626506024096386" y="109.56024096385542" type="line"/>
      <point x="50.626506024096386" y="0.0" type="line"/>
      <point x="121.39156626506023" y="0.0" type="line"/>
      <point x="100.30722891566265" y="19.373493975903614" type="line"/>
      <point x="100.30722891566265" y="-24.957831325301207"/>
      <point x="88.6867469879518" y="-54.42168674698796"/>
      <point x="56.66867469879517" y="-91.0843373493976" type="curve"/>
    </contour>
    <contour>
      <point x="50.626506024096386" y="378.0602409638554" type="line"/>
      <point x="157.12048192771084" y="378.0602409638554" type="line"/>
      <point x="157.12048192771084" y="487.5542168674699" type="line"/>
      <point x="50.626506024096386" y="487.5542168674699" type="line"/>
    </contour>
  </outline>
</glyph>
<glyph name="less" format="2">
  <advance width="498.0"/>
  <unicode hex="003C"/>
  <outline>
    <contour>
      <point x="466.0" y="40.95783132530121" type="line"/>
      <point x="466.0" y="116.72289156626506" type="line"/>
      <point x="63.042168674698786" y="310.15060240963857" type="line"/>
      <point x="63.042168674698786" y="264.20481927710847" type="line"/>
      <point x="466.0" y="457.27710843373495" type="line"/>
      <point x="466.0" y="533.7530120481928" type="line"/>
      <point x="32.0" y="322.5481927710843" type="line"/>
      <point x="32.0" y="251.80722891566265" type="line"/>
    </contour>
  </outline>
</glyph>
<glyph name="equal" format="2">
  <advance width="498.0"/>
  <unicode hex="003D"/>
  <outline>
    <contour>
      <point x="32.0" y="353.7168674698795" type="line"/>
      <point x="466.0" y="353.7168674698795" type="line"/>
      <point x="466.0" y="420.70481927710847" type="line"/>
      <point x="32.0" y="420.70481927710847" type="line"/>
    </contour>
    <contour>
      <point x="32.0" y="154.00602409638554" type="line"/>
      <point x="466.0" y="154.00602409638554" type="line"/>
      <point x="466.0" y="220.28313253012047" type="line"/>
      <point x="32.0" y="220.28313253012047" type="line"/>
    </contour>
  </outline>
</glyph>
<glyph name="question" format="2">
  <advance width="379.1265060240964"/>
  <unicode hex="003F"/>
  <outline>
    <contour>
      <point x="153.35542168674698" y="189.92168674698797" type="line"/>
      <point x="209.27710843373495" y="189.92168674698797" type="line"/>
      <point x="211.3433734939759" y="215.89759036144576" type="line" smooth="yes"/>
      <point x="215.12048192771084" y="259.566265060241"/>
      <point x="223.0301204819277" y="293.36746987951807"/>
      <point x="283.78915662650604" y="373.5542168674699" type="curve" smooth="yes"/>
      <point x="325.9638554216868" y="424.55421686746985"/>
      <point x="359.855421686747" y="473.421686746988"/>
      <point x="359.855421686747" y="550.7590361445783" type="curve" smooth="yes"/>
      <point x="359.855421686747" y="655.0903614457831"/>
      <point x="296.90361445783134" y="714.4216867469879"/>
      <point x="194.53012048192772" y="714.4216867469879" type="curve" smooth="yes"/>
      <point x="123.0421686746988" y="714.4216867469879"/>
      <point x="51.8433734939759" y="684.843373493976"/>
      <point x="7.289156626506024" y="637.6867469879519" type="curve"/>
      <point x="36.084337349397586" y="566.5240963855422" type="line"/>
      <point x="83.72891566265059" y="612.8373493975904"/>
      <point x="130.0421686746988" y="633.6385542168675"/>
      <point x="179.5120481927711" y="633.6385542168675" type="curve" smooth="yes"/>
      <point x="237.00602409638554" y="633.6385542168675"/>
      <point x="265.83132530120486" y="604.4578313253012"/>
      <point x="265.83132530120486" y="542.5843373493976" type="curve" smooth="yes"/>
      <point x="265.83132530120486" y="485.19879518072287"/>
      <point x="241.49397590361446" y="449.50602409638554"/>
      <point x="217.33734939759034" y="412.1265060240964" type="curve" smooth="yes"/>
      <point x="156.55421686746988" y="318.09638554216866"/>
      <point x="153.35542168674698" y="271.7409638554217"/>
      <point x="153.35542168674698" y="221.4277108433735" type="curve" smooth="yes"/>
    </contour>
    <contour>
      <point x="127.89156626506023" y="0.0" type="line"/>
      <point x="234.74096385542168" y="0.0" type="line"/>
      <point x="234.74096385542168" y="109.56024096385542" type="line"/>
      <point x="127.89156626506023" y="109.56024096385542" type="line"/>
    </contour>
  </outline>
</glyph>
<glyph name="at" format="2">
  <advance width="799.5060240963855"/>
  <unicode hex="0040"/>
  <outline>
    <contour>
      <point x="406.1084337349398" y="-163.77710843373495" type="curve" smooth="yes"/>
      <point x="503.132530120482" y="-163.77710843373495"/>
      <point x="586.710843373494" y="-129.75301204819277"/>
      <point x="640.710843373494" y="-68.70481927710843" type="curve"/>
      <point x="606.1807228915662" y="-20.734939759036145" type="line"/>
      <point x="561.1807228915662" y="-73.00602409638554"/>
      <point x="490.933734939759" y="-101.89759036144578"/>
      <point x="407.81927710843377" y="-101.89759036144578" type="curve" smooth="yes"/>
      <point x="226.57228915662654" y="-101.89759036144578"/>
      <point x="119.90361445783132" y="33.01807228915663"/>
      <point x="119.90361445783132" y="265.37951807228916" type="curve" smooth="yes"/>
      <point x="119.90361445783132" y="505.2951807228916"/>
      <point x="235.1265060240964" y="652.1867469879518"/>
      <point x="423.9277108433735" y="652.1867469879518" type="curve" smooth="yes"/>
      <point x="588.3313253012047" y="652.1867469879518"/>
      <point x="681.6686746987951" y="538.4036144578313"/>
      <point x="681.6686746987951" y="333.644578313253" type="curve" smooth="yes"/>
      <point x="681.6686746987951" y="203.5722891566265"/>
      <point x="643.9096385542168" y="117.52409638554217"/>
      <point x="585.7710843373494" y="117.52409638554217" type="curve" smooth="yes"/>
      <point x="557.8795180722891" y="117.52409638554217"/>
      <point x="544.367469879518" y="137.39156626506025"/>
      <point x="544.367469879518" y="179.50602409638554" type="curve" smooth="yes"/>
      <point x="544.367469879518" y="192.86144578313255"/>
      <point x="546.078313253012" y="210.70481927710844"/>
      <point x="549.144578313253" y="231.9457831325301" type="curve" smooth="yes"/>
      <point x="583.5903614457832" y="487.1987951807229" type="line"/>
      <point x="512.4698795180723" y="487.1987951807229" type="line"/>
      <point x="499.11445783132535" y="392.9096385542169" type="line"/>
      <point x="511.5120481927711" y="392.9096385542169" type="line"/>
      <point x="498.02409638554224" y="462.3975903614458"/>
      <point x="462.5120481927711" y="496.62048192771084"/>
      <point x="403.578313253012" y="496.62048192771084" type="curve" smooth="yes"/>
      <point x="299.933734939759" y="496.62048192771084"/>
      <point x="228.06626506024094" y="392.10843373493975"/>
      <point x="228.06626506024094" y="243.75301204819277" type="curve" smooth="yes"/>
      <point x="228.06626506024094" y="124.77710843373494"/>
      <point x="274.4879518072289" y="59.0"/>
      <point x="359.1084337349398" y="59.0" type="curve" smooth="yes"/>
      <point x="425.7951807228916" y="59.0"/>
      <point x="473.50602409638554" y="100.62048192771086"/>
      <point x="502.4397590361446" y="184.7710843373494" type="curve"/>
      <point x="479.5120481927711" y="186.93373493975903" type="line"/>
      <point x="478.0421686746988" y="105.57831325301206"/>
      <point x="513.6626506024097" y="59.0"/>
      <point x="580.1506024096385" y="59.0" type="curve" smooth="yes"/>
      <point x="681.8373493975904" y="59.0"/>
      <point x="748.7469879518072" y="169.71084337349396"/>
      <point x="748.7469879518072" y="340.77710843373495" type="curve" smooth="yes"/>
      <point x="748.7469879518072" y="572.7771084337348"/>
      <point x="623.0602409638554" y="714.4216867469879"/>
      <point x="423.7951807228916" y="714.4216867469879" type="curve" smooth="yes"/>
      <point x="197.42168674698794" y="714.4216867469879"/>
      <point x="50.75903614457832" y="533.4698795180723"/>
      <point x="50.75903614457832" y="263.9578313253012" type="curve" smooth="yes"/>
      <point x="50.75903614457832" y="0.8674698795180724"/>
      <point x="187.93373493975903" y="-163.77710843373495"/>
    </contour>
    <contour>
      <point x="374.90361445783134" y="121.6566265060241" type="curve" smooth="yes"/>
      <point x="326.6325301204819" y="121.6566265060241"/>
      <point x="303.0301204819277" y="162.19277108433735"/>
      <point x="303.0301204819277" y="245.17469879518072" type="curve" smooth="yes"/>
      <point x="303.0301204819277" y="360.1807228915663"/>
      <point x="347.87951807228916" y="432.60843373493975"/>
      <point x="418.8192771084337" y="432.60843373493975" type="curve" smooth="yes"/>
      <point x="467.0903614457831" y="432.60843373493975"/>
      <point x="487.4036144578313" y="399.00602409638554"/>
      <point x="487.4036144578313" y="319.0240963855421" type="curve" smooth="yes"/>
      <point x="487.4036144578313" y="200.01807228915663"/>
      <point x="442.5542168674699" y="121.6566265060241"/>
    </contour>
  </outline>
</glyph>
<glyph name="A" format="2">
  <advance width="609.4156626506024"/>
  <unicode hex="0041"/>
  <anchor x="304.8855421686747" y="0.0" name="bottom"/>
  <anchor x="569.8192771084337" y="0.0" name="ogonek"/>
  <anchor x="305.2409638554217" y="705.0" name="top"/>
  <outline>
    <contour>
      <point x="7.963855421686748" y="0.0" type="line"/>
      <point x="103.40963855421687" y="0.0" type="line"/>
      <point x="169.210843373494" y="200.09036144578312" type="line"/>
      <point x="131.86144578313252" y="176.03012048192772" type="line"/>
      <point x="476.2650602409638" y="176.03012048192772" type="line"/>
      <point x="439.2048192771084" y="200.09036144578312" type="line"/>
      <point x="505.3614457831326" y="0.0" type="line"/>
      <point x="602.1626506024096" y="0.0" type="line"/>
      <point x="345.5" y="705.0" type="line"/>
      <point x="264.6265060240964" y="705.0" type="line"/>
    </contour>
    <contour>
      <point x="303.53012048192767" y="601.777108433735" type="line"/>
      <point x="304.53012048192767" y="601.777108433735" type="line"/>
      <point x="428.7168674698795" y="231.1987951807229" type="line"/>
      <point x="443.49397590361446" y="252.25903614457832" type="line"/>
      <point x="164.27710843373492" y="252.25903614457832" type="line"/>
      <point x="179.6987951807229" y="231.1987951807229" type="line"/>
    </contour>
  </outline>
</glyph>
<glyph name="B" format="2">
  <advance width="565.7951807228915"/>
  <unicode hex="0042"/>
  <anchor x="283.62048192771084" y="0.0" name="bottom"/>
  <anchor x="283.9759036144578" y="705.0" name="top"/>
  <outline>
    <contour>
      <point x="69.84939759036145" y="0.0" type="line"/>
      <point x="315.0602409638554" y="0.0" type="line" smooth="yes"/>
      <point x="440.1927710843373" y="0.0"/>
      <point x="516.301204819277" y="71.90963855421687"/>
      <point x="516.301204819277" y="193.75301204819277" type="curve" smooth="yes"/>
      <point x="516.301204819277" y="293.0"/>
      <point x="472.01204819277103" y="354.06626506024094"/>
      <point x="388.2771084337349" y="368.1987951807229" type="curve"/>
      <point x="388.2771084337349" y="353.4879518072289" type="line"/>
      <point x="462.23493975903614" y="374.13253012048193"/>
      <point x="501.5240963855422" y="433.9096385542169"/>
      <point x="501.5240963855422" y="523.578313253012" type="curve" smooth="yes"/>
      <point x="501.5240963855422" y="638.2228915662652"/>
      <point x="428.54819277108436" y="705.0"/>
      <point x="306.1265060240964" y="705.0" type="curve" smooth="yes"/>
      <point x="69.84939759036145" y="705.0" type="line"/>
    </contour>
    <contour>
      <point x="160.45180722891567" y="73.38554216867469" type="line"/>
      <point x="160.45180722891567" y="320.51807228915663" type="line"/>
      <point x="305.3313253012048" y="320.51807228915663" type="line" smooth="yes"/>
      <point x="386.5843373493976" y="320.51807228915663"/>
      <point x="424.0542168674699" y="281.2710843373494"/>
      <point x="424.0542168674699" y="196.95180722891564" type="curve" smooth="yes"/>
      <point x="424.0542168674699" y="115.27710843373495"/>
      <point x="384.00602409638554" y="73.38554216867469"/>
      <point x="302.7530120481928" y="73.38554216867469" type="curve" smooth="yes"/>
    </contour>
    <contour>
      <point x="160.45180722891567" y="393.9036144578313" type="line"/>
      <point x="160.45180722891567" y="631.6144578313254" type="line"/>
      <point x="289.9759036144578" y="631.6144578313254" type="line" smooth="yes"/>
      <point x="369.2951807228916" y="631.6144578313254"/>
      <point x="409.63253012048193" y="591.5"/>
      <point x="409.63253012048193" y="514.6927710843373" type="curve" smooth="yes"/>
      <point x="409.63253012048193" y="437.5301204819277"/>
      <point x="367.3614457831325" y="393.9036144578313"/>
      <point x="291.9096385542169" y="393.9036144578313" type="curve" smooth="yes"/>
    </contour>
  </outline>
</glyph>
<glyph name="C" format="2">
  <advance width="559.3975903614459"/>
  <unicode hex="0043"/>
  <anchor x="321.6867469879518" y="0.0" name="bottom"/>
  <anchor x="321.6867469879518" y="705.0" name="top"/>
  <outline>
    <contour>
      <point x="327.72891566265065" y="-9.421686746987952" type="curve" smooth="yes"/>
      <point x="408.7951807228916" y="-9.421686746987952"/>
      <point x="477.2168674698795" y="18.156626506024097"/>
      <point x="524.2831325301205" y="68.60240963855422" type="curve"/>
      <point x="494.5542168674699" y="143.0301204819277" type="line"/>
      <point x="447.3313253012048" y="96.42771084337349"/>
      <point x="396.8855421686747" y="74.91566265060241"/>
      <point x="335.7048192771084" y="74.91566265060241" type="curve" smooth="yes"/>
      <point x="210.0301204819277" y="74.91566265060241"/>
      <point x="150.1144578313253" y="164.210843373494"/>
      <point x="150.1144578313253" y="353.0" type="curve" smooth="yes"/>
      <point x="150.1144578313253" y="541.5"/>
      <point x="209.3855421686747" y="630.0843373493976"/>
      <point x="335.0602409638554" y="630.0843373493976" type="curve" smooth="yes"/>
      <point x="396.5301204819277" y="630.0843373493976"/>
      <point x="447.3313253012048" y="608.5722891566264"/>
      <point x="494.9096385542169" y="561.9698795180723" type="curve"/>
      <point x="524.2831325301205" y="636.3975903614459" type="line"/>
      <point x="477.5722891566265" y="687.5542168674698"/>
      <point x="409.15060240963857" y="714.4216867469879"/>
      <point x="328.08433734939763" y="714.4216867469879" type="curve" smooth="yes"/>
      <point x="150.42168674698794" y="714.4216867469879"/>
      <point x="50.75903614457832" y="585.1566265060242"/>
      <point x="50.75903614457832" y="352.355421686747" type="curve" smooth="yes"/>
      <point x="50.75903614457832" y="119.84337349397589"/>
      <point x="150.06626506024097" y="-9.421686746987952"/>
    </contour>
  </outline>
</glyph>
<glyph name="D" format="2">
  <advance width="623.7469879518072"/>
  <unicode hex="0044"/>
  <anchor x="310.59638554216866" y="0.0" name="bottom"/>
  <anchor x="158.7289156626506" y="358.0" name="center"/>
  <anchor x="310.95180722891564" y="705.0" name="top"/>
  <outline>
    <contour>
      <point x="69.84939759036145" y="0.0" type="line"/>
      <point x="283.92771084337346" y="0.0" type="line" smooth="yes"/>
      <point x="475.16867469879514" y="0.0"/>
      <point x="573.6987951807229" y="120.1987951807229"/>
      <point x="573.6987951807229" y="353.0" type="curve" smooth="yes"/>
      <point x="573.6987951807229" y="585.801204819277"/>
      <point x="475.16867469879514" y="705.0"/>
      <point x="283.92771084337346" y="705.0" type="curve" smooth="yes"/>
      <point x="69.84939759036145" y="705.0" type="line"/>
    </contour>
    <contour>
      <point x="164.00602409638554" y="79.78313253012048" type="line"/>
      <point x="164.00602409638554" y="625.2168674698795" type="line"/>
      <point x="277.7951807228916" y="625.2168674698795" type="line" smooth="yes"/>
      <point x="415.1385542168675" y="625.2168674698795"/>
      <point x="475.4096385542169" y="542.789156626506"/>
      <point x="475.4096385542169" y="353.0" type="curve" smooth="yes"/>
      <point x="475.4096385542169" y="163.210843373494"/>
      <point x="415.8493975903615" y="79.78313253012048"/>
      <point x="277.7951807228916" y="79.78313253012048" type="curve" smooth="yes"/>
    </contour>
  </outline>
</glyph>
<glyph name="E" format="2">
  <advance width="490.99397590361446"/>
  <unicode hex="0045"/>
  <anchor x="270.2650602409638" y="0.0" name="bottom"/>
  <anchor x="407.19879518072287" y="0.0" name="ogonek"/>
  <anchor x="270.2650602409638" y="705.0" name="top"/>
  <anchor x="24.44578313253012" y="705.0" name="topleft"/>
  <outline>
    <contour>
      <point x="69.84939759036145" y="0.0" type="line"/>
      <point x="444.34939759036143" y="0.0" type="line"/>
      <point x="444.34939759036143" y="76.58433734939759" type="line"/>
      <point x="160.45180722891567" y="76.58433734939759" type="line"/>
      <point x="160.45180722891567" y="319.3855421686747" type="line"/>
      <point x="421.7710843373494" y="319.3855421686747" type="line"/>
      <point x="421.7710843373494" y="395.9698795180723" type="line"/>
      <point x="160.45180722891567" y="395.9698795180723" type="line"/>
      <point x="160.45180722891567" y="628.4156626506024" type="line"/>
      <point x="444.34939759036143" y="628.4156626506024" type="line"/>
      <point x="444.34939759036143" y="705.0" type="line"/>
      <point x="69.84939759036145" y="705.0" type="line"/>
    </contour>
  </outline>
</glyph>
<glyph name="F" format="2">
  <advance width="462.6385542168675"/>
  <unicode hex="0046"/>
  <anchor x="247.90963855421685" y="0.0" name="bottom"/>
  <anchor x="249.6867469879518" y="705.0" name="top"/>
  <outline>
    <contour>
      <point x="69.84939759036145" y="0.0" type="line"/>
      <point x="164.00602409638554" y="0.0" type="line"/>
      <point x="164.00602409638554" y="316.18674698795184" type="line"/>
      <point x="421.0602409638554" y="316.18674698795184" type="line"/>
      <point x="421.0602409638554" y="392.77108433734935" type="line"/>
      <point x="164.00602409638554" y="392.77108433734935" type="line"/>
      <point x="164.00602409638554" y="628.4156626506024" type="line"/>
      <point x="437.77108433734935" y="628.4156626506024" type="line"/>
      <point x="437.77108433734935" y="705.0" type="line"/>
      <point x="69.84939759036145" y="705.0" type="line"/>
    </contour>
  </outline>
</glyph>
<glyph name="G" format="2">
  <advance width="604.3072289156627"/>
  <unicode hex="0047"/>
  <anchor x="334.01807228915663" y="0.0" name="bottom"/>
  <anchor x="328.01807228915663" y="705.0" name="top"/>
  <outline>
    <contour>
      <point x="338.6626506024096" y="-9.421686746987952" type="curve" smooth="yes"/>
      <point x="409.8614457831325" y="-9.421686746987952"/>
      <point x="488.5722891566265" y="8.933734939759036"/>
      <point x="539.4578313253012" y="36.13253012048193" type="curve"/>
      <point x="539.4578313253012" y="370.4156626506024" type="line"/>
      <point x="325.710843373494" y="370.4156626506024" type="line"/>
      <point x="325.710843373494" y="298.4518072289157" type="line"/>
      <point x="458.8072289156626" y="298.4518072289157" type="line"/>
      <point x="458.8072289156626" y="65.40963855421687" type="line"/>
      <point x="484.82530120481925" y="101.09638554216866" type="line"/>
      <point x="436.9578313253012" y="82.65060240963855"/>
      <point x="389.06626506024094" y="72.42771084337349"/>
      <point x="343.72891566265065" y="72.42771084337349" type="curve" smooth="yes"/>
      <point x="209.03012048192772" y="72.42771084337349"/>
      <point x="149.04819277108436" y="159.3433734939759"/>
      <point x="149.04819277108436" y="352.06626506024094" type="curve" smooth="yes"/>
      <point x="149.04819277108436" y="543.5662650602409"/>
      <point x="209.09638554216866" y="631.1506024096385"/>
      <point x="340.32530120481925" y="631.1506024096385" type="curve" smooth="yes"/>
      <point x="403.92771084337346" y="631.1506024096385"/>
      <point x="456.4397590361446" y="610.7048192771084"/>
      <point x="507.08433734939763" y="565.5240963855422" type="curve"/>
      <point x="537.1686746987951" y="638.8855421686746" type="line"/>
      <point x="487.4578313253012" y="688.198795180723"/>
      <point x="417.6144578313253" y="714.4216867469879"/>
      <point x="335.8373493975904" y="714.4216867469879" type="curve" smooth="yes"/>
      <point x="152.1987951807229" y="714.4216867469879"/>
      <point x="50.75903614457832" y="585.8674698795181"/>
      <point x="50.75903614457832" y="351.0" type="curve" smooth="yes"/>
      <point x="50.75903614457832" y="115.1987951807229"/>
      <point x="150.42168674698794" y="-9.421686746987952"/>
    </contour>
  </outline>
</glyph>
<glyph name="H" format="2">
  <advance width="633.1506024096385"/>
  <unicode hex="0048"/>
  <anchor x="316.7530120481928" y="0.0" name="bottom"/>
  <anchor x="316.7530120481928" y="554.9518072289156" name="center"/>
  <anchor x="316.39759036144574" y="705.0" name="top"/>
  <anchor x="24.44578313253012" y="705.0" name="topleft"/>
  <outline>
    <contour>
      <point x="69.84939759036145" y="0.0" type="line"/>
      <point x="164.00602409638554" y="0.0" type="line"/>
      <point x="164.00602409638554" y="317.60843373493975" type="line"/>
      <point x="469.144578313253" y="317.60843373493975" type="line"/>
      <point x="469.144578313253" y="0.0" type="line"/>
      <point x="563.301204819277" y="0.0" type="line"/>
      <point x="563.301204819277" y="705.0" type="line"/>
      <point x="469.144578313253" y="705.0" type="line"/>
      <point x="469.144578313253" y="397.39156626506025" type="line"/>
      <point x="164.00602409638554" y="397.39156626506025" type="line"/>
      <point x="164.00602409638554" y="705.0" type="line"/>
      <point x="69.84939759036145" y="705.0" type="line"/>
    </contour>
  </outline>
</glyph>
<glyph name="I" format="2">
  <advance width="233.14457831325302"/>
  <unicode hex="0049"/>
  <anchor x="116.92771084337349" y="0.0" name="bottom"/>
  <anchor x="143.03614457831324" y="0.0" name="ogonek"/>
  <anchor x="116.92771084337349" y="705.0" name="top"/>
  <anchor x="24.09036144578313" y="705.0" name="topleft"/>
  <outline>
    <contour>
      <point x="69.84939759036145" y="0.0" type="line"/>
      <point x="164.00602409638554" y="0.0" type="line"/>
      <point x="164.00602409638554" y="705.0" type="line"/>
      <point x="69.84939759036145" y="705.0" type="line"/>
    </contour>
  </outline>
</glyph>
<glyph name="J" format="2">
  <advance width="291.60843373493975"/>
  <unicode hex="004A"/>
  <anchor x="174.32530120481928" y="0.0" name="bottom"/>
  <anchor x="173.9698795180723" y="705.0" name="top"/>
  <outline>
    <contour>
      <point x="3.8433734939759034" y="-8.132530120481928" type="line"/>
      <point x="66.4578313253012" y="-3.7771084337349397" type="line" smooth="yes"/>
      <point x="172.2289156626506" y="4.933734939759036"/>
      <point x="221.75903614457832" y="62.55421686746988"/>
      <point x="221.75903614457832" y="173.9277108433735" type="curve" smooth="yes"/>
      <point x="221.75903614457832" y="705.0" type="line"/>
      <point x="127.6024096385542" y="705.0" type="line"/>
      <point x="127.6024096385542" y="175.50602409638554" type="line" smooth="yes"/>
      <point x="127.6024096385542" y="111.85542168674698"/>
      <point x="103.71084337349397" y="78.87349397590361"/>
      <point x="51.795180722891565" y="74.29518072289156" type="curve" smooth="yes"/>
      <point x="-3.710843373493976" y="70.29518072289156" type="line"/>
    </contour>
  </outline>
</glyph>
<glyph name="K" format="2">
  <advance width="539.9156626506025"/>
  <unicode hex="004B"/>
  <anchor x="270.83734939759034" y="0.0" name="bottom"/>
  <anchor x="271.1927710843374" y="705.0" name="top"/>
  <anchor x="24.44578313253012" y="705.0" name="topleft"/>
  <outline>
    <contour>
      <point x="69.84939759036145" y="0.0" type="line"/>
      <point x="164.00602409638554" y="0.0" type="line"/>
      <point x="164.00602409638554" y="330.82530120481925" type="line"/>
      <point x="166.00602409638554" y="330.82530120481925" type="line"/>
      <point x="436.933734939759" y="0.0" type="line"/>
      <point x="554.5542168674699" y="0.0" type="line"/>
      <point x="233.6987951807229" y="386.8614457831326" type="line"/>
      <point x="233.40963855421685" y="339.51204819277103" type="line"/>
      <point x="539.2409638554216" y="705.0" type="line"/>
      <point x="425.2650602409638" y="705.0" type="line"/>
      <point x="166.00602409638554" y="386.66265060240966" type="line"/>
      <point x="164.00602409638554" y="386.66265060240966" type="line"/>
      <point x="164.00602409638554" y="705.0" type="line"/>
      <point x="69.84939759036145" y="705.0" type="line"/>
    </contour>
  </outline>
</glyph>
<glyph name="L" format="2">
  <advance width="462.3253012048192"/>
  <unicode hex="004C"/>
  <anchor x="255.48795180722894" y="0.0" name="bottom"/>
  <anchor x="153.99397590361446" y="387.0" name="center"/>
  <anchor x="344.94578313253015" y="390.3313253012048" name="dot"/>
  <anchor x="116.92771084337349" y="705.0" name="top"/>
  <anchor x="251.34337349397592" y="705.0" name="topright"/>
  <outline>
    <contour>
      <point x="69.84939759036145" y="0.0" type="line"/>
      <point x="442.12650602409644" y="0.0" type="line"/>
      <point x="442.12650602409644" y="81.20481927710844" type="line"/>
      <point x="164.00602409638554" y="81.20481927710844" type="line"/>
      <point x="164.00602409638554" y="705.0" type="line"/>
      <point x="69.84939759036145" y="705.0" type="line"/>
    </contour>
  </outline>
</glyph>
<glyph name="M" format="2">
  <advance width="714.7048192771084"/>
  <unicode hex="004D"/>
  <anchor x="357.8855421686747" y="0.0" name="bottom"/>
  <anchor x="357.8855421686747" y="705.0" name="top"/>
  <outline>
    <contour>
      <point x="71.84939759036145" y="0.0" type="line"/>
      <point x="159.0301204819277" y="0.0" type="line"/>
      <point x="159.0301204819277" y="568.3433734939758" type="line"/>
      <point x="141.67469879518072" y="568.3433734939758" type="line"/>
      <point x="330.37951807228916" y="113.90963855421687" type="line"/>
      <point x="383.96987951807233" y="113.90963855421687" type="line"/>
      <point x="572.6746987951808" y="567.3433734939758" type="line"/>
      <point x="556.3855421686748" y="567.3433734939758" type="line"/>
      <point x="556.3855421686748" y="0.0" type="line"/>
      <point x="643.566265060241" y="0.0" type="line"/>
      <point x="643.566265060241" y="705.0" type="line"/>
      <point x="553.6987951807229" y="705.0" type="line"/>
      <point x="344.19879518072287" y="197.289156626506" type="line"/>
      <point x="374.21686746987956" y="197.289156626506" type="line"/>
      <point x="163.4277108433735" y="705.0" type="line"/>
      <point x="71.84939759036145" y="705.0" type="line"/>
    </contour>
  </outline>
</glyph>
<glyph name="N" format="2">
  <advance width="614.8855421686746"/>
  <unicode hex="004E"/>
  <anchor x="307.2650602409638" y="0.0" name="bottom"/>
  <anchor x="307.62048192771084" y="705.0" name="top"/>
  <outline>
    <contour>
      <point x="69.84939759036145" y="0.0" type="line"/>
      <point x="157.0301204819277" y="0.0" type="line"/>
      <point x="157.0301204819277" y="585.1867469879519" type="line"/>
      <point x="124.30120481927712" y="585.1867469879519" type="line"/>
      <point x="472.65060240963857" y="0.0" type="line"/>
      <point x="545.0361445783132" y="0.0" type="line"/>
      <point x="545.0361445783132" y="705.0" type="line"/>
      <point x="457.855421686747" y="705.0" type="line"/>
      <point x="457.855421686747" y="120.52409638554218" type="line"/>
      <point x="490.2951807228916" y="120.52409638554218" type="line"/>
      <point x="142.59036144578312" y="705.0" type="line"/>
      <point x="69.84939759036145" y="705.0" type="line"/>
    </contour>
  </outline>
</glyph>
<glyph name="O" format="2">
  <advance width="642.9698795180723"/>
  <unicode hex="004F"/>
  <anchor x="321.6626506024096" y="-9.421686746987952" name="Qtail"/>
  <anchor x="321.6626506024096" y="0.0" name="bottom"/>
  <anchor x="321.6626506024096" y="353.0" name="center"/>
  <anchor x="368.8614457831325" y="0.0" name="ogonek"/>
  <anchor x="322.01807228915663" y="705.0" name="top"/>
  <anchor x="26.289156626506024" y="705.0" name="topleft"/>
  <anchor x="379.3072289156626" y="705.0" name="topright"/>
  <outline>
    <contour>
      <point x="322.01807228915663" y="-9.421686746987952" type="curve" smooth="yes"/>
      <point x="493.6144578313253" y="-9.421686746987952"/>
      <point x="592.921686746988" y="123.1987951807229"/>
      <point x="592.921686746988" y="353.355421686747" type="curve" smooth="yes"/>
      <point x="592.921686746988" y="583.1566265060242"/>
      <point x="493.2590361445783" y="714.4216867469879"/>
      <point x="322.01807228915663" y="714.4216867469879" type="curve" smooth="yes"/>
      <point x="150.06626506024094" y="714.4216867469879"/>
      <point x="50.75903614457832" y="582.5120481927711"/>
      <point x="50.75903614457832" y="352.0" type="curve" smooth="yes"/>
      <point x="50.75903614457832" y="122.1987951807229"/>
      <point x="150.06626506024097" y="-9.421686746987952"/>
    </contour>
    <contour>
      <point x="322.01807228915663" y="72.42771084337349" type="curve" smooth="yes"/>
      <point x="207.8975903614458" y="72.42771084337349"/>
      <point x="149.04819277108436" y="167.789156626506"/>
      <point x="149.04819277108436" y="352.0" type="curve" smooth="yes"/>
      <point x="149.04819277108436" y="537.5662650602409"/>
      <point x="207.8975903614458" y="632.5722891566264"/>
      <point x="322.01807228915663" y="632.5722891566264" type="curve" smooth="yes"/>
      <point x="436.1385542168675" y="632.5722891566264"/>
      <point x="494.632530120482" y="537.9216867469879"/>
      <point x="494.632530120482" y="353.0" type="curve" smooth="yes"/>
      <point x="494.632530120482" y="168.14457831325302"/>
      <point x="435.7831325301205" y="72.42771084337349"/>
    </contour>
  </outline>
</glyph>
<glyph name="P" format="2">
  <advance width="535.0361445783133"/>
  <unicode hex="0050"/>
  <anchor x="272.59638554216866" y="0.0" name="bottom"/>
  <anchor x="272.95180722891564" y="705.0" name="top"/>
  <outline>
    <contour>
      <point x="69.84939759036145" y="0.0" type="line"/>
      <point x="164.00602409638554" y="0.0" type="line"/>
      <point x="164.00602409638554" y="277.31927710843377" type="line"/>
      <point x="307.2590361445783" y="277.31927710843377" type="line" smooth="yes"/>
      <point x="432.5240963855422" y="277.31927710843377"/>
      <point x="506.433734939759" y="356.6506024096385"/>
      <point x="506.433734939759" y="491.33734939759034" type="curve" smooth="yes"/>
      <point x="506.433734939759" y="626.3795180722892"/>
      <point x="433.16867469879514" y="705.0"/>
      <point x="307.2590361445783" y="705.0" type="curve" smooth="yes"/>
      <point x="69.84939759036145" y="705.0" type="line"/>
    </contour>
    <contour>
      <point x="164.00602409638554" y="353.1927710843373" type="line"/>
      <point x="164.00602409638554" y="629.1265060240963" type="line"/>
      <point x="293.17469879518075" y="629.1265060240963" type="line" smooth="yes"/>
      <point x="372.20481927710847" y="629.1265060240963"/>
      <point x="414.5421686746988" y="580.0783132530121"/>
      <point x="414.5421686746988" y="491.33734939759034" type="curve" smooth="yes"/>
      <point x="414.5421686746988" y="402.59638554216866"/>
      <point x="372.20481927710847" y="353.1927710843373"/>
      <point x="293.17469879518075" y="353.1927710843373" type="curve" smooth="yes"/>
    </contour>
  </outline>
</glyph>
<glyph name="R" format="2">
  <advance width="562.5481927710844"/>
  <unicode hex="0052"/>
  <anchor x="286.2409638554217" y="0.0" name="bottom"/>
  <anchor x="285.8855421686747" y="705.0" name="top"/>
  <outline>
    <contour>
      <point x="69.84939759036145" y="0.0" type="line"/>
      <point x="164.00602409638554" y="0.0" type="line"/>
      <point x="164.00602409638554" y="291.2530120481928" type="line"/>
      <point x="245.2650602409639" y="291.2530120481928" type="line" smooth="yes"/>
      <point x="294.84939759036143" y="291.2530120481928"/>
      <point x="319.3855421686747" y="273.16265060240966"/>
      <point x="341.63253012048193" y="222.4457831325301" type="curve" smooth="yes"/>
      <point x="437.144578313253" y="0.0" type="line"/>
      <point x="541.6987951807229" y="0.0" type="line"/>
      <point x="445.2951807228916" y="224.45180722891564" type="line" smooth="yes"/>
      <point x="421.00602409638554" y="281.0301204819277"/>
      <point x="386.16265060240966" y="308.3855421686747"/>
      <point x="342.0301204819277" y="308.3855421686747" type="curve" smooth="yes"/>
      <point x="317.2590361445783" y="308.3855421686747" type="line"/>
      <point x="310.48192771084337" y="294.2530120481928" type="line"/>
      <point x="433.2349397590362" y="294.2530120481928"/>
      <point x="506.433734939759" y="371.51807228915663"/>
      <point x="506.433734939759" y="499.9819277108434" type="curve" smooth="yes"/>
      <point x="506.433734939759" y="628.9578313253012"/>
      <point x="432.4578313253012" y="705.0"/>
      <point x="306.83734939759034" y="705.0" type="curve" smooth="yes"/>
      <point x="69.84939759036145" y="705.0" type="line"/>
    </contour>
    <contour>
      <point x="164.00602409638554" y="363.5722891566265" type="line"/>
      <point x="164.00602409638554" y="629.1265060240963" type="line"/>
      <point x="291.10843373493975" y="629.1265060240963" type="line" smooth="yes"/>
      <point x="370.84939759036143" y="629.1265060240963"/>
      <point x="414.5421686746988" y="583.0120481927711"/>
      <point x="414.5421686746988" y="498.1385542168675" type="curve" smooth="yes"/>
      <point x="414.5421686746988" y="411.62048192771084"/>
      <point x="370.20481927710847" y="363.5722891566265"/>
      <point x="291.10843373493975" y="363.5722891566265" type="curve" smooth="yes"/>
    </contour>
  </outline>
</glyph>
<glyph name="S" format="2">
  <advance width="517.8373493975904"/>
  <unicode hex="0053"/>
  <anchor x="265.8192771084337" y="0.0" name="bottom"/>
  <anchor x="266.15060240963857" y="705.0" name="top"/>
  <outline>
    <contour>
      <point x="259.10843373493975" y="-9.421686746987952" type="curve" smooth="yes"/>
      <point x="397.06024096385545" y="-9.421686746987952"/>
      <point x="485.0120481927711" y="66.3975903614458"/>
      <point x="485.0120481927711" y="189.48192771084337" type="curve" smooth="yes"/>
      <point x="485.0120481927711" y="283.7469879518072"/>
      <point x="433.30120481927713" y="342.9457831325301"/>
      <point x="325.855421686747" y="372.8132530120482" type="curve" smooth="yes"/>
      <point x="238.8795180722892" y="397.1686746987952" type="line" smooth="yes"/>
      <point x="178.8734939759036" y="414.54819277108436"/>
      <point x="148.33734939759037" y="453.17469879518075"/>
      <point x="148.33734939759037" y="511.1144578313254" type="curve" smooth="yes"/>
      <point x="148.33734939759037" y="587.433734939759"/>
      <point x="197.60843373493975" y="632.9939759036145"/>
      <point x="280.1265060240964" y="632.9939759036145" type="curve" smooth="yes"/>
      <point x="339.08433734939763" y="632.9939759036145"/>
      <point x="394.9939759036145" y="610.0602409638554"/>
      <point x="439.37349397590367" y="565.9457831325301" type="curve"/>
      <point x="466.7469879518073" y="637.7530120481928" type="line"/>
      <point x="421.03614457831327" y="686.4879518072289"/>
      <point x="351.06024096385545" y="714.4216867469879"/>
      <point x="274.92771084337346" y="714.4216867469879" type="curve" smooth="yes"/>
      <point x="141.55421686746988" y="714.4216867469879"/>
      <point x="54.31325301204819" y="631.6686746987951"/>
      <point x="54.31325301204819" y="504.1385542168675" type="curve" smooth="yes"/>
      <point x="54.31325301204819" y="405.65060240963857"/>
      <point x="104.66867469879519" y="345.8072289156626"/>
      <point x="206.37951807228916" y="316.51807228915663" type="curve" smooth="yes"/>
      <point x="293.77710843373495" y="291.8072289156627" type="line" smooth="yes"/>
      <point x="361.16265060240966" y="272.2048192771084"/>
      <point x="391.34337349397595" y="238.37951807228913"/>
      <point x="391.34337349397595" y="182.0843373493976" type="curve" smooth="yes"/>
      <point x="391.34337349397595" y="109.98795180722892"/>
      <point x="345.3614457831325" y="72.00602409638553"/>
      <point x="259.3313253012048" y="72.00602409638553" type="curve" smooth="yes"/>
      <point x="189.79518072289156" y="72.00602409638553"/>
      <point x="124.26506024096386" y="95.42771084337349"/>
      <point x="70.75301204819277" y="140.0301204819277" type="curve"/>
      <point x="43.37951807228916" y="64.66867469879519" type="line"/>
      <point x="95.51204819277109" y="18.57831325301205"/>
      <point x="176.97590361445785" y="-9.421686746987952"/>
    </contour>
  </outline>
</glyph>
<glyph name="T" format="2">
  <advance width="509.3253012048192"/>
  <unicode hex="0054"/>
  <anchor x="255.01807228915663" y="0.0" name="bottom"/>
  <anchor x="255.37349397590364" y="358.0" name="center"/>
  <anchor x="255.37349397590364" y="705.0" name="top"/>
  <outline>
    <contour>
      <point x="207.93975903614458" y="0.0" type="line"/>
      <point x="302.09638554216866" y="0.0" type="line"/>
      <point x="302.09638554216866" y="624.8614457831325" type="line"/>
      <point x="500.68072289156623" y="624.8614457831325" type="line"/>
      <point x="500.68072289156623" y="705.0" type="line"/>
      <point x="9.355421686746988" y="705.0" type="line"/>
      <point x="9.355421686746988" y="624.8614457831325" type="line"/>
      <point x="207.93975903614458" y="624.8614457831325" type="line"/>
    </contour>
  </outline>
</glyph>
<glyph name="U" format="2">
  <advance width="606.6626506024097"/>
  <unicode hex="0055"/>
  <anchor x="303.3313253012048" y="0.0" name="bottom"/>
  <anchor x="350.0421686746988" y="0.0" name="ogonek"/>
  <anchor x="303.3313253012048" y="705.0" name="top"/>
  <anchor x="470.6927710843374" y="705.0" name="topright"/>
  <outline>
    <contour>
      <point x="303.6867469879518" y="-9.421686746987952" type="curve" smooth="yes"/>
      <point x="464.4819277108433" y="-9.421686746987952"/>
      <point x="540.8132530120482" y="75.77710843373494"/>
      <point x="540.8132530120482" y="256.17469879518075" type="curve" smooth="yes"/>
      <point x="540.8132530120482" y="705.0" type="line"/>
      <point x="447.367469879518" y="705.0" type="line"/>
      <point x="447.367469879518" y="258.9759036144578" type="line" smooth="yes"/>
      <point x="447.367469879518" y="128.3433734939759"/>
      <point x="404.09638554216866" y="72.42771084337349"/>
      <point x="304.0421686746988" y="72.42771084337349" type="curve" smooth="yes"/>
      <point x="204.3433734939759" y="72.42771084337349"/>
      <point x="160.00602409638554" y="128.69879518072287"/>
      <point x="160.00602409638554" y="258.9759036144578" type="curve" smooth="yes"/>
      <point x="160.00602409638554" y="705.0" type="line"/>
      <point x="65.84939759036145" y="705.0" type="line"/>
      <point x="65.84939759036145" y="256.17469879518075" type="line" smooth="yes"/>
      <point x="65.84939759036145" y="76.13253012048192"/>
      <point x="142.89156626506025" y="-9.421686746987952"/>
    </contour>
  </outline>
</glyph>
<glyph name="V" format="2">
  <advance width="582.433734939759"/>
  <unicode hex="0056"/>
  <anchor x="291.2168674698795" y="0.0" name="bottom"/>
  <anchor x="291.2168674698795" y="705.0" name="top"/>
  <outline>
    <contour>
      <point x="251.95783132530124" y="0.0" type="line"/>
      <point x="330.4759036144578" y="0.0" type="line"/>
      <point x="583.5843373493975" y="705.0" type="line"/>
      <point x="487.36144578313247" y="705.0" type="line"/>
      <point x="275.5301204819277" y="80.90963855421685" type="line"/>
      <point x="311.1024096385542" y="80.90963855421685" type="line"/>
      <point x="98.56024096385542" y="705.0" type="line"/>
      <point x="-1.1506024096385534" y="705.0" type="line"/>
    </contour>
  </outline>
</glyph>
<glyph name="W" format="2">
  <advance width="909.1506024096386"/>
  <unicode hex="0057"/>
  <anchor x="455.3975903614458" y="0.0" name="bottom"/>
  <anchor x="454.7530120481928" y="705.0" name="top"/>
  <outline>
    <contour>
      <point x="224.4698795180723" y="0.0" type="line"/>
      <point x="304.8313253012048" y="0.0" type="line"/>
      <point x="462.8192771084337" y="593.4096385542169" type="line"/>
      <point x="446.68674698795184" y="593.4096385542169" type="line"/>
      <point x="605.0301204819277" y="0.0" type="line"/>
      <point x="685.0361445783133" y="0.0" type="line"/>
      <point x="885.8795180722891" y="705.0" type="line"/>
      <point x="793.5662650602409" y="705.0" type="line"/>
      <point x="632.9337349397591" y="83.43975903614458" type="line"/>
      <point x="658.9096385542169" y="83.43975903614458" type="line"/>
      <point x="492.43373493975906" y="705.0" type="line"/>
      <point x="420.7590361445783" y="705.0" type="line"/>
      <point x="253.92771084337352" y="83.43975903614458" type="line"/>
      <point x="281.8373493975904" y="83.43975903614458" type="line"/>
      <point x="121.20481927710843" y="705.0" type="line"/>
      <point x="24.337349397590362" y="705.0" type="line"/>
    </contour>
  </outline>
</glyph>
<glyph name="X" format="2">
  <advance width="550.2349397590361"/>
  <unicode hex="0058"/>
  <anchor x="275.7951807228916" y="0.0" name="bottom"/>
  <anchor x="275.43975903614455" y="705.0" name="top"/>
  <outline>
    <contour>
      <point x="3.740963855421688" y="0.0" type="line"/>
      <point x="114.78313253012048" y="0.0" type="line"/>
      <point x="292.54819277108436" y="314.78915662650604" type="line"/>
      <point x="258.9759036144578" y="314.78915662650604" type="line"/>
      <point x="436.16265060240966" y="0.0" type="line"/>
      <point x="546.4939759036145" y="0.0" type="line"/>
      <point x="316.1867469879518" y="378.4397590361446" type="line"/>
      <point x="316.1867469879518" y="341.5843373493976" type="line"/>
      <point x="539.0481927710844" y="705.0" type="line"/>
      <point x="428.36144578313247" y="705.0" type="line"/>
      <point x="259.84337349397595" y="407.10240963855426" type="line"/>
      <point x="291.3253012048193" y="407.10240963855426" type="line"/>
      <point x="122.22891566265059" y="705.0" type="line"/>
      <point x="11.897590361445785" y="705.0" type="line"/>
      <point x="234.75903614457835" y="341.5843373493976" type="line"/>
      <point x="234.75903614457835" y="378.4397590361446" type="line"/>
    </contour>
  </outline>
</glyph>
<glyph name="Y" format="2">
  <advance width="505.59036144578306"/>
  <unicode hex="0059"/>
  <anchor x="253.50602409638557" y="0.0" name="bottom"/>
  <anchor x="253.15060240963857" y="705.0" name="top"/>
  <anchor x="19.289156626506024" y="705.0" name="topleft"/>
  <outline>
    <contour>
      <point x="206.0722891566265" y="0.0" type="line"/>
      <point x="300.2289156626506" y="0.0" type="line"/>
      <point x="300.5843373493976" y="364.5120481927711" type="line"/>
      <point x="280.27710843373495" y="303.27710843373495" type="line"/>
      <point x="518.9397590361446" y="705.0" type="line"/>
      <point x="416.03012048192767" y="705.0" type="line"/>
      <point x="244.5963855421687" y="399.34337349397595" type="line"/>
      <point x="265.1265060240964" y="399.34337349397595" type="line"/>
      <point x="94.75903614457832" y="705.0" type="line"/>
      <point x="-13.349397590361445" y="705.0" type="line"/>
      <point x="227.09036144578312" y="303.27710843373495" type="line"/>
      <point x="206.4277108433735" y="364.5120481927711" type="line"/>
    </contour>
  </outline>
</glyph>
<glyph name="Z" format="2">
  <advance width="497.12650602409644"/>
  <unicode hex="005A"/>
  <anchor x="257.8192771084337" y="0.0" name="bottom"/>
  <anchor x="257.46385542168673" y="705.0" name="top"/>
  <outline>
    <contour>
      <point x="43.86746987951807" y="0.0" type="line"/>
      <point x="474.90361445783134" y="0.0" type="line"/>
      <point x="474.90361445783134" y="79.07228915662651" type="line"/>
      <point x="130.40361445783134" y="79.07228915662651" type="line"/>
      <point x="130.40361445783134" y="48.765060240963855" type="line"/>
      <point x="462.1927710843374" y="636.7710843373494" type="line"/>
      <point x="462.1927710843374" y="705.0" type="line"/>
      <point x="43.86746987951807" y="705.0" type="line"/>
      <point x="43.86746987951807" y="625.9277108433735" type="line"/>
      <point x="375.65662650602405" y="625.9277108433735" type="line"/>
      <point x="375.65662650602405" y="656.9457831325301" type="line"/>
      <point x="43.86746987951807" y="68.2289156626506" type="line"/>
    </contour>
  </outline>
</glyph>
<glyph name="bracketleft" format="2">
  <advance width="289.2048192771084"/>
  <unicode hex="005B"/>
  <outline>
    <contour>
      <point x="91.37951807228914" y="-180.0" type="line"/>
      <point x="274.93975903614455" y="-180.0" type="line"/>
      <point x="274.93975903614455" y="-109.32530120481928" type="line"/>
      <point x="183.4036144578313" y="-109.32530120481928" type="line"/>
      <point x="183.4036144578313" y="634.3253012048193" type="line"/>
      <point x="274.93975903614455" y="634.3253012048193" type="line"/>
      <point x="274.93975903614455" y="705.0" type="line"/>
      <point x="91.37951807228914" y="705.0" type="line"/>
    </contour>
  </outline>
</glyph>
<glyph name="backslash" format="2">
  <advance width="257.5421686746988"/>
  <unicode hex="005C"/>
  <outline>
    <contour>
      <point x="198.42168674698794" y="-66.37349397590361" type="line"/>
      <point x="270.03012048192767" y="-48.066265060240966" type="line"/>
      <point x="59.12048192771084" y="755.3734939759036" type="line"/>
      <point x="-12.487951807228916" y="737.066265060241" type="line"/>
    </contour>
  </outline>
</glyph>
<glyph name="bracketright" format="2">
  <advance width="289.2048192771084"/>
  <unicode hex="005D"/>
  <outline>
    <contour>
      <point x="14.265060240963855" y="-180.0" type="line"/>
      <point x="198.1807228915663" y="-180.0" type="line"/>
      <point x="198.1807228915663" y="705.0" type="line"/>
      <point x="14.265060240963855" y="705.0" type="line"/>
      <point x="14.265060240963855" y="634.3253012048193" type="line"/>
      <point x="106.1566265060241" y="634.3253012048193" type="line"/>
      <point x="106.1566265060241" y="-109.32530120481928" type="line"/>
      <point x="14.265060240963855" y="-109.32530120481928" type="line"/>
    </contour>
  </outline>
</glyph>
<glyph name="asciicircum" format="2">
  <advance width="498.0"/>
  <unicode hex="005E"/>
  <outline>
    <contour>
      <point x="12.62650602409639" y="166.66867469879517" type="line"/>
      <point x="90.87951807228916" y="166.66867469879517" type="line"/>
      <point x="271.43975903614455" y="595.8915662650603" type="line"/>
      <point x="227.2710843373494" y="595.8915662650603" type="line"/>
      <point x="407.12048192771084" y="166.66867469879517" type="line"/>
      <point x="485.3734939759036" y="166.66867469879517" type="line"/>
      <point x="284.1927710843373" y="628.0" type="line"/>
      <point x="213.80722891566265" y="628.0" type="line"/>
    </contour>
  </outline>
</glyph>
<glyph name="underscore" format="2">
  <advance width="415.578313253012"/>
  <unicode hex="005F"/>
  <outline>
    <contour>
      <point x="21.289156626506024" y="-57.72289156626506" type="line"/>
      <point x="394.28915662650604" y="-57.72289156626506" type="line"/>
      <point x="394.28915662650604" y="0.0" type="line"/>
      <point x="21.289156626506024" y="0.0" type="line"/>
    </contour>
  </outline>
</glyph>
<glyph name="a" format="2">
  <advance width="450.2590361445783"/>
  <unicode hex="0061"/>
  <anchor x="226.81927710843374" y="0.0" name="bottom"/>
  <anchor x="374.06024096385545" y="0.0" name="ogonek"/>
  <anchor x="229.5301204819277" y="484.0" name="top"/>
  <outline>
    <contour>
      <point x="187.4698795180723" y="-9.421686746987952" type="curve" smooth="yes"/>
      <point x="251.24698795180726" y="-9.421686746987952"/>
      <point x="296.3614457831325" y="32.73493975903614"/>
      <point x="312.5843373493976" y="106.18072289156626" type="curve"/>
      <point x="306.0722891566265" y="106.18072289156626" type="line"/>
      <point x="306.0722891566265" y="0.0" type="line"/>
      <point x="392.4759036144578" y="0.0" type="line"/>
      <point x="392.4759036144578" y="321.2951807228916" type="line" smooth="yes"/>
      <point x="392.4759036144578" y="439.73493975903614"/>
      <point x="341.7469879518072" y="496.9759036144578"/>
      <point x="232.68674698795184" y="496.9759036144578" type="curve" smooth="yes"/>
      <point x="171.86746987951807" y="496.9759036144578"/>
      <point x="105.69277108433735" y="476.62048192771084"/>
      <point x="57.78313253012048" y="442.5542168674699" type="curve"/>
      <point x="87.86746987951807" y="376.5" type="line"/>
      <point x="134.09036144578315" y="409.6566265060241"/>
      <point x="180.93373493975903" y="423.30120481927713"/>
      <point x="225.5120481927711" y="423.30120481927713" type="curve" smooth="yes"/>
      <point x="281.9156626506024" y="423.30120481927713"/>
      <point x="304.3614457831325" y="396.12048192771084"/>
      <point x="304.3614457831325" y="330.2469879518072" type="curve" smooth="yes"/>
      <point x="304.3614457831325" y="186.6024096385542" type="line" smooth="yes"/>
      <point x="304.3614457831325" y="109.28313253012048"/>
      <point x="259.8674698795181" y="58.632530120481924"/>
      <point x="211.15060240963854" y="58.632530120481924" type="curve" smooth="yes"/>
      <point x="164.9457831325301" y="58.632530120481924"/>
      <point x="132.8313253012048" y="93.74698795180723"/>
      <point x="132.8313253012048" y="143.46385542168676" type="curve" smooth="yes"/>
      <point x="132.8313253012048" y="204.4036144578313"/>
      <point x="166.72289156626508" y="224.42771084337352"/>
      <point x="283.49397590361446" y="224.42771084337352" type="curve" smooth="yes"/>
      <point x="315.84939759036143" y="224.42771084337352" type="line"/>
      <point x="315.84939759036143" y="284.01807228915663" type="line"/>
      <point x="273.3192771084337" y="284.01807228915663" type="line" smooth="yes"/>
      <point x="107.9578313253012" y="284.01807228915663"/>
      <point x="42.4277108433735" y="242.6867469879518"/>
      <point x="42.4277108433735" y="142.75301204819277" type="curve" smooth="yes"/>
      <point x="42.4277108433735" y="60.86746987951807"/>
      <point x="106.02409638554218" y="-9.421686746987952"/>
    </contour>
  </outline>
</glyph>
<glyph name="b" format="2">
  <advance width="493.1927710843373"/>
  <unicode hex="0062"/>
  <anchor x="243.55421686746988" y="0.0" name="bottom"/>
  <anchor x="251.01807228915663" y="705.0" name="top"/>
  <outline>
    <contour>
      <point x="281.921686746988" y="-9.421686746987952" type="curve" smooth="yes"/>
      <point x="390.78915662650604" y="-9.421686746987952"/>
      <point x="455.49999999999994" y="84.06626506024097"/>
      <point x="455.49999999999994" y="244.13253012048193" type="curve" smooth="yes"/>
      <point x="455.49999999999994" y="404.19879518072287"/>
      <point x="390.78915662650604" y="496.9759036144578"/>
      <point x="281.566265060241" y="496.9759036144578" type="curve" smooth="yes"/>
      <point x="211.09638554216866" y="496.9759036144578"/>
      <point x="158.67469879518072" y="455.81927710843377"/>
      <point x="140.67469879518072" y="380.4156626506024" type="curve"/>
      <point x="152.16265060240966" y="380.4156626506024" type="line"/>
      <point x="152.16265060240966" y="705.0" type="line"/>
      <point x="60.13855421686747" y="705.0" type="line"/>
      <point x="60.13855421686747" y="0.0" type="line"/>
      <point x="150.7409638554217" y="0.0" type="line"/>
      <point x="150.7409638554217" y="107.84939759036143" type="line"/>
      <point x="140.67469879518072" y="107.84939759036143" type="line"/>
      <point x="158.67469879518072" y="32.09036144578314"/>
      <point x="210.74096385542168" y="-9.421686746987952"/>
    </contour>
    <contour>
      <point x="256.46385542168673" y="63.5421686746988" type="curve" smooth="yes"/>
      <point x="186.43373493975906" y="63.5421686746988"/>
      <point x="150.45180722891567" y="121.25903614457832"/>
      <point x="150.45180722891567" y="244.13253012048193" type="curve" smooth="yes"/>
      <point x="150.45180722891567" y="367.0060240963855"/>
      <point x="186.43373493975906" y="424.0120481927711"/>
      <point x="256.46385542168673" y="424.0120481927711" type="curve" smooth="yes"/>
      <point x="325.7831325301205" y="424.0120481927711"/>
      <point x="362.4759036144578" y="367.0060240963855"/>
      <point x="362.4759036144578" y="244.13253012048193" type="curve" smooth="yes"/>
      <point x="362.4759036144578" y="121.25903614457832"/>
      <point x="325.7831325301205" y="63.5421686746988"/>
    </contour>
  </outline>
</glyph>
<glyph name="c" format="2">
  <advance width="390.59638554216866"/>
  <unicode hex="0063"/>
  <anchor x="233.6867469879518" y="0.0" name="bottom"/>
  <anchor x="231.10843373493975" y="484.0" name="top"/>
  <outline>
    <contour>
      <point x="238.50602409638552" y="-9.421686746987952" type="curve" smooth="yes"/>
      <point x="290.2168674698795" y="-9.421686746987952"/>
      <point x="341.54819277108436" y="10.156626506024097"/>
      <point x="375.5481927710843" y="43.602409638554214" type="curve"/>
      <point x="344.59638554216866" y="109.21084337349397" type="line"/>
      <point x="317.08433734939763" y="80.5421686746988"/>
      <point x="283.08433734939763" y="64.60843373493975"/>
      <point x="245.25903614457832" y="64.60843373493975" type="curve" smooth="yes"/>
      <point x="172.0301204819277" y="64.60843373493975"/>
      <point x="131.7831325301205" y="123.39156626506025"/>
      <point x="131.7831325301205" y="243.13253012048193" type="curve" smooth="yes"/>
      <point x="131.7831325301205" y="366.16265060240966"/>
      <point x="171.3855421686747" y="422.9457831325301"/>
      <point x="245.19277108433735" y="422.9457831325301" type="curve" smooth="yes"/>
      <point x="283.4397590361446" y="422.9457831325301"/>
      <point x="317.01807228915663" y="407.36746987951807"/>
      <point x="345.2409638554217" y="378.4096385542169" type="curve"/>
      <point x="375.5481927710843" y="443.95180722891564" type="line"/>
      <point x="342.1927710843374" y="478.10843373493975"/>
      <point x="290.8614457831326" y="496.9759036144578"/>
      <point x="237.86144578313252" y="496.9759036144578" type="curve" smooth="yes"/>
      <point x="111.644578313253" y="496.9759036144578"/>
      <point x="37.692771084337345" y="404.48795180722897"/>
      <point x="37.692771084337345" y="244.77710843373495" type="curve" smooth="yes"/>
      <point x="37.692771084337345" y="82.42168674698794"/>
      <point x="111.0" y="-9.421686746987952"/>
    </contour>
  </outline>
</glyph>
<glyph name="d" format="2">
  <advance width="493.1927710843373"/>
  <unicode hex="0064"/>
  <anchor x="244.66265060240966" y="0.0" name="bottom"/>
  <anchor x="243.33132530120483" y="245.710843373494" name="center"/>
  <anchor x="345.7530120481928" y="584.3313253012047" name="stroke"/>
  <anchor x="244.66265060240963" y="484.0" name="top"/>
  <anchor x="466.94578313253015" y="705.0" name="topright"/>
  <outline>
    <contour>
      <point x="211.27108433734938" y="-9.421686746987952" type="curve" smooth="yes"/>
      <point x="284.9397590361446" y="-9.421686746987952"/>
      <point x="334.1626506024096" y="32.09036144578314"/>
      <point x="350.7409638554217" y="107.84939759036143" type="curve"/>
      <point x="342.45180722891564" y="107.84939759036143" type="line"/>
      <point x="342.45180722891564" y="0.0" type="line"/>
      <point x="433.05421686746985" y="0.0" type="line"/>
      <point x="433.05421686746985" y="705.0" type="line"/>
      <point x="341.03012048192767" y="705.0" type="line"/>
      <point x="341.03012048192767" y="380.4156626506024" type="line"/>
      <point x="350.7409638554217" y="380.4156626506024" type="line"/>
      <point x="334.16265060240966" y="455.81927710843377"/>
      <point x="285.2951807228916" y="496.9759036144578"/>
      <point x="211.62650602409636" y="496.9759036144578" type="curve" smooth="yes"/>
      <point x="102.40361445783132" y="496.9759036144578"/>
      <point x="37.692771084337345" y="404.19879518072287"/>
      <point x="37.692771084337345" y="244.13253012048193" type="curve" smooth="yes"/>
      <point x="37.692771084337345" y="84.06626506024097"/>
      <point x="102.40361445783131" y="-9.421686746987952"/>
    </contour>
    <contour>
      <point x="236.7289156626506" y="63.5421686746988" type="curve" smooth="yes"/>
      <point x="165.9879518072289" y="63.5421686746988"/>
      <point x="130.7168674698795" y="124.10240963855422"/>
      <point x="130.7168674698795" y="244.13253012048193" type="curve" smooth="yes"/>
      <point x="130.7168674698795" y="364.1626506024096"/>
      <point x="165.9879518072289" y="424.0120481927711"/>
      <point x="236.7289156626506" y="424.0120481927711" type="curve" smooth="yes"/>
      <point x="306.7590361445783" y="424.0120481927711"/>
      <point x="342.7409638554217" y="363.8072289156626"/>
      <point x="342.7409638554217" y="244.13253012048193" type="curve" smooth="yes"/>
      <point x="342.7409638554217" y="124.45783132530121"/>
      <point x="306.7590361445783" y="63.5421686746988"/>
    </contour>
  </outline>
</glyph>
<glyph name="e" format="2">
  <advance width="447.66265060240966"/>
  <unicode hex="0065"/>
  <anchor x="234.55421686746988" y="0.0" name="bottom"/>
  <anchor x="319.90361445783134" y="0.0" name="ogonek"/>
  <anchor x="234.55421686746988" y="484.0" name="top"/>
  <outline>
    <contour>
      <point x="250.95180722891564" y="-9.421686746987952" type="curve" smooth="yes"/>
      <point x="309.7289156626506" y="-9.421686746987952"/>
      <point x="364.8614457831325" y="10.156626506024097"/>
      <point x="407.9036144578313" y="48.44578313253012" type="curve"/>
      <point x="378.01807228915663" y="111.5" type="line"/>
      <point x="342.08433734939763" y="78.1867469879518"/>
      <point x="298.01807228915663" y="63.5421686746988"/>
      <point x="253.7951807228916" y="63.5421686746988" type="curve" smooth="yes"/>
      <point x="169.16867469879517" y="63.5421686746988"/>
      <point x="125.7409638554217" y="112.52409638554215"/>
      <point x="125.7409638554217" y="230.82530120481928" type="curve" smooth="yes"/>
      <point x="125.7409638554217" y="251.46385542168673" type="line" smooth="yes"/>
      <point x="125.7409638554217" y="370.91566265060237"/>
      <point x="166.87951807228916" y="429.98795180722897"/>
      <point x="237.75301204819277" y="429.98795180722897" type="curve" smooth="yes"/>
      <point x="302.7831325301205" y="429.98795180722897"/>
      <point x="334.8975903614458" y="385.1385542168675"/>
      <point x="334.8975903614458" y="267.59638554216866" type="curve"/>
      <point x="348.9638554216868" y="282.79518072289153" type="line"/>
      <point x="111.67469879518072" y="282.79518072289153" type="line"/>
      <point x="111.67469879518072" y="221.7831325301205" type="line"/>
      <point x="413.6144578313253" y="221.7831325301205" type="line"/>
      <point x="413.6144578313253" y="261.86746987951807" type="line" smooth="yes"/>
      <point x="413.6144578313253" y="414.71084337349396"/>
      <point x="352.2168674698795" y="496.9759036144578"/>
      <point x="236.26506024096386" y="496.9759036144578" type="curve" smooth="yes"/>
      <point x="114.37951807228917" y="496.9759036144578"/>
      <point x="37.692771084337345" y="400.55421686746985"/>
      <point x="37.692771084337345" y="242.4879518072289" type="curve" smooth="yes"/>
      <point x="37.692771084337345" y="72.39759036144578"/>
      <point x="119.66867469879519" y="-9.421686746987952"/>
    </contour>
  </outline>
</glyph>
<glyph name="f" format="2">
  <advance width="299.2530120481928"/>
  <unicode hex="0066"/>
  <anchor x="132.03614457831327" y="0.0" name="bottom"/>
  <anchor x="132.03614457831327" y="705.0" name="top"/>
  <outline>
    <contour>
      <point x="85.66867469879517" y="0.0" type="line"/>
      <point x="177.69277108433735" y="0.0" type="line"/>
      <point x="177.69277108433735" y="417.8795180722892" type="line"/>
      <point x="286.51807228915663" y="417.8795180722892" type="line"/>
      <point x="286.51807228915663" y="487.5542168674699" type="line"/>
      <point x="153.47590361445782" y="487.5542168674699" type="line"/>
      <point x="177.69277108433735" y="463.6927710843374" type="line"/>
      <point x="177.69277108433735" y="526.0240963855422" type="line" smooth="yes"/>
      <point x="177.69277108433735" y="602.2530120481928"/>
      <point x="203.56024096385542" y="631.9457831325301"/>
      <point x="268.16265060240966" y="636.8795180722892" type="curve" smooth="yes"/>
      <point x="305.16265060240966" y="639.8795180722892" type="line"/>
      <point x="299.3855421686747" y="709.1325301204819" type="line"/>
      <point x="261.6566265060241" y="706.777108433735" type="line" smooth="yes"/>
      <point x="137.6867469879518" y="698.4216867469879"/>
      <point x="85.66867469879517" y="639.6024096385543"/>
      <point x="85.66867469879517" y="513.2289156626506" type="curve" smooth="yes"/>
      <point x="85.66867469879517" y="463.3373493975904" type="line"/>
      <point x="110.24096385542168" y="487.5542168674699" type="line"/>
      <point x="9.44578313253012" y="487.5542168674699" type="line"/>
      <point x="9.44578313253012" y="417.8795180722892" type="line"/>
      <point x="85.66867469879517" y="417.8795180722892" type="line"/>
    </contour>
  </outline>
</glyph>
<glyph name="g" format="2">
  <advance width="494.9698795180723"/>
  <unicode hex="0067"/>
  <anchor x="244.66265060240963" y="484.0" name="top"/>
  <outline>
    <contour>
      <point x="239.0" y="-189.42168674698794" type="curve" smooth="yes"/>
      <point x="369.6807228915663" y="-189.42168674698794"/>
      <point x="434.83132530120474" y="-118.75903614457832"/>
      <point x="434.83132530120474" y="23.30120481927711" type="curve" smooth="yes"/>
      <point x="434.83132530120474" y="487.5542168674699" type="line"/>
      <point x="344.2289156626506" y="487.5542168674699" type="line"/>
      <point x="344.2289156626506" y="380.0602409638554" type="line"/>
      <point x="352.51807228915663" y="380.0602409638554" type="line"/>
      <point x="336.2951807228916" y="455.81927710843377"/>
      <point x="286.7168674698795" y="496.9759036144578"/>
      <point x="212.33734939759034" y="496.9759036144578" type="curve" smooth="yes"/>
      <point x="102.40361445783132" y="496.9759036144578"/>
      <point x="37.692771084337345" y="408.19879518072287"/>
      <point x="37.692771084337345" y="255.19879518072287" type="curve" smooth="yes"/>
      <point x="37.692771084337345" y="102.19879518072288"/>
      <point x="102.40361445783132" y="12.710843373493976"/>
      <point x="211.98192771084337" y="12.710843373493976" type="curve" smooth="yes"/>
      <point x="286.00602409638554" y="12.710843373493976"/>
      <point x="336.2951807228916" y="53.86746987951807"/>
      <point x="352.51807228915663" y="129.98192771084337" type="curve"/>
      <point x="344.58433734939763" y="129.98192771084337" type="line"/>
      <point x="344.58433734939763" y="15.481927710843372" type="line" smooth="yes"/>
      <point x="344.58433734939763" y="-75.72289156626506"/>
      <point x="310.1385542168675" y="-117.1024096385542"/>
      <point x="235.44578313253015" y="-117.1024096385542" type="curve" smooth="yes"/>
      <point x="185.0" y="-117.1024096385542"/>
      <point x="137.82530120481928" y="-101.39156626506023"/>
      <point x="85.66867469879519" y="-66.07831325301206" type="curve"/>
      <point x="57.006024096385545" y="-131.26506024096386" type="line"/>
      <point x="109.42771084337349" y="-169.42168674698794"/>
      <point x="171.24698795180723" y="-189.42168674698794"/>
    </contour>
    <contour>
      <point x="237.79518072289156" y="85.67469879518072" type="curve" smooth="yes"/>
      <point x="166.69879518072287" y="85.67469879518072"/>
      <point x="130.7168674698795" y="142.87951807228916"/>
      <point x="130.7168674698795" y="255.19879518072287" type="curve" smooth="yes"/>
      <point x="130.7168674698795" y="367.51807228915663"/>
      <point x="166.69879518072287" y="424.0120481927711"/>
      <point x="237.79518072289156" y="424.0120481927711" type="curve" smooth="yes"/>
      <point x="308.53614457831327" y="424.0120481927711"/>
      <point x="344.51807228915663" y="367.16265060240966"/>
      <point x="344.51807228915663" y="255.19879518072287" type="curve" smooth="yes"/>
      <point x="344.51807228915663" y="143.23493975903614"/>
      <point x="308.53614457831327" y="85.67469879518072"/>
    </contour>
  </outline>
</glyph>
<glyph name="i" format="2">
  <advance width="212.3012048192771"/>
  <unicode hex="0069"/>
  <anchor x="105.79518072289157" y="0.0" name="bottom"/>
  <anchor x="134.74698795180723" y="0.0" name="ogonek"/>
  <outline>
    <contour>
      <point x="53.2710843373494" y="604.2951807228916" type="line"/>
      <point x="158.03012048192772" y="604.2951807228916" type="line"/>
      <point x="158.03012048192772" y="702.3915662650602" type="line"/>
      <point x="53.2710843373494" y="702.3915662650602" type="line"/>
    </contour>
    <contour>
      <point x="60.13855421686747" y="0.0" type="line"/>
      <point x="152.16265060240966" y="0.0" type="line"/>
      <point x="152.16265060240966" y="487.5542168674699" type="line"/>
      <point x="60.13855421686747" y="487.5542168674699" type="line"/>
    </contour>
  </outline>
</glyph>
<glyph name="k" format="2">
  <advance width="433.13855421686753"/>
  <unicode hex="006B"/>
  <anchor x="218.3253012048193" y="0.0" name="bottom"/>
  <anchor x="241.59638554216866" y="705.0" name="top"/>
  <outline>
    <contour>
      <point x="60.13855421686747" y="0.0" type="line"/>
      <point x="152.16265060240966" y="0.0" type="line"/>
      <point x="152.16265060240966" y="225.56024096385542" type="line"/>
      <point x="154.16265060240966" y="225.56024096385542" type="line"/>
      <point x="330.44578313253015" y="0.0" type="line"/>
      <point x="444.15662650602417" y="0.0" type="line"/>
      <point x="229.63253012048193" y="276.53012048192767" type="line"/>
      <point x="228.210843373494" y="230.86746987951807" type="line"/>
      <point x="431.9759036144578" y="487.5542168674699" type="line"/>
      <point x="322.3975903614458" y="487.5542168674699" type="line"/>
      <point x="154.16265060240966" y="272.8614457831326" type="line"/>
      <point x="152.16265060240966" y="272.8614457831326" type="line"/>
      <point x="152.16265060240966" y="705.0" type="line"/>
      <point x="60.13855421686747" y="705.0" type="line"/>
    </contour>
  </outline>
</glyph>
<glyph name="l" format="2">
  <advance width="264.0120481927711"/>
  <unicode hex="006C"/>
  <anchor x="159.3975903614458" y="0.0" name="bottom"/>
  <anchor x="112.24096385542168" y="357.0" name="center"/>
  <anchor x="254.78313253012047" y="357.0" name="dot"/>
  <anchor x="105.79518072289156" y="705.0" name="top"/>
  <anchor x="185.76506024096386" y="705.0" name="topright"/>
  <outline>
    <contour>
      <point x="193.66265060240963" y="-9.421686746987952" type="curve" smooth="yes"/>
      <point x="210.83734939759034" y="-9.421686746987952"/>
      <point x="227.59036144578312" y="-7.0"/>
      <point x="249.65662650602408" y="-1.9337349397590362" type="curve"/>
      <point x="250.94578313253012" y="72.51807228915662" type="line"/>
      <point x="244.65662650602408" y="69.51807228915662"/>
      <point x="229.07831325301203" y="67.87349397590361"/>
      <point x="216.14457831325302" y="67.87349397590361" type="curve" smooth="yes"/>
      <point x="163.2289156626506" y="67.87349397590361"/>
      <point x="152.16265060240966" y="105.5"/>
      <point x="152.16265060240966" y="155.94578313253012" type="curve" smooth="yes"/>
      <point x="152.16265060240966" y="705.0" type="line"/>
      <point x="60.13855421686747" y="705.0" type="line"/>
      <point x="60.13855421686747" y="153.23493975903614" type="line" smooth="yes"/>
      <point x="60.13855421686747" y="40.975903614457835"/>
      <point x="102.53614457831324" y="-9.421686746987952"/>
    </contour>
  </outline>
</glyph>
<glyph name="m" format="2">
  <advance width="727.2349397590361"/>
  <unicode hex="006D"/>
  <anchor x="364.79518072289153" y="0.0" name="bottom"/>
  <anchor x="364.79518072289153" y="484.0" name="top"/>
  <outline>
    <contour>
      <point x="62.13855421686747" y="0.0" type="line"/>
      <point x="154.16265060240966" y="0.0" type="line"/>
      <point x="154.16265060240966" y="304.644578313253" type="line" smooth="yes"/>
      <point x="154.16265060240966" y="378.60843373493975"/>
      <point x="196.16867469879517" y="422.23493975903614"/>
      <point x="251.46385542168673" y="422.23493975903614" type="curve" smooth="yes"/>
      <point x="291.3132530120482" y="422.23493975903614"/>
      <point x="318.42771084337346" y="399.56626506024094"/>
      <point x="318.42771084337346" y="319.7349397590362" type="curve" smooth="yes"/>
      <point x="318.42771084337346" y="0.0" type="line"/>
      <point x="410.45180722891564" y="0.0" type="line"/>
      <point x="410.45180722891564" y="304.644578313253" type="line" smooth="yes"/>
      <point x="410.45180722891564" y="378.60843373493975"/>
      <point x="453.16867469879526" y="422.23493975903614"/>
      <point x="507.7530120481927" y="422.23493975903614" type="curve" smooth="yes"/>
      <point x="548.3132530120482" y="422.23493975903614"/>
      <point x="575.4277108433735" y="399.56626506024094"/>
      <point x="575.4277108433735" y="319.7349397590362" type="curve" smooth="yes"/>
      <point x="575.4277108433735" y="0.0" type="line"/>
      <point x="667.4518072289156" y="0.0" type="line"/>
      <point x="667.4518072289156" y="328.066265060241" type="line" smooth="yes"/>
      <point x="667.4518072289156" y="445.86746987951807"/>
      <point x="618.6506024096385" y="496.9759036144578"/>
      <point x="538.9638554216867" y="496.9759036144578" type="curve" smooth="yes"/>
      <point x="468.4790180722891" y="496.9759036144578"/>
      <point x="416.37649999999996" y="455.97246385542167"/>
      <point x="395.6084337349398" y="394.2409638554217" type="curve"/>
      <point x="403.6746987951807" y="394.2409638554217" type="line"/>
      <point x="388.60843373493975" y="465.9096385542169"/>
      <point x="344.7409638554217" y="496.9759036144578"/>
      <point x="282.3192771084337" y="496.9759036144578" type="curve" smooth="yes"/>
      <point x="213.80722891566265" y="496.9759036144578"/>
      <point x="163.80722891566268" y="455.8192771084337"/>
      <point x="143.09638554216866" y="394.59638554216866" type="curve"/>
      <point x="151.3855421686747" y="394.59638554216866" type="line"/>
      <point x="151.3855421686747" y="487.5542168674699" type="line"/>
      <point x="62.13855421686747" y="487.5542168674699" type="line"/>
    </contour>
  </outline>
</glyph>
<glyph name="n" format="2">
  <advance width="480.54819277108436"/>
  <unicode hex="006E"/>
  <anchor x="237.43975903614455" y="0.0" name="bottom"/>
  <anchor x="237.43975903614455" y="484.0" name="top"/>
  <outline>
    <contour>
      <point x="60.13855421686747" y="0.0" type="line"/>
      <point x="152.16265060240966" y="0.0" type="line"/>
      <point x="152.16265060240966" y="304.644578313253" type="line" smooth="yes"/>
      <point x="152.16265060240966" y="378.60843373493975"/>
      <point x="197.1024096385542" y="422.23493975903614"/>
      <point x="255.97590361445782" y="422.23493975903614" type="curve" smooth="yes"/>
      <point x="300.6927710843373" y="422.23493975903614"/>
      <point x="330.7409638554217" y="399.56626506024094"/>
      <point x="330.7409638554217" y="320.0903614457831" type="curve" smooth="yes"/>
      <point x="330.7409638554217" y="0.0" type="line"/>
      <point x="422.7650602409638" y="0.0" type="line"/>
      <point x="422.7650602409638" y="328.066265060241" type="line" smooth="yes"/>
      <point x="422.7650602409638" y="445.86746987951807"/>
      <point x="371.3855421686747" y="496.9759036144578"/>
      <point x="286.8313253012048" y="496.9759036144578" type="curve" smooth="yes"/>
      <point x="214.74096385542168" y="496.9759036144578"/>
      <point x="161.45180722891567" y="455.8192771084337"/>
      <point x="141.09638554216866" y="394.59638554216866" type="curve"/>
      <point x="149.3855421686747" y="394.59638554216866" type="line"/>
      <point x="149.3855421686747" y="487.5542168674699" type="line"/>
      <point x="60.13855421686747" y="487.5542168674699" type="line"/>
    </contour>
  </outline>
</glyph>
<glyph name="o" format="2">
  <advance width="473.4578313253012"/>
  <unicode hex="006F"/>
  <anchor x="236.7289156626506" y="0.0" name="bottom"/>
  <anchor x="236.7289156626506" y="243.77710843373495" name="center"/>
  <anchor x="274.9277108433735" y="0.0" name="ogonek"/>
  <anchor x="236.7289156626506" y="484.0" name="top"/>
  <anchor x="282.90361445783134" y="484.0" name="topright"/>
  <outline>
    <contour>
      <point x="236.7289156626506" y="-9.421686746987952" type="curve" smooth="yes"/>
      <point x="360.94578313253015" y="-9.421686746987952"/>
      <point x="435.7650602409638" y="77.1987951807229"/>
      <point x="435.7650602409638" y="244.13253012048193" type="curve" smooth="yes"/>
      <point x="435.7650602409638" y="410.355421686747"/>
      <point x="360.94578313253015" y="496.9759036144578"/>
      <point x="236.7289156626506" y="496.9759036144578" type="curve" smooth="yes"/>
      <point x="111.8012048192771" y="496.9759036144578"/>
      <point x="37.692771084337345" y="410.355421686747"/>
      <point x="37.692771084337345" y="244.13253012048193" type="curve" smooth="yes"/>
      <point x="37.692771084337345" y="77.1987951807229"/>
      <point x="111.8012048192771" y="-9.421686746987952"/>
    </contour>
    <contour>
      <point x="236.7289156626506" y="63.5421686746988" type="curve" smooth="yes"/>
      <point x="169.92168674698794" y="63.5421686746988"/>
      <point x="130.7168674698795" y="114.8132530120482"/>
      <point x="130.7168674698795" y="244.13253012048193" type="curve" smooth="yes"/>
      <point x="130.7168674698795" y="373.45180722891564"/>
      <point x="169.92168674698794" y="424.0120481927711"/>
      <point x="236.7289156626506" y="424.0120481927711" type="curve" smooth="yes"/>
      <point x="302.82530120481925" y="424.0120481927711"/>
      <point x="342.7409638554217" y="373.45180722891564"/>
      <point x="342.7409638554217" y="244.13253012048193" type="curve" smooth="yes"/>
      <point x="342.7409638554217" y="114.8132530120482"/>
      <point x="302.82530120481925" y="63.5421686746988"/>
    </contour>
  </outline>
</glyph>
<glyph name="q" format="2">
  <advance width="493.1927710843373"/>
  <unicode hex="0071"/>
  <anchor x="245.37349397590364" y="0.0" name="bottom"/>
  <anchor x="245.37349397590364" y="484.0" name="top"/>
  <outline>
    <contour>
      <point x="341.03012048192767" y="-180.0" type="line"/>
      <point x="433.05421686746985" y="-180.0" type="line"/>
      <point x="433.05421686746985" y="487.5542168674699" type="line"/>
      <point x="342.45180722891564" y="487.5542168674699" type="line"/>
      <point x="342.45180722891564" y="380.4156626506024" type="line"/>
      <point x="350.7409638554217" y="380.4156626506024" type="line"/>
      <point x="334.1626506024096" y="455.8192771084337"/>
      <point x="284.9397590361446" y="496.9759036144578"/>
      <point x="211.62650602409636" y="496.9759036144578" type="curve" smooth="yes"/>
      <point x="102.40361445783131" y="496.9759036144578"/>
      <point x="37.692771084337345" y="404.19879518072287"/>
      <point x="37.692771084337345" y="244.13253012048193" type="curve" smooth="yes"/>
      <point x="37.692771084337345" y="84.06626506024097"/>
      <point x="102.40361445783132" y="-9.421686746987952"/>
      <point x="211.27108433734938" y="-9.421686746987952" type="curve" smooth="yes"/>
      <point x="285.2951807228916" y="-9.421686746987952"/>
      <point x="334.16265060240966" y="32.09036144578313"/>
      <point x="350.7409638554217" y="107.84939759036145" type="curve"/>
      <point x="341.03012048192767" y="107.84939759036145" type="line"/>
    </contour>
    <contour>
      <point x="236.7289156626506" y="63.5421686746988" type="curve" smooth="yes"/>
      <point x="165.9879518072289" y="63.5421686746988"/>
      <point x="130.7168674698795" y="124.10240963855422"/>
      <point x="130.7168674698795" y="244.13253012048193" type="curve" smooth="yes"/>
      <point x="130.7168674698795" y="364.1626506024096"/>
      <point x="165.9879518072289" y="424.0120481927711"/>
      <point x="236.7289156626506" y="424.0120481927711" type="curve" smooth="yes"/>
      <point x="306.7590361445783" y="424.0120481927711"/>
      <point x="342.7409638554217" y="363.8072289156626"/>
      <point x="342.7409638554217" y="244.13253012048193" type="curve" smooth="yes"/>
      <point x="342.7409638554217" y="124.45783132530121"/>
      <point x="306.7590361445783" y="63.5421686746988"/>
    </contour>
  </outline>
</glyph>
<glyph name="r" format="2">
  <advance width="320.8734939759036"/>
  <unicode hex="0072"/>
  <anchor x="106.50602409638554" y="0.0" name="bottom"/>
  <anchor x="186.57228915662648" y="484.0" name="top"/>
  <outline>
    <contour>
      <point x="60.13855421686747" y="0.0" type="line"/>
      <point x="153.58433734939757" y="0.0" type="line"/>
      <point x="153.58433734939757" y="279.74096385542174" type="line" smooth="yes"/>
      <point x="153.58433734939757" y="364.9879518072289"/>
      <point x="191.40963855421685" y="409.4156626506024"/>
      <point x="256.54819277108436" y="416.3493975903615" type="curve" smooth="yes"/>
      <point x="311.07228915662654" y="421.4819277108434" type="line"/>
      <point x="305.2951807228916" y="500.26506024096386" type="line"/>
      <point x="276.2771084337349" y="497.5542168674699" type="line" smooth="yes"/>
      <point x="198.18674698795178" y="489.26506024096386"/>
      <point x="158.18674698795178" y="451.7771084337349"/>
      <point x="142.09638554216866" y="378.28915662650604" type="curve"/>
      <point x="150.09638554216866" y="378.28915662650604" type="line"/>
      <point x="150.09638554216866" y="487.5542168674699" type="line"/>
      <point x="60.13855421686747" y="487.5542168674699" type="line"/>
    </contour>
  </outline>
</glyph>
<glyph name="s" format="2">
  <advance width="404.10843373493975"/>
  <unicode hex="0073"/>
  <anchor x="202.26506024096386" y="0.0" name="bottom"/>
  <anchor x="209.55421686746988" y="484.0" name="top"/>
  <outline>
    <contour>
      <point x="204.42168674698794" y="-9.421686746987952" type="curve" smooth="yes"/>
      <point x="304.15060240963857" y="-9.421686746987952"/>
      <point x="369.0361445783132" y="47.8433734939759"/>
      <point x="369.0361445783132" y="135.43975903614455" type="curve" smooth="yes"/>
      <point x="369.0361445783132" y="204.19277108433735"/>
      <point x="330.4156626506024" y="253.1024096385542"/>
      <point x="254.7048192771084" y="269.25903614457826" type="curve" smooth="yes"/>
      <point x="192.1265060240964" y="283.1265060240964" type="line" smooth="yes"/>
      <point x="151.65662650602408" y="290.8614457831325"/>
      <point x="133.855421686747" y="316.8192771084337"/>
      <point x="133.855421686747" y="351.5120481927711" type="curve" smooth="yes"/>
      <point x="133.855421686747" y="400.51807228915663"/>
      <point x="167.68072289156626" y="428.63253012048193"/>
      <point x="218.17469879518072" y="428.63253012048193" type="curve" smooth="yes"/>
      <point x="256.81927710843377" y="428.63253012048193"/>
      <point x="299.5722891566265" y="411.855421686747"/>
      <point x="333.0843373493976" y="380.54216867469876" type="curve"/>
      <point x="360.9036144578313" y="441.8192771084337" type="line"/>
      <point x="324.41566265060237" y="477.33132530120486"/>
      <point x="272.8614457831325" y="496.9759036144578"/>
      <point x="217.17469879518075" y="496.9759036144578" type="curve" smooth="yes"/>
      <point x="117.24698795180723" y="496.9759036144578"/>
      <point x="49.71686746987952" y="437.71084337349396"/>
      <point x="49.71686746987952" y="346.31325301204816" type="curve" smooth="yes"/>
      <point x="49.71686746987952" y="278.98192771084337"/>
      <point x="88.98192771084338" y="230.4277108433735"/>
      <point x="160.53614457831324" y="215.20481927710844" type="curve" smooth="yes"/>
      <point x="223.1144578313253" y="201.33734939759034" type="line" smooth="yes"/>
      <point x="263.2289156626506" y="192.89156626506022"/>
      <point x="284.8975903614458" y="170.0"/>
      <point x="284.8975903614458" y="131.01807228915663" type="curve" smooth="yes"/>
      <point x="284.8975903614458" y="85.8132530120482"/>
      <point x="252.65060240963857" y="59.27710843373494"/>
      <point x="200.37951807228916" y="59.27710843373494" type="curve" smooth="yes"/>
      <point x="153.64457831325302" y="59.27710843373494"/>
      <point x="108.3132530120482" y="73.69879518072288"/>
      <point x="64.02409638554217" y="106.07831325301204" type="curve"/>
      <point x="37.56024096385542" y="44.86746987951807" type="line"/>
      <point x="77.62650602409639" y="11.289156626506024"/>
      <point x="137.37951807228916" y="-9.421686746987952"/>
    </contour>
  </outline>
</glyph>
<glyph name="t" format="2">
  <advance width="314.16265060240966"/>
  <unicode hex="0074"/>
  <anchor x="188.70481927710844" y="0.0" name="bottom"/>
  <anchor x="148.1265060240964" y="265.53614457831327" name="center"/>
  <anchor x="129.32530120481925" y="635.0" name="top"/>
  <anchor x="222.63253012048196" y="705.0" name="topright"/>
  <outline>
    <contour>
      <point x="233.19277108433738" y="-9.421686746987952" type="curve" smooth="yes"/>
      <point x="261.5903614457831" y="-9.421686746987952"/>
      <point x="294.789156626506" y="-1.4216867469879517"/>
      <point x="312.96385542168673" y="9.132530120481928" type="curve"/>
      <point x="297.9216867469879" y="78.16265060240964" type="line"/>
      <point x="284.21084337349396" y="73.16265060240964"/>
      <point x="264.789156626506" y="67.87349397590361"/>
      <point x="247.92168674698794" y="67.87349397590361" type="curve" smooth="yes"/>
      <point x="197.78313253012047" y="67.87349397590361"/>
      <point x="174.98192771084337" y="92.40963855421687"/>
      <point x="174.98192771084337" y="160.86144578313252" type="curve" smooth="yes"/>
      <point x="174.98192771084337" y="417.8795180722892" type="line"/>
      <point x="296.2289156626506" y="417.8795180722892" type="line"/>
      <point x="296.2289156626506" y="487.5542168674699" type="line"/>
      <point x="174.98192771084337" y="487.5542168674699" type="line"/>
      <point x="174.98192771084337" y="635.0" type="line"/>
      <point x="82.9578313253012" y="635.0" type="line"/>
      <point x="82.9578313253012" y="487.5542168674699" type="line"/>
      <point x="6.734939759036145" y="487.5542168674699" type="line"/>
      <point x="6.734939759036145" y="417.8795180722892" type="line"/>
      <point x="82.9578313253012" y="417.8795180722892" type="line"/>
      <point x="82.9578313253012" y="153.99397590361446" type="line" smooth="yes"/>
      <point x="82.9578313253012" y="41.68674698795181"/>
      <point x="132.42168674698794" y="-9.421686746987952"/>
    </contour>
  </outline>
</glyph>
<glyph name="u" format="2">
  <advance width="475.61445783132524"/>
  <unicode hex="0075"/>
  <anchor x="237.59638554216866" y="0.0" name="bottom"/>
  <anchor x="397.06024096385545" y="0.0" name="ogonek"/>
  <anchor x="237.59638554216866" y="485.0" name="top"/>
  <anchor x="346.0" y="484.0" name="topright"/>
  <outline>
    <contour>
      <point x="190.7168674698795" y="-9.421686746987952" type="curve" smooth="yes"/>
      <point x="261.82746987951805" y="-9.421686746987952"/>
      <point x="313.47501204819275" y="32.16384337349397"/>
      <point x="334.16265060240966" y="93.3132530120482" type="curve"/>
      <point x="326.22891566265065" y="93.3132530120482" type="line"/>
      <point x="326.22891566265065" y="0.0" type="line"/>
      <point x="415.4759036144578" y="0.0" type="line"/>
      <point x="415.4759036144578" y="487.5542168674699" type="line"/>
      <point x="323.45180722891564" y="487.5542168674699" type="line"/>
      <point x="323.45180722891564" y="182.19879518072287" type="line" smooth="yes"/>
      <point x="323.45180722891564" y="108.23493975903614"/>
      <point x="279.37449397590365" y="65.31927710843372"/>
      <point x="222.2831325301205" y="65.31927710843372" type="curve" smooth="yes"/>
      <point x="178.37108433734937" y="65.31927710843372"/>
      <point x="149.80722891566265" y="87.27710843373492"/>
      <point x="149.80722891566265" y="167.10843373493978" type="curve" smooth="yes"/>
      <point x="149.80722891566265" y="487.5542168674699" type="line"/>
      <point x="57.78313253012048" y="487.5542168674699" type="line"/>
      <point x="57.78313253012048" y="159.8433734939759" type="line" smooth="yes"/>
      <point x="57.78313253012048" y="42.04216867469879"/>
      <point x="108.37239759036144" y="-9.421686746987952"/>
    </contour>
  </outline>
</glyph>
<glyph name="v" format="2">
  <advance width="433.8614457831326"/>
  <unicode hex="0076"/>
  <anchor x="217.81927710843374" y="0.0" name="bottom"/>
  <anchor x="217.81927710843374" y="484.0" name="top"/>
  <outline>
    <contour>
      <point x="176.13855421686748" y="0.0" type="line"/>
      <point x="257.72289156626505" y="0.0" type="line"/>
      <point x="429.63253012048193" y="487.5542168674699" type="line"/>
      <point x="338.09638554216866" y="487.5542168674699" type="line"/>
      <point x="203.81927710843374" y="68.33132530120481" type="line"/>
      <point x="234.17469879518072" y="68.33132530120481" type="line"/>
      <point x="102.74096385542168" y="487.5542168674699" type="line"/>
      <point x="4.584337349397591" y="487.5542168674699" type="line"/>
    </contour>
  </outline>
</glyph>
<glyph name="w" format="2">
  <advance width="698.5060240963855"/>
  <unicode hex="0077"/>
  <anchor x="350.10843373493975" y="0.0" name="bottom"/>
  <anchor x="350.10843373493975" y="484.0" name="top"/>
  <outline>
    <contour>
      <point x="169.18072289156626" y="0.0" type="line"/>
      <point x="250.27710843373492" y="0.0" type="line"/>
      <point x="367.7710843373494" y="413.59638554216866" type="line"/>
      <point x="332.44578313253015" y="413.59638554216866" type="line"/>
      <point x="449.93975903614455" y="0.0" type="line"/>
      <point x="531.0361445783132" y="0.0" type="line"/>
      <point x="684.8975903614459" y="487.5542168674699" type="line"/>
      <point x="594.7831325301205" y="487.5542168674699" type="line"/>
      <point x="479.19879518072287" y="72.81927710843372" type="line"/>
      <point x="500.3554216867469" y="72.81927710843372" type="line"/>
      <point x="384.9698795180723" y="487.5542168674699" type="line"/>
      <point x="318.80120481927713" y="487.5542168674699" type="line"/>
      <point x="203.06024096385542" y="72.81927710843372" type="line"/>
      <point x="223.86144578313255" y="72.81927710843372" type="line"/>
      <point x="109.27710843373494" y="487.5542168674699" type="line"/>
      <point x="14.60843373493976" y="487.5542168674699" type="line"/>
    </contour>
  </outline>
</glyph>
<glyph name="x" format="2">
  <advance width="448.5240963855421"/>
  <unicode hex="0078"/>
  <anchor x="224.7951807228916" y="0.0" name="bottom"/>
  <anchor x="224.7951807228916" y="484.0" name="top"/>
  <outline>
    <contour>
      <point x="6.319277108433736" y="0.0" type="line"/>
      <point x="112.03012048192771" y="0.0" type="line"/>
      <point x="239.6144578313253" y="207.31927710843374" type="line"/>
      <point x="208.90963855421685" y="207.31927710843374" type="line"/>
      <point x="334.42771084337346" y="0.0" type="line"/>
      <point x="443.5602409638554" y="0.0" type="line"/>
      <point x="261.76506024096386" y="271.8614457831326" type="line"/>
      <point x="261.76506024096386" y="230.33734939759037" type="line"/>
      <point x="434.1385542168675" y="487.5542168674699" type="line"/>
      <point x="328.42771084337346" y="487.5542168674699" type="line"/>
      <point x="209.1987951807229" y="292.23493975903614" type="line"/>
      <point x="242.9698795180723" y="292.23493975903614" type="line"/>
      <point x="125.22891566265058" y="487.5542168674699" type="line"/>
      <point x="16.096385542168676" y="487.5542168674699" type="line"/>
      <point x="188.04819277108433" y="228.75903614457832" type="line"/>
      <point x="188.04819277108433" y="274.4397590361446" type="line"/>
    </contour>
  </outline>
</glyph>
<glyph name="y" format="2">
  <advance width="434.1506024096385"/>
  <unicode hex="0079"/>
  <anchor x="332.87951807228916" y="0.0" name="bottom"/>
  <anchor x="218.10843373493978" y="484.0" name="top"/>
  <outline>
    <contour>
      <point x="99.3433734939759" y="-180.0" type="line"/>
      <point x="195.01204819277106" y="-180.0" type="line"/>
      <point x="429.632530120482" y="487.5542168674699" type="line"/>
      <point x="337.7409638554217" y="487.5542168674699" type="line"/>
      <point x="207.3975903614458" y="77.355421686747" type="line"/>
      <point x="231.30722891566262" y="77.355421686747" type="line"/>
      <point x="102.3855421686747" y="487.5542168674699" type="line"/>
      <point x="4.2289156626506035" y="487.5542168674699" type="line"/>
      <point x="183.0722891566265" y="-21.44578313253012" type="line"/>
      <point x="183.0722891566265" y="34.39156626506024" type="line"/>
    </contour>
  </outline>
</glyph>
<glyph name="z" format="2">
  <advance width="392.3734939759036"/>
  <unicode hex="007A"/>
  <anchor x="201.26506024096386" y="0.0" name="bottom"/>
  <anchor x="201.26506024096386" y="484.0" name="top"/>
  <outline>
    <contour>
      <point x="46.18072289156626" y="0.0" type="line"/>
      <point x="365.7048192771084" y="0.0" type="line"/>
      <point x="365.7048192771084" y="69.67469879518072" type="line"/>
      <point x="126.96385542168673" y="69.67469879518072" type="line"/>
      <point x="126.96385542168673" y="45.234939759036145" type="line"/>
      <point x="356.0602409638554" y="426.78915662650604" type="line"/>
      <point x="356.0602409638554" y="487.5542168674699" type="line"/>
      <point x="46.18072289156626" y="487.5542168674699" type="line"/>
      <point x="46.18072289156626" y="417.8795180722892" type="line"/>
      <point x="273.5" y="417.8795180722892" type="line"/>
      <point x="273.5" y="443.0301204819277" type="line"/>
      <point x="46.18072289156626" y="60.765060240963855" type="line"/>
    </contour>
  </outline>
</glyph>
<glyph name="braceleft" format="2">
  <advance width="319.2048192771084"/>
  <unicode hex="007B"/>
  <outline>
    <contour>
      <point x="216.90361445783134" y="-180.0" type="curve" smooth="yes"/>
      <point x="304.93975903614455" y="-180.0" type="line"/>
      <point x="304.93975903614455" y="-109.32530120481928" type="line"/>
      <point x="253.11445783132532" y="-109.32530120481928" type="line" smooth="yes"/>
      <point x="228.11445783132532" y="-109.32530120481928"/>
      <point x="213.4036144578313" y="-93.03614457831326"/>
      <point x="213.4036144578313" y="-63.102409638554214" type="curve" smooth="yes"/>
      <point x="213.4036144578313" y="156.04819277108436" type="line" smooth="yes"/>
      <point x="213.4036144578313" y="216.46987951807228"/>
      <point x="182.2048192771084" y="264.28915662650604"/>
      <point x="133.45180722891567" y="264.28915662650604" type="curve"/>
      <point x="133.45180722891567" y="260.28915662650604" type="line"/>
      <point x="182.2048192771084" y="260.28915662650604"/>
      <point x="213.4036144578313" y="308.8192771084337"/>
      <point x="213.4036144578313" y="369.2409638554217" type="curve" smooth="yes"/>
      <point x="213.4036144578313" y="588.1024096385541" type="line" smooth="yes"/>
      <point x="213.4036144578313" y="618.0361445783133"/>
      <point x="228.11445783132532" y="634.3253012048193"/>
      <point x="253.11445783132532" y="634.3253012048193" type="curve" smooth="yes"/>
      <point x="304.93975903614455" y="634.3253012048193" type="line"/>
      <point x="304.93975903614455" y="705.0" type="line"/>
      <point x="216.90361445783134" y="705.0" type="line" smooth="yes"/>
      <point x="156.97590361445782" y="705.0"/>
      <point x="121.37951807228914" y="665.7590361445783"/>
      <point x="121.37951807228914" y="597.8975903614457" type="curve" smooth="yes"/>
      <point x="121.37951807228914" y="379.4156626506024" type="line" smooth="yes"/>
      <point x="121.37951807228914" y="324.1265060240964"/>
      <point x="107.86746987951808" y="302.5481927710843"/>
      <point x="68.1987951807229" y="299.1927710843373" type="curve" smooth="yes"/>
      <point x="41.18072289156626" y="296.77108433734935" type="line"/>
      <point x="41.18072289156626" y="228.5180722891566" type="line"/>
      <point x="68.1987951807229" y="226.09638554216866" type="line" smooth="yes"/>
      <point x="107.86746987951808" y="222.7409638554217"/>
      <point x="121.37951807228914" y="200.80722891566265"/>
      <point x="121.37951807228914" y="146.2289156626506" type="curve" smooth="yes"/>
      <point x="121.37951807228914" y="-72.89759036144578" type="line" smooth="yes"/>
      <point x="121.37951807228914" y="-140.75903614457832"/>
      <point x="156.97590361445782" y="-180.0"/>
    </contour>
  </outline>
</glyph>
<glyph name="braceright" format="2">
  <advance width="319.2048192771084"/>
  <unicode hex="007D"/>
  <outline>
    <contour>
      <point x="14.265060240963855" y="-180.0" type="line"/>
      <point x="102.6566265060241" y="-180.0" type="line" smooth="yes"/>
      <point x="162.5843373493976" y="-180.0"/>
      <point x="198.1807228915663" y="-140.75903614457832"/>
      <point x="198.1807228915663" y="-72.89759036144578" type="curve" smooth="yes"/>
      <point x="198.1807228915663" y="146.2289156626506" type="line" smooth="yes"/>
      <point x="198.1807228915663" y="200.80722891566265"/>
      <point x="211.33734939759037" y="222.74096385542168"/>
      <point x="251.00602409638554" y="226.09638554216866" type="curve" smooth="yes"/>
      <point x="278.37951807228916" y="228.5180722891566" type="line"/>
      <point x="278.37951807228916" y="296.77108433734935" type="line"/>
      <point x="251.00602409638554" y="299.1927710843373" type="line" smooth="yes"/>
      <point x="211.33734939759037" y="302.1927710843373"/>
      <point x="198.1807228915663" y="324.1265060240964"/>
      <point x="198.1807228915663" y="379.4156626506024" type="curve" smooth="yes"/>
      <point x="198.1807228915663" y="597.8975903614457" type="line" smooth="yes"/>
      <point x="198.1807228915663" y="665.7590361445783"/>
      <point x="162.5843373493976" y="705.0"/>
      <point x="102.6566265060241" y="705.0" type="curve" smooth="yes"/>
      <point x="14.265060240963855" y="705.0" type="line"/>
      <point x="14.265060240963855" y="634.3253012048193" type="line"/>
      <point x="66.80120481927712" y="634.3253012048193" type="line" smooth="yes"/>
      <point x="91.44578313253012" y="634.3253012048193"/>
      <point x="106.1566265060241" y="618.0361445783133"/>
      <point x="106.1566265060241" y="588.1024096385541" type="curve" smooth="yes"/>
      <point x="106.1566265060241" y="369.2409638554217" type="line" smooth="yes"/>
      <point x="106.1566265060241" y="308.8192771084337"/>
      <point x="137.71084337349396" y="260.28915662650604"/>
      <point x="185.75301204819277" y="260.28915662650604" type="curve"/>
      <point x="185.75301204819277" y="264.28915662650604" type="line"/>
      <point x="137.71084337349396" y="264.28915662650604"/>
      <point x="106.1566265060241" y="216.82530120481925"/>
      <point x="106.1566265060241" y="156.04819277108436" type="curve" smooth="yes"/>
      <point x="106.1566265060241" y="-63.102409638554214" type="line" smooth="yes"/>
      <point x="106.1566265060241" y="-93.03614457831326"/>
      <point x="91.44578313253012" y="-109.32530120481928"/>
      <point x="66.80120481927712" y="-109.32530120481928" type="curve" smooth="yes"/>
      <point x="14.265060240963855" y="-109.32530120481928" type="line"/>
    </contour>
  </outline>
</glyph>
<glyph name="asciitilde" format="2">
  <advance width="498.0"/>
  <unicode hex="007E"/>
  <outline>
    <contour>
      <point x="344.44578313253015" y="215.04819277108436" type="curve" smooth="yes"/>
      <point x="400.644578313253" y="215.04819277108436"/>
      <point x="445.48795180722897" y="253.37951807228916"/>
      <point x="466.0" y="315.93373493975906" type="curve"/>
      <point x="417.16265060240966" y="341.7289156626506" type="line"/>
      <point x="404.5843373493976" y="303.2168674698795"/>
      <point x="376.6927710843373" y="280.1927710843373"/>
      <point x="345.0240963855422" y="280.1927710843373" type="curve" smooth="yes"/>
      <point x="312.4216867469879" y="280.1927710843373"/>
      <point x="280.9759036144578" y="304.2168674698795"/>
      <point x="257.77710843373495" y="320.57228915662654" type="curve" smooth="yes"/>
      <point x="219.77710843373495" y="347.7289156626506"/>
      <point x="188.77710843373492" y="359.3072289156627"/>
      <point x="155.55421686746988" y="359.3072289156627" type="curve" smooth="yes"/>
      <point x="97.35542168674698" y="359.3072289156627"/>
      <point x="52.86746987951807" y="321.62048192771084"/>
      <point x="32.0" y="258.06626506024094" type="curve"/>
      <point x="83.6144578313253" y="232.6265060240964" type="line"/>
      <point x="95.06024096385542" y="271.4277108433735"/>
      <point x="121.30722891566265" y="293.8072289156627"/>
      <point x="154.62048192771087" y="293.8072289156627" type="curve" smooth="yes"/>
      <point x="185.93373493975903" y="293.8072289156627"/>
      <point x="214.15662650602408" y="272.3614457831326"/>
      <point x="238.355421686747" y="256.3614457831325" type="curve" smooth="yes"/>
      <point x="280.86746987951807" y="226.9819277108434"/>
      <point x="311.22289156626505" y="215.04819277108436"/>
    </contour>
  </outline>
</glyph>
<glyph name="exclamdown" format="2">
  <advance width="207.39156626506025"/>
  <unicode hex="00A1"/>
  <outline>
    <contour>
      <point x="46.674698795180724" y="-180.0" type="line"/>
      <point x="161.0722891566265" y="-180.0" type="line"/>
      <point x="132.0120481927711" y="297.27710843373495" type="line"/>
      <point x="75.73493975903614" y="297.27710843373495" type="line"/>
    </contour>
    <contour>
      <point x="50.626506024096386" y="377.99397590361446" type="line"/>
      <point x="157.12048192771084" y="377.99397590361446" type="line"/>
      <point x="157.12048192771084" y="487.5542168674699" type="line"/>
      <point x="50.626506024096386" y="487.5542168674699" type="line"/>
    </contour>
  </outline>
</glyph>
<glyph name="cent" format="2">
  <advance width="498.0"/>
  <unicode hex="00A2"/>
  <outline>
    <contour>
      <point x="228.36144578313252" y="-115.0" type="line"/>
      <point x="302.7469879518072" y="-115.0" type="line"/>
      <point x="302.7469879518072" y="14.463855421686747" type="line"/>
      <point x="277.66265060240966" y="-6.0" type="line"/>
      <point x="335.92771084337346" y="-5.355421686746988"/>
      <point x="389.90361445783134" y="14.933734939759036"/>
      <point x="422.5481927710843" y="47.024096385542165" type="curve"/>
      <point x="391.9518072289157" y="112.27710843373494" type="line"/>
      <point x="363.0843373493976" y="83.67469879518072"/>
      <point x="324.0843373493976" y="68.03012048192771"/>
      <point x="284.48192771084337" y="68.03012048192771" type="curve" smooth="yes"/>
      <point x="207.25301204819277" y="68.03012048192771"/>
      <point x="168.07228915662648" y="126.01204819277109"/>
      <point x="168.07228915662648" y="244.13253012048193" type="curve" smooth="yes"/>
      <point x="168.07228915662648" y="360.8975903614458"/>
      <point x="205.89759036144576" y="419.8795180722892"/>
      <point x="284.1265060240964" y="419.8795180722892" type="curve" smooth="yes"/>
      <point x="325.0843373493976" y="419.8795180722892"/>
      <point x="363.6626506024096" y="403.94578313253015"/>
      <point x="392.5963855421687" y="374.9879518072289" type="curve"/>
      <point x="422.5481927710843" y="440.5301204819277" type="line"/>
      <point x="390.5481927710843" y="473.3313253012048"/>
      <point x="336.2168674698795" y="493.26506024096386"/>
      <point x="277.3734939759036" y="493.5542168674699" type="curve"/>
      <point x="302.7469879518072" y="466.933734939759" type="line"/>
      <point x="302.7469879518072" y="607.1987951807229" type="line"/>
      <point x="228.36144578313252" y="607.1987951807229" type="line"/>
      <point x="228.36144578313252" y="462.9578313253012" type="line"/>
      <point x="240.36144578313252" y="489.289156626506" type="line"/>
      <point x="134.9156626506024" y="476.6927710843374"/>
      <point x="73.98192771084338" y="388.7590361445783"/>
      <point x="73.98192771084338" y="244.77710843373492" type="curve" smooth="yes"/>
      <point x="73.98192771084338" y="97.79518072289156"/>
      <point x="134.98192771084337" y="10.506024096385541"/>
      <point x="242.0722891566265" y="-2.4457831325301207" type="curve"/>
      <point x="228.36144578313252" y="18.018072289156628" type="line"/>
    </contour>
  </outline>
</glyph>
<glyph name="sterling" format="2">
  <advance width="498.0"/>
  <unicode hex="00A3"/>
  <outline>
    <contour>
      <point x="37.09036144578313" y="0.0" type="line"/>
      <point x="453.37349397590356" y="0.0" type="line"/>
      <point x="453.37349397590356" y="78.36144578313252" type="line"/>
      <point x="205.3192771084337" y="78.36144578313252" type="line"/>
      <point x="205.3192771084337" y="317.8734939759036" type="line"/>
      <point x="342.6144578313253" y="317.8734939759036" type="line"/>
      <point x="342.6144578313253" y="388.9036144578313" type="line"/>
      <point x="205.3192771084337" y="388.9036144578313" type="line"/>
      <point x="205.3192771084337" y="524.1385542168674" type="line" smooth="yes"/>
      <point x="205.3192771084337" y="597.1927710843373"/>
      <point x="231.10240963855424" y="636.8373493975904"/>
      <point x="301.5722891566265" y="636.8373493975904" type="curve" smooth="yes"/>
      <point x="353.62048192771084" y="636.8373493975904"/>
      <point x="394.644578313253" y="617.6144578313254"/>
      <point x="432.933734939759" y="577.367469879518" type="curve"/>
      <point x="464.0180722891567" y="647.0421686746988" type="line"/>
      <point x="423.2409638554217" y="689.843373493976"/>
      <point x="361.95180722891564" y="714.4216867469879"/>
      <point x="296.26506024096386" y="714.4216867469879" type="curve" smooth="yes"/>
      <point x="174.75903614457832" y="714.4216867469879"/>
      <point x="111.16265060240964" y="651.8915662650602"/>
      <point x="111.16265060240964" y="520.7168674698795" type="curve" smooth="yes"/>
      <point x="111.16265060240964" y="388.9036144578313" type="line"/>
      <point x="37.09036144578313" y="388.9036144578313" type="line"/>
      <point x="37.09036144578313" y="317.8734939759036" type="line"/>
      <point x="111.16265060240964" y="317.8734939759036" type="line"/>
      <point x="111.16265060240964" y="78.36144578313252" type="line"/>
      <point x="37.09036144578313" y="78.36144578313252" type="line"/>
    </contour>
  </outline>
</glyph>
<glyph name="currency" format="2">
  <advance width="498.0"/>
  <unicode hex="00A4"/>
  <outline>
    <contour>
      <point x="56.265060240963855" y="1.8253012048192776" type="line"/>
      <point x="121.55421686746988" y="69.82530120481928" type="line"/>
      <point x="156.1987951807229" y="43.9578313253012"/>
      <point x="200.77710843373492" y="29.37951807228916"/>
      <point x="249.35542168674698" y="29.37951807228916" type="curve" smooth="yes"/>
      <point x="297.578313253012" y="29.37951807228916"/>
      <point x="342.5120481927711" y="44.95783132530121"/>
      <point x="377.1566265060241" y="70.46987951807228" type="curve"/>
      <point x="442.44578313253015" y="1.8253012048192776" type="line"/>
      <point x="482.2409638554217" y="37.265060240963855" type="line"/>
      <point x="416.3072289156626" y="106.8433734939759" type="line"/>
      <point x="446.53012048192767" y="144.1987951807229"/>
      <point x="464.10843373493975" y="192.4879518072289"/>
      <point x="464.10843373493975" y="245.06626506024097" type="curve" smooth="yes"/>
      <point x="464.10843373493975" y="298.0"/>
      <point x="446.53012048192767" y="345.0"/>
      <point x="416.95180722891564" y="381.35542168674704" type="curve"/>
      <point x="481.88554216867465" y="450.644578313253" type="line"/>
      <point x="442.44578313253015" y="485.72891566265065" type="line"/>
      <point x="378.1566265060241" y="417.7289156626506" type="line"/>
      <point x="343.1566265060241" y="443.59638554216866"/>
      <point x="298.578313253012" y="458.17469879518075"/>
      <point x="249.35542168674698" y="458.17469879518075" type="curve" smooth="yes"/>
      <point x="200.13253012048193" y="458.17469879518075"/>
      <point x="156.19879518072287" y="442.95180722891564"/>
      <point x="120.55421686746988" y="417.08433734939763" type="curve"/>
      <point x="55.90963855421687" y="485.37349397590356" type="line"/>
      <point x="16.114457831325304" y="451.0" type="line"/>
      <point x="82.40361445783132" y="381.71084337349396" type="line"/>
      <point x="52.18072289156626" y="344.0"/>
      <point x="34.60240963855422" y="297.06626506024094"/>
      <point x="34.60240963855422" y="243.77710843373495" type="curve" smooth="yes"/>
      <point x="34.60240963855422" y="190.84337349397592"/>
      <point x="52.53614457831325" y="143.55421686746988"/>
      <point x="82.40361445783132" y="106.90963855421687" type="curve"/>
      <point x="16.114457831325304" y="37.265060240963855" type="line"/>
    </contour>
    <contour>
      <point x="249.355421686747" y="97.85542168674698" type="curve" smooth="yes"/>
      <point x="167.70481927710844" y="97.21084337349397"/>
      <point x="105.36746987951805" y="161.7710843373494"/>
      <point x="105.36746987951805" y="243.13253012048193" type="curve" smooth="yes"/>
      <point x="105.36746987951805" y="325.2048192771084"/>
      <point x="167.34939759036146" y="391.05421686746985"/>
      <point x="249.355421686747" y="390.4096385542169" type="curve" smooth="yes"/>
      <point x="331.3614457831325" y="389.4096385542169"/>
      <point x="393.3433734939759" y="326.1385542168675"/>
      <point x="393.3433734939759" y="244.42168674698794" type="curve" smooth="yes"/>
      <point x="393.3433734939759" y="163.41566265060243"/>
      <point x="331.3614457831325" y="98.49999999999999"/>
    </contour>
  </outline>
</glyph>
<glyph name="yen" format="2">
  <advance width="498.0"/>
  <unicode hex="00A5"/>
  <outline>
    <contour>
      <point x="201.92168674698794" y="0.0" type="line"/>
      <point x="296.078313253012" y="0.0" type="line"/>
      <point x="296.078313253012" y="174.2289156626506" type="line"/>
      <point x="435.9759036144578" y="174.2289156626506" type="line"/>
      <point x="435.9759036144578" y="241.7710843373494" type="line"/>
      <point x="296.078313253012" y="241.7710843373494" type="line"/>
      <point x="296.078313253012" y="321.45180722891564" type="line"/>
      <point x="435.9759036144578" y="321.45180722891564" type="line"/>
      <point x="435.9759036144578" y="389.6385542168675" type="line"/>
      <point x="316.433734939759" y="389.6385542168675" type="line"/>
      <point x="316.433734939759" y="375.5301204819277" type="line"/>
      <point x="502.5060240963855" y="705.0" type="line"/>
      <point x="401.8614457831325" y="705.0" type="line"/>
      <point x="238.37951807228916" y="397.09638554216866" type="line"/>
      <point x="259.9096385542169" y="397.09638554216866" type="line"/>
      <point x="96.84939759036143" y="705.0" type="line"/>
      <point x="-4.506024096385541" y="705.0" type="line"/>
      <point x="182.27710843373492" y="375.5301204819277" type="line"/>
      <point x="182.27710843373492" y="389.6385542168675" type="line"/>
      <point x="62.024096385542165" y="389.6385542168675" type="line"/>
      <point x="62.024096385542165" y="321.45180722891564" type="line"/>
      <point x="201.92168674698794" y="321.45180722891564" type="line"/>
      <point x="201.92168674698794" y="241.7710843373494" type="line"/>
      <point x="62.024096385542165" y="241.7710843373494" type="line"/>
      <point x="62.024096385542165" y="174.2289156626506" type="line"/>
      <point x="201.92168674698794" y="174.2289156626506" type="line"/>
    </contour>
  </outline>
</glyph>
<glyph name="brokenbar" format="2">
  <advance width="241.72289156626505"/>
  <unicode hex="00A6"/>
  <outline>
    <contour>
      <point x="74.84939759036145" y="372.0" type="line"/>
      <point x="166.8734939759036" y="372.0" type="line"/>
      <point x="166.8734939759036" y="705.0" type="line"/>
      <point x="74.84939759036145" y="705.0" type="line"/>
    </contour>
    <contour>
      <point x="74.84939759036145" y="-180.0" type="line"/>
      <point x="166.8734939759036" y="-180.0" type="line"/>
      <point x="166.8734939759036" y="153.710843373494" type="line"/>
      <point x="74.84939759036145" y="153.710843373494" type="line"/>
    </contour>
  </outline>
</glyph>
<glyph name="section" format="2">
  <advance width="466.433734939759"/>
  <unicode hex="00A7"/>
  <outline>
    <contour>
      <point x="211.43975903614458" y="-189.42168674698794" type="curve" smooth="yes"/>
      <point x="326.433734939759" y="-189.42168674698794"/>
      <point x="398.6746987951807" y="-121.71084337349397"/>
      <point x="398.6746987951807" y="-12.867469879518072" type="curve" smooth="yes"/>
      <point x="398.6746987951807" y="27.018072289156628"/>
      <point x="388.4096385542169" y="62.34939759036145"/>
      <point x="369.45783132530124" y="82.96987951807229" type="curve"/>
      <point x="362.2590361445783" y="57.174698795180724" type="line"/>
      <point x="407.05421686746985" y="92.43975903614458"/>
      <point x="432.38554216867465" y="145.86144578313252"/>
      <point x="432.38554216867465" y="204.96987951807228" type="curve" smooth="yes"/>
      <point x="432.38554216867465" y="276.5240963855422"/>
      <point x="396.31927710843377" y="331.855421686747"/>
      <point x="316.8072289156627" y="375.87951807228916" type="curve" smooth="yes"/>
      <point x="223.87951807228916" y="426.789156626506" type="line" smooth="yes"/>
      <point x="183.34337349397592" y="449.39156626506025"/>
      <point x="156.8734939759036" y="481.99397590361446"/>
      <point x="156.8734939759036" y="539.644578313253" type="curve" smooth="yes"/>
      <point x="156.8734939759036" y="605.0963855421686"/>
      <point x="193.0542168674699" y="645.4337349397591"/>
      <point x="254.9698795180723" y="645.4337349397591" type="curve" smooth="yes"/>
      <point x="300.9277108433735" y="645.4337349397591"/>
      <point x="351.2168674698795" y="626.566265060241"/>
      <point x="386.1265060240964" y="596.1204819277108" type="curve"/>
      <point x="411.01204819277103" y="659.3975903614459" type="line"/>
      <point x="373.6144578313253" y="693.2650602409639"/>
      <point x="313.7048192771084" y="714.1325301204819"/>
      <point x="252.15060240963857" y="714.1325301204819" type="curve" smooth="yes"/>
      <point x="139.289156626506" y="714.1325301204819"/>
      <point x="68.46987951807229" y="646.066265060241"/>
      <point x="68.46987951807229" y="537.5783132530121" type="curve" smooth="yes"/>
      <point x="68.46987951807229" y="497.6927710843373"/>
      <point x="78.73493975903614" y="462.3614457831325"/>
      <point x="97.6867469879518" y="441.7409638554217" type="curve"/>
      <point x="104.8855421686747" y="467.53614457831327" type="line"/>
      <point x="60.09036144578313" y="432.2710843373494"/>
      <point x="34.75903614457832" y="378.84939759036143"/>
      <point x="34.75903614457832" y="319.7409638554217" type="curve" smooth="yes"/>
      <point x="34.75903614457832" y="244.31927710843374"/>
      <point x="75.33734939759036" y="190.27710843373495"/>
      <point x="150.33734939759034" y="148.83132530120483" type="curve" smooth="yes"/>
      <point x="243.26506024096386" y="97.92168674698796" type="line" smooth="yes"/>
      <point x="289.9578313253012" y="71.7409638554217"/>
      <point x="310.2710843373494" y="36.626506024096386"/>
      <point x="310.2710843373494" y="-14.22289156626506" type="curve" smooth="yes"/>
      <point x="310.2710843373494" y="-81.09638554216868"/>
      <point x="272.6686746987952" y="-120.72289156626506"/>
      <point x="210.75301204819277" y="-120.72289156626506" type="curve" smooth="yes"/>
      <point x="162.30722891566268" y="-120.72289156626506"/>
      <point x="107.04216867469879" y="-99.01204819277109"/>
      <point x="73.90963855421687" y="-67.5" type="curve"/>
      <point x="50.09036144578313" y="-132.55421686746988" type="line"/>
      <point x="85.355421686747" y="-167.84337349397592"/>
      <point x="145.97590361445782" y="-189.42168674698794"/>
    </contour>
    <contour>
      <point x="117.25301204819277" y="336.6927710843373" type="curve" smooth="yes"/>
      <point x="117.25301204819277" y="369.22891566265065"/>
      <point x="126.40963855421685" y="398.2530120481928"/>
      <point x="145.43373493975903" y="422.4759036144578" type="curve"/>
      <point x="114.99397590361447" y="420.63253012048193" type="line"/>
      <point x="129.79518072289156" y="396.51807228915663"/>
      <point x="156.33132530120483" y="371.6265060240964"/>
      <point x="188.3132530120482" y="353.0903614457831" type="curve" smooth="yes"/>
      <point x="267.7530120481928" y="309.1807228915663" type="line" smooth="yes"/>
      <point x="326.80120481927713" y="276.0"/>
      <point x="349.89156626506025" y="238.8433734939759"/>
      <point x="349.89156626506025" y="188.01807228915663" type="curve" smooth="yes"/>
      <point x="349.89156626506025" y="155.4819277108434"/>
      <point x="340.73493975903614" y="126.45783132530119"/>
      <point x="321.710843373494" y="102.23493975903615" type="curve"/>
      <point x="352.1506024096385" y="104.07831325301206" type="line"/>
      <point x="337.3493975903615" y="128.19277108433732"/>
      <point x="310.45783132530124" y="153.43975903614455"/>
      <point x="278.8313253012048" y="171.62048192771084" type="curve" smooth="yes"/>
      <point x="199.39156626506025" y="215.53012048192772" type="line" smooth="yes"/>
      <point x="141.6325301204819" y="247.71084337349396"/>
      <point x="117.25301204819277" y="283.933734939759"/>
    </contour>
  </outline>
</glyph>
<glyph name="copyright" format="2">
  <advance width="670.5783132530121"/>
  <unicode hex="00A9"/>
  <outline>
    <contour>
      <point x="335.28915662650604" y="-9.421686746987952" type="curve" smooth="yes"/>
      <point x="513.066265060241" y="-9.421686746987952"/>
      <point x="634.2650602409639" y="135.644578313253"/>
      <point x="634.2650602409639" y="353.0" type="curve" smooth="yes"/>
      <point x="634.2650602409639" y="569.710843373494"/>
      <point x="513.710843373494" y="714.4216867469879"/>
      <point x="335.28915662650604" y="714.4216867469879" type="curve" smooth="yes"/>
      <point x="157.51204819277106" y="714.4216867469879"/>
      <point x="36.31325301204819" y="569.3554216867469"/>
      <point x="36.31325301204819" y="352.0" type="curve" smooth="yes"/>
      <point x="36.31325301204819" y="135.289156626506"/>
      <point x="156.86746987951807" y="-9.421686746987952"/>
    </contour>
    <contour>
      <point x="342.5542168674699" y="136.289156626506" type="curve" smooth="yes"/>
      <point x="392.8433734939759" y="136.289156626506"/>
      <point x="436.13253012048193" y="153.57831325301206"/>
      <point x="463.26506024096386" y="182.8012048192771" type="curve"/>
      <point x="439.2228915662651" y="234.74698795180723" type="line"/>
      <point x="415.7771084337349" y="212.78915662650604"/>
      <point x="390.81927710843377" y="201.210843373494"/>
      <point x="355.7951807228916" y="201.210843373494" type="curve" smooth="yes"/>
      <point x="286.01204819277103" y="201.210843373494"/>
      <point x="253.76506024096386" y="248.25903614457832"/>
      <point x="253.76506024096386" y="352.710843373494" type="curve" smooth="yes"/>
      <point x="253.76506024096386" y="456.3855421686747"/>
      <point x="286.65662650602405" y="503.78915662650604"/>
      <point x="358.4397590361446" y="503.78915662650604" type="curve" smooth="yes"/>
      <point x="389.9759036144578" y="503.78915662650604"/>
      <point x="414.4216867469879" y="493.566265060241"/>
      <point x="439.5783132530121" y="470.60843373493975" type="curve"/>
      <point x="463.26506024096386" y="523.6204819277108" type="line"/>
      <point x="436.84337349397595" y="552.4879518072289"/>
      <point x="394.1987951807229" y="568.710843373494"/>
      <point x="344.9096385542169" y="568.710843373494" type="curve" smooth="yes"/>
      <point x="235.644578313253" y="568.710843373494"/>
      <point x="174.9578313253012" y="492.578313253012"/>
      <point x="174.9578313253012" y="352.355421686747" type="curve" smooth="yes"/>
      <point x="174.9578313253012" y="213.13253012048193"/>
      <point x="234.99999999999997" y="136.289156626506"/>
    </contour>
    <contour>
      <point x="335.28915662650604" y="35.174698795180724" type="curve" smooth="yes"/>
      <point x="183.4879518072289" y="35.174698795180724"/>
      <point x="83.6867469879518" y="158.4879518072289"/>
      <point x="83.6867469879518" y="352.0" type="curve" smooth="yes"/>
      <point x="83.6867469879518" y="545.5120481927711"/>
      <point x="183.4879518072289" y="669.8253012048193"/>
      <point x="335.28915662650604" y="669.8253012048193" type="curve" smooth="yes"/>
      <point x="487.8012048192771" y="669.8253012048193"/>
      <point x="586.8915662650602" y="546.5120481927711"/>
      <point x="586.8915662650602" y="353.0" type="curve" smooth="yes"/>
      <point x="586.8915662650602" y="159.4879518072289"/>
      <point x="487.8012048192771" y="35.174698795180724"/>
    </contour>
  </outline>
</glyph>
<glyph name="ordfeminine" format="2">
  <advance width="278.50602409638554"/>
  <unicode hex="00AA"/>
  <outline>
    <contour>
      <point x="115.09036144578315" y="410.51204819277103" type="curve" smooth="yes"/>
      <point x="155.6686746987952" y="410.51204819277103"/>
      <point x="183.69277108433735" y="436.18072289156623"/>
      <point x="195.33734939759034" y="485.7590361445783" type="curve"/>
      <point x="192.18072289156626" y="485.7590361445783" type="line"/>
      <point x="192.18072289156626" y="415.5120481927711" type="line"/>
      <point x="249.61445783132532" y="415.5120481927711" type="line"/>
      <point x="249.61445783132532" y="604.9578313253013" type="line" smooth="yes"/>
      <point x="249.61445783132532" y="679.5120481927711"/>
      <point x="215.86144578313252" y="714.4216867469879"/>
      <point x="145.55421686746988" y="714.4216867469879" type="curve" smooth="yes"/>
      <point x="105.57831325301206" y="714.4216867469879"/>
      <point x="60.9578313253012" y="701.777108433735"/>
      <point x="29.89156626506024" y="681.0662650602409" type="curve"/>
      <point x="50.57831325301205" y="638.6506024096385" type="line"/>
      <point x="72.93373493975903" y="655.2289156626506"/>
      <point x="106.64457831325302" y="665.5180722891566"/>
      <point x="135.93373493975903" y="665.5180722891566" type="curve" smooth="yes"/>
      <point x="175.18072289156626" y="665.5180722891566"/>
      <point x="190.4036144578313" y="651.4939759036145"/>
      <point x="190.4036144578313" y="607.867469879518" type="curve" smooth="yes"/>
      <point x="190.4036144578313" y="532.2469879518072" type="line" smooth="yes"/>
      <point x="190.4036144578313" y="487.62048192771084"/>
      <point x="164.93373493975903" y="454.15060240963857"/>
      <point x="130.5963855421687" y="454.15060240963857" type="curve" smooth="yes"/>
      <point x="102.06024096385542" y="454.15060240963857"/>
      <point x="82.39156626506025" y="474.8855421686747"/>
      <point x="82.39156626506025" y="503.77710843373495" type="curve" smooth="yes"/>
      <point x="82.39156626506025" y="538.6024096385543"/>
      <point x="105.70481927710843" y="550.1807228915662"/>
      <point x="179.1144578313253" y="550.1807228915662" type="curve" smooth="yes"/>
      <point x="200.4036144578313" y="550.1807228915662" type="line"/>
      <point x="200.4036144578313" y="586.843373493976" type="line"/>
      <point x="172.42771084337352" y="586.843373493976" type="line" smooth="yes"/>
      <point x="66.24698795180723" y="586.843373493976"/>
      <point x="21.89156626506024" y="562.066265060241"/>
      <point x="21.89156626506024" y="503.7771084337349" type="curve" smooth="yes"/>
      <point x="21.89156626506024" y="450.355421686747"/>
      <point x="62.668674698795186" y="410.51204819277103"/>
    </contour>
  </outline>
</glyph>
<glyph name="logicalnot" format="2">
  <advance width="498.0"/>
  <unicode hex="00AC"/>
  <outline>
    <contour>
      <point x="394.5903614457832" y="166.66867469879517" type="line"/>
      <point x="466.0" y="166.66867469879517" type="line"/>
      <point x="466.0" y="422.2831325301205" type="line"/>
      <point x="32.0" y="422.2831325301205" type="line"/>
      <point x="32.0" y="355.2951807228916" type="line"/>
      <point x="394.5903614457832" y="355.2951807228916" type="line"/>
    </contour>
  </outline>
</glyph>
<glyph name="registered" format="2">
  <advance width="670.5783132530121"/>
  <unicode hex="00AE"/>
  <outline>
    <contour>
      <point x="335.28915662650604" y="-9.421686746987952" type="curve" smooth="yes"/>
      <point x="514.4216867469879" y="-9.421686746987952"/>
      <point x="634.2650602409639" y="137.0"/>
      <point x="634.2650602409639" y="353.0" type="curve" smooth="yes"/>
      <point x="634.2650602409639" y="569.0"/>
      <point x="514.4216867469879" y="714.4216867469879"/>
      <point x="335.28915662650604" y="714.4216867469879" type="curve" smooth="yes"/>
      <point x="156.15662650602408" y="714.4216867469879"/>
      <point x="36.31325301204819" y="568.0"/>
      <point x="36.31325301204819" y="352.0" type="curve" smooth="yes"/>
      <point x="36.31325301204819" y="136.0"/>
      <point x="156.1566265060241" y="-9.421686746987952"/>
    </contour>
    <contour>
      <point x="335.28915662650604" y="35.174698795180724" type="curve" smooth="yes"/>
      <point x="182.77710843373492" y="35.174698795180724"/>
      <point x="83.6867469879518" y="159.1987951807229"/>
      <point x="83.6867469879518" y="352.0" type="curve" smooth="yes"/>
      <point x="83.6867469879518" y="544.8012048192771"/>
      <point x="182.77710843373492" y="669.8253012048193"/>
      <point x="335.28915662650604" y="669.8253012048193" type="curve" smooth="yes"/>
      <point x="488.5120481927711" y="669.8253012048193"/>
      <point x="586.8915662650602" y="545.8012048192771"/>
      <point x="586.8915662650602" y="353.0" type="curve" smooth="yes"/>
      <point x="586.8915662650602" y="160.1987951807229"/>
      <point x="488.5120481927711" y="35.174698795180724"/>
    </contour>
    <contour>
      <point x="210.42771084337352" y="141.64457831325302" type="line"/>
      <point x="280.4156626506024" y="141.64457831325302" type="line"/>
      <point x="280.4156626506024" y="322.89156626506025" type="line"/>
      <point x="271.8614457831325" y="314.33734939759034" type="line"/>
      <point x="319.5783132530121" y="314.33734939759034" type="line" smooth="yes"/>
      <point x="347.40361445783134" y="314.33734939759034"/>
      <point x="360.5602409638554" y="304.1807228915663"/>
      <point x="371.9397590361446" y="271.355421686747" type="curve" smooth="yes"/>
      <point x="412.69879518072287" y="141.64457831325302" type="line"/>
      <point x="488.81927710843377" y="141.64457831325302" type="line"/>
      <point x="443.2590361445784" y="272.75903614457826" type="line" smooth="yes"/>
      <point x="431.10240963855426" y="308.0481927710843"/>
      <point x="412.90361445783134" y="325.1144578313253"/>
      <point x="387.15060240963857" y="325.1144578313253" type="curve"/>
      <point x="354.62048192771084" y="316.98192771084337" type="line"/>
      <point x="428.4638554216867" y="316.98192771084337"/>
      <point x="477.9518072289157" y="364.1807228915663"/>
      <point x="477.9518072289157" y="441.0903614457831" type="curve" smooth="yes"/>
      <point x="477.9518072289157" y="518.222891566265"/>
      <point x="430.6867469879518" y="564.4216867469879"/>
      <point x="353.55421686746985" y="564.4216867469879" type="curve" smooth="yes"/>
      <point x="210.42771084337352" y="564.4216867469879" type="line"/>
    </contour>
    <contour>
      <point x="280.4156626506024" y="366.66265060240966" type="line"/>
      <point x="280.4156626506024" y="509.9638554216868" type="line"/>
      <point x="345.1566265060241" y="509.9638554216868" type="line" smooth="yes"/>
      <point x="385.4277108433735" y="509.9638554216868"/>
      <point x="409.3855421686747" y="484.29518072289153"/>
      <point x="409.3855421686747" y="439.95783132530124" type="curve" smooth="yes"/>
      <point x="409.3855421686747" y="393.9759036144578"/>
      <point x="385.4277108433735" y="366.66265060240966"/>
      <point x="345.1566265060241" y="366.66265060240966" type="curve" smooth="yes"/>
    </contour>
  </outline>
</glyph>
<glyph name="degree" format="2">
  <advance width="349.9518072289157"/>
  <unicode hex="00B0"/>
  <outline>
    <contour>
      <point x="175.33132530120483" y="436.7831325301205" type="curve" smooth="yes"/>
      <point x="255.01807228915663" y="436.7831325301205"/>
      <point x="315.6385542168675" y="496.98192771084337"/>
      <point x="315.6385542168675" y="575.9578313253012" type="curve" smooth="yes"/>
      <point x="315.6385542168675" y="654.5783132530121"/>
      <point x="255.37349397590364" y="714.777108433735"/>
      <point x="175.33132530120483" y="714.777108433735" type="curve" smooth="yes"/>
      <point x="94.93373493975905" y="714.777108433735"/>
      <point x="34.66867469879518" y="654.2228915662652"/>
      <point x="34.66867469879518" y="575.9578313253012" type="curve" smooth="yes"/>
      <point x="34.66867469879518" y="497.33734939759034"/>
      <point x="95.28915662650603" y="436.7831325301205"/>
    </contour>
    <contour>
      <point x="175.33132530120483" y="492.6867469879518" type="curve" smooth="yes"/>
      <point x="128.7289156626506" y="492.6867469879518"/>
      <point x="96.34939759036143" y="528.0662650602409"/>
      <point x="96.34939759036143" y="575.9578313253012" type="curve" smooth="yes"/>
      <point x="96.34939759036143" y="623.4939759036145"/>
      <point x="128.7289156626506" y="658.8734939759036"/>
      <point x="175.33132530120483" y="658.8734939759036" type="curve" smooth="yes"/>
      <point x="221.57831325301206" y="658.8734939759036"/>
      <point x="253.60240963855424" y="623.4939759036145"/>
      <point x="253.60240963855424" y="575.9578313253012" type="curve" smooth="yes"/>
      <point x="253.60240963855424" y="528.0662650602409"/>
      <point x="221.57831325301206" y="492.6867469879518"/>
    </contour>
  </outline>
</glyph>
<glyph name="plusminus" format="2">
  <advance width="498.0"/>
  <unicode hex="00B1"/>
  <outline>
    <contour>
      <point x="213.2951807228916" y="123.19277108433735" type="line"/>
      <point x="284.7048192771084" y="123.19277108433735" type="line"/>
      <point x="284.7048192771084" y="297.9578313253012" type="line"/>
      <point x="466.0" y="297.9578313253012" type="line"/>
      <point x="466.0" y="364.2349397590362" type="line"/>
      <point x="284.7048192771084" y="364.2349397590362" type="line"/>
      <point x="284.7048192771084" y="536.222891566265" type="line"/>
      <point x="213.2951807228916" y="536.222891566265" type="line"/>
      <point x="213.2951807228916" y="364.2349397590362" type="line"/>
      <point x="32.0" y="364.2349397590362" type="line"/>
      <point x="32.0" y="297.9578313253012" type="line"/>
      <point x="213.2951807228916" y="297.9578313253012" type="line"/>
    </contour>
    <contour>
      <point x="32.0" y="0.0" type="line"/>
      <point x="466.0" y="0.0" type="line"/>
      <point x="466.0" y="66.98795180722891" type="line"/>
      <point x="32.0" y="66.98795180722891" type="line"/>
    </contour>
  </outline>
</glyph>
<glyph name="micro" format="2">
  <advance width="475.6144578313253"/>
  <unicode hex="00B5"/>
  <outline>
    <contour>
      <point x="58.49397590361446" y="-180.0" type="line"/>
      <point x="150.51807228915663" y="-180.0" type="line"/>
      <point x="141.1867469879518" y="63.096385542168676" type="line"/>
      <point x="131.29518072289156" y="63.096385542168676" type="line"/>
      <point x="146.74096385542168" y="11.602409638554217"/>
      <point x="178.07831325301206" y="-9.421686746987952"/>
      <point x="220.21686746987953" y="-9.421686746987952" type="curve" smooth="yes"/>
      <point x="276.4457831325301" y="-9.421686746987952"/>
      <point x="314.51807228915663" y="28.180722891566262"/>
      <point x="331.3192771084337" y="93.3132530120482" type="curve"/>
      <point x="326.9397590361446" y="93.3132530120482" type="line"/>
      <point x="326.9397590361446" y="0.0" type="line"/>
      <point x="416.18674698795184" y="0.0" type="line"/>
      <point x="416.18674698795184" y="487.5542168674699" type="line"/>
      <point x="324.16265060240966" y="487.5542168674699" type="line"/>
      <point x="324.16265060240966" y="182.90963855421685" type="line" smooth="yes"/>
      <point x="324.16265060240966" y="108.59036144578315"/>
      <point x="279.5120481927711" y="66.03012048192771"/>
      <point x="222.99397590361446" y="66.03012048192771" type="curve" smooth="yes"/>
      <point x="178.5" y="66.03012048192771"/>
      <point x="150.51807228915663" y="89.05421686746988"/>
      <point x="150.51807228915663" y="167.81927710843374" type="curve" smooth="yes"/>
      <point x="150.51807228915663" y="487.5542168674699" type="line"/>
      <point x="58.49397590361446" y="487.5542168674699" type="line"/>
    </contour>
  </outline>
</glyph>
<glyph name="paragraph" format="2">
  <advance width="510.7831325301205"/>
  <unicode hex="00B6"/>
  <outline>
    <contour>
      <point x="202.3313253012048" y="-180.0" type="line"/>
      <point x="273.03012048192767" y="-180.0" type="line"/>
      <point x="273.03012048192767" y="637.5903614457832" type="line"/>
      <point x="370.23493975903614" y="637.5903614457832" type="line"/>
      <point x="370.23493975903614" y="-180.0" type="line"/>
      <point x="440.93373493975906" y="-180.0" type="line"/>
      <point x="440.93373493975906" y="705.0" type="line"/>
      <point x="204.0421686746988" y="705.0" type="line" smooth="yes"/>
      <point x="100.95783132530121" y="705.0"/>
      <point x="27.337349397590366" y="624.3132530120482"/>
      <point x="27.337349397590366" y="504.5843373493976" type="curve" smooth="yes"/>
      <point x="27.337349397590366" y="385.566265060241"/>
      <point x="100.95783132530121" y="303.8132530120482"/>
      <point x="202.3313253012048" y="303.8132530120482" type="curve"/>
    </contour>
  </outline>
</glyph>
<glyph name="periodcentered" format="2">
  <advance width="207.39156626506025"/>
  <unicode hex="00B7"/>
  <outline>
    <contour>
      <point x="50.626506024096386" y="211.67469879518072" type="line"/>
      <point x="157.12048192771084" y="211.67469879518072" type="line"/>
      <point x="157.12048192771084" y="321.2349397590362" type="line"/>
      <point x="50.626506024096386" y="321.2349397590362" type="line"/>
    </contour>
  </outline>
</glyph>
<glyph name="ordmasculine" format="2">
  <advance width="288.34939759036143"/>
  <unicode hex="00BA"/>
  <outline>
    <contour>
      <point x="144.53012048192772" y="410.86746987951807" type="curve" smooth="yes"/>
      <point x="219.50602409638554" y="410.86746987951807"/>
      <point x="269.3253012048193" y="460.578313253012"/>
      <point x="269.3253012048193" y="563.0" type="curve" smooth="yes"/>
      <point x="269.3253012048193" y="664.710843373494"/>
      <point x="219.50602409638554" y="714.4216867469879"/>
      <point x="144.53012048192772" y="714.4216867469879" type="curve" smooth="yes"/>
      <point x="68.84337349397589" y="714.4216867469879"/>
      <point x="19.02409638554217" y="664.710843373494"/>
      <point x="19.02409638554217" y="563.0" type="curve" smooth="yes"/>
      <point x="19.02409638554217" y="460.578313253012"/>
      <point x="68.84337349397589" y="410.86746987951807"/>
    </contour>
    <contour>
      <point x="144.53012048192772" y="460.54819277108436" type="curve" smooth="yes"/>
      <point x="105.3403795180723" y="460.54819277108436"/>
      <point x="80.59036144578313" y="488.01807228915663"/>
      <point x="80.59036144578313" y="563.0" type="curve" smooth="yes"/>
      <point x="80.59036144578313" y="637.3373493975903"/>
      <point x="105.3403795180723" y="664.8072289156626"/>
      <point x="144.53012048192772" y="664.8072289156626" type="curve" smooth="yes"/>
      <point x="183.00901807228914" y="664.8072289156626"/>
      <point x="207.75903614457832" y="637.3373493975903"/>
      <point x="207.75903614457832" y="563.0" type="curve" smooth="yes"/>
      <point x="207.75903614457832" y="488.01807228915663"/>
      <point x="183.00901807228914" y="460.54819277108436"/>
    </contour>
  </outline>
</glyph>
<glyph name="questiondown" format="2">
  <advance width="379.1265060240964"/>
  <unicode hex="00BF"/>
  <outline>
    <contour>
      <point x="183.59638554216866" y="-188.71084337349396" type="curve" smooth="yes"/>
      <point x="257.1506024096385" y="-188.71084337349396"/>
      <point x="327.99397590361446" y="-159.4879518072289"/>
      <point x="372.54819277108436" y="-111.97590361445782" type="curve"/>
      <point x="343.04216867469876" y="-41.168674698795186" type="line"/>
      <point x="296.0421686746988" y="-86.48192771084337"/>
      <point x="249.7289156626506" y="-107.9277108433735"/>
      <point x="199.6144578313253" y="-107.9277108433735" type="curve" smooth="yes"/>
      <point x="143.12048192771084" y="-107.9277108433735"/>
      <point x="114.00602409638554" y="-78.81325301204821"/>
      <point x="114.00602409638554" y="-24.451807228915662" type="curve" smooth="yes"/>
      <point x="114.00602409638554" y="13.728915662650602"/>
      <point x="128.87349397590364" y="47.19879518072289"/>
      <point x="166.9879518072289" y="102.04819277108433" type="curve" smooth="yes"/>
      <point x="223.77108433734938" y="185.92168674698794"/>
      <point x="225.7710843373494" y="222.63253012048196"/>
      <point x="225.7710843373494" y="269.3253012048193" type="curve" smooth="yes"/>
      <point x="225.7710843373494" y="297.9879518072289" type="line"/>
      <point x="170.56024096385542" y="297.9879518072289" type="line"/>
      <point x="168.13855421686748" y="275.21084337349396" type="line" smooth="yes"/>
      <point x="163.36144578313252" y="225.29518072289156"/>
      <point x="153.36144578313255" y="203.16265060240963"/>
      <point x="101.24698795180723" y="137.35542168674698" type="curve" smooth="yes"/>
      <point x="40.403614457831324" y="66.53012048192772"/>
      <point x="19.981927710843372" y="22.240963855421686"/>
      <point x="19.981927710843372" y="-35.825301204819276" type="curve" smooth="yes"/>
      <point x="19.981927710843372" y="-132.09036144578315"/>
      <point x="80.93373493975905" y="-188.71084337349396"/>
    </contour>
    <contour>
      <point x="145.09638554216866" y="377.99397590361446" type="line"/>
      <point x="251.23493975903617" y="377.99397590361446" type="line"/>
      <point x="251.23493975903617" y="487.5542168674699" type="line"/>
      <point x="145.09638554216866" y="487.5542168674699" type="line"/>
    </contour>
  </outline>
</glyph>
<glyph name="AE" format="2">
  <advance width="815.7710843373494"/>
  <unicode hex="00C6"/>
  <anchor x="399.355421686747" y="0.0" name="bottom"/>
  <anchor x="399.066265060241" y="705.0" name="top"/>
  <outline>
    <contour>
      <point x="-18.879518072289155" y="0.0" type="line"/>
      <point x="79.40963855421687" y="0.0" type="line"/>
      <point x="172.72289156626505" y="200.53614457831327" type="line"/>
      <point x="139.30722891566265" y="176.03012048192772" type="line"/>
      <point x="452.62048192771084" y="176.03012048192772" type="line"/>
      <point x="421.7590361445784" y="202.73493975903614" type="line"/>
      <point x="456.04819277108436" y="0.0" type="line"/>
      <point x="769.1265060240963" y="0.0" type="line"/>
      <point x="769.1265060240963" y="76.58433734939759" type="line"/>
      <point x="501.3253012048193" y="76.58433734939759" type="line"/>
      <point x="535.6746987951807" y="46.85542168674698" type="line"/>
      <point x="486.3614457831325" y="343.4457831325301" type="line"/>
      <point x="464.76506024096386" y="319.3855421686747" type="line"/>
      <point x="752.4156626506024" y="319.3855421686747" type="line"/>
      <point x="752.4156626506024" y="395.9698795180723" type="line"/>
      <point x="448.5240963855422" y="395.9698795180723" type="line"/>
      <point x="481.9397590361446" y="370.3313253012048" type="line"/>
      <point x="433.3373493975904" y="658.8132530120482" type="line"/>
      <point x="411.76506024096386" y="628.4156626506024" type="line"/>
      <point x="769.1265060240963" y="628.4156626506024" type="line"/>
      <point x="769.1265060240963" y="705.0" type="line"/>
      <point x="322.0301204819277" y="705.0" type="line"/>
    </contour>
    <contour>
      <point x="355.0" y="593.0" type="line"/>
      <point x="356.0" y="593.0" type="line"/>
      <point x="417.6927710843374" y="228.55421686746988" type="line"/>
      <point x="433.71084337349396" y="252.61445783132532" type="line"/>
      <point x="183.25301204819277" y="252.61445783132532" type="line"/>
      <point x="185.76506024096386" y="230.46385542168673" type="line"/>
    </contour>
  </outline>
</glyph>
<glyph name="multiply" format="2">
  <advance width="498.0"/>
  <unicode hex="00D7"/>
  <outline>
    <contour>
      <point x="89.6144578313253" y="79.0" type="line"/>
      <point x="249.0" y="239.09638554216866" type="line"/>
      <point x="408.3855421686747" y="79.0" type="line"/>
      <point x="454.71084337349396" y="124.32530120481925" type="line"/>
      <point x="294.3253012048193" y="284.71084337349396" type="line"/>
      <point x="454.71084337349396" y="445.8072289156627" type="line"/>
      <point x="408.3855421686747" y="491.8433734939759" type="line"/>
      <point x="249.0" y="332.1024096385542" type="line"/>
      <point x="89.6144578313253" y="491.8433734939759" type="line"/>
      <point x="43.28915662650603" y="445.8072289156627" type="line"/>
      <point x="203.67469879518075" y="284.71084337349396" type="line"/>
      <point x="43.28915662650603" y="124.32530120481925" type="line"/>
    </contour>
  </outline>
</glyph>
<glyph name="Thorn" format="2">
  <advance width="536.1024096385543"/>
  <unicode hex="00DE"/>
  <anchor x="274.01807228915663" y="0.0" name="bottom"/>
  <anchor x="274.3734939759036" y="705.0" name="top"/>
  <outline>
    <contour>
      <point x="69.84939759036145" y="0.0" type="line"/>
      <point x="164.00602409638554" y="0.0" type="line"/>
      <point x="164.00602409638554" y="152.04819277108436" type="line"/>
      <point x="307.2590361445783" y="152.04819277108436" type="line" smooth="yes"/>
      <point x="432.5240963855421" y="152.04819277108436"/>
      <point x="506.433734939759" y="231.37951807228916"/>
      <point x="506.433734939759" y="366.066265060241" type="curve" smooth="yes"/>
      <point x="506.433734939759" y="501.10843373493975"/>
      <point x="433.16867469879514" y="579.7289156626506"/>
      <point x="307.2590361445783" y="579.7289156626506" type="curve" smooth="yes"/>
      <point x="164.00602409638554" y="579.7289156626506" type="line"/>
      <point x="164.00602409638554" y="705.0" type="line"/>
      <point x="69.84939759036145" y="705.0" type="line"/>
    </contour>
    <contour>
      <point x="164.00602409638554" y="227.92168674698797" type="line"/>
      <point x="164.00602409638554" y="503.855421686747" type="line"/>
      <point x="293.17469879518075" y="503.855421686747" type="line" smooth="yes"/>
      <point x="372.2048192771084" y="503.855421686747"/>
      <point x="414.5421686746988" y="454.8072289156627"/>
      <point x="414.5421686746988" y="366.066265060241" type="curve" smooth="yes"/>
      <point x="414.5421686746988" y="277.3253012048193"/>
      <point x="372.2048192771084" y="227.92168674698797"/>
      <point x="293.17469879518075" y="227.92168674698797" type="curve" smooth="yes"/>
    </contour>
  </outline>
</glyph>
<glyph name="germandbls" format="2">
  <advance width="531.4939759036145"/>
  <unicode hex="00DF"/>
  <outline>
    <contour>
      <point x="347.38554216867465" y="-9.421686746987952" type="curve" smooth="yes"/>
      <point x="443.11445783132524" y="-9.421686746987952"/>
      <point x="507.09036144578306" y="48.0421686746988"/>
      <point x="507.09036144578306" y="143.2831325301205" type="curve" smooth="yes"/>
      <point x="507.09036144578306" y="212.4558855421687"/>
      <point x="471.6293554216868" y="258.0490361445784"/>
      <point x="391.644578313253" y="284.9698795180723" type="curve" smooth="yes"/>
      <point x="333.35633734939756" y="304.5617289156626"/>
      <point x="310.50602409638554" y="324.7588253012048"/>
      <point x="310.50602409638554" y="364.13253012048193" type="curve" smooth="yes"/>
      <point x="310.50602409638554" y="390.37951807228916"/>
      <point x="321.75598795180724" y="409.4808373493976"/>
      <point x="356.3975903614458" y="451.53614457831327" type="curve" smooth="yes"/>
      <point x="386.8966204819277" y="489.785608433735"/>
      <point x="414.4457831325301" y="521.9102710843373"/>
      <point x="414.4457831325301" y="579.5602409638554" type="curve" smooth="yes"/>
      <point x="414.4457831325301" y="665.5120481927711"/>
      <point x="359.3614457831325" y="714.4216867469879"/>
      <point x="255.8132530120482" y="714.4216867469879" type="curve" smooth="yes"/>
      <point x="129.86746987951807" y="714.4216867469879"/>
      <point x="60.13855421686747" y="641.2469879518072"/>
      <point x="60.13855421686747" y="502.4518072289157" type="curve" smooth="yes"/>
      <point x="60.13855421686747" y="0.0" type="line"/>
      <point x="152.16265060240966" y="0.0" type="line"/>
      <point x="152.16265060240966" y="514.5361445783133" type="line" smooth="yes"/>
      <point x="152.16265060240966" y="600.8313253012049"/>
      <point x="185.40963855421685" y="643.9457831325301"/>
      <point x="253.6144578313253" y="643.9457831325301" type="curve" smooth="yes"/>
      <point x="303.8921204819277" y="643.9457831325301"/>
      <point x="327.6867469879518" y="621.2771084337348"/>
      <point x="327.6867469879518" y="572.8072289156627" type="curve" smooth="yes"/>
      <point x="327.6867469879518" y="534.1720843373494"/>
      <point x="311.82946987951806" y="513.1278734939758"/>
      <point x="286.1265060240964" y="482.86746987951807" type="curve" smooth="yes"/>
      <point x="249.42521084337352" y="439.8374277108434"/>
      <point x="226.59036144578312" y="405.04819277108436"/>
      <point x="226.59036144578312" y="352.66867469879514" type="curve" smooth="yes"/>
      <point x="226.59036144578312" y="291.11833734939756"/>
      <point x="259.5679277108433" y="248.74421084337348"/>
      <point x="343.10240963855426" y="218.69277108433735" type="curve" smooth="yes"/>
      <point x="401.973343373494" y="197.6673795180723"/>
      <point x="423.2409638554216" y="176.22289156626505"/>
      <point x="423.2409638554216" y="135.30722891566265" type="curve" smooth="yes"/>
      <point x="423.2409638554216" y="88.23493975903614"/>
      <point x="392.83734939759034" y="61.47590361445783"/>
      <point x="342.0542168674699" y="61.47590361445783" type="curve" smooth="yes"/>
      <point x="300.60843373493975" y="61.47590361445783"/>
      <point x="257.96385542168673" y="79.05421686746988"/>
      <point x="220.12048192771087" y="110.98795180722891" type="curve"/>
      <point x="196.3012048192771" y="47.222891566265055" type="line"/>
      <point x="230.5" y="12.933734939759036"/>
      <point x="288.18674698795184" y="-9.421686746987952"/>
    </contour>
  </outline>
</glyph>
<glyph name="ae" format="2">
  <advance width="709.9096385542168"/>
  <unicode hex="00E6"/>
  <anchor x="345.44578313253015" y="0.0" name="bottom"/>
  <anchor x="345.44578313253015" y="484.0" name="top"/>
  <outline>
    <contour>
      <point x="195.22289156626508" y="-9.421686746987952" type="curve" smooth="yes"/>
      <point x="276.0" y="-9.421686746987952"/>
      <point x="336.19879518072287" y="47.024096385542165"/>
      <point x="349.289156626506" y="136.22891566265062" type="curve"/>
      <point x="332.86746987951807" y="136.22891566265062" type="line"/>
      <point x="356.421686746988" y="39.825301204819276"/>
      <point x="421.0421686746988" y="-9.421686746987952"/>
      <point x="513.1987951807229" y="-9.421686746987952" type="curve" smooth="yes"/>
      <point x="569.843373493976" y="-9.421686746987952"/>
      <point x="624.3313253012047" y="10.512048192771084"/>
      <point x="670.1506024096385" y="48.44578313253012" type="curve"/>
      <point x="640.2650602409639" y="112.21084337349397" type="line"/>
      <point x="606.2650602409639" y="80.83132530120481"/>
      <point x="562.4879518072289" y="63.897590361445786"/>
      <point x="516.0421686746988" y="63.897590361445786" type="curve" smooth="yes"/>
      <point x="432.3253012048193" y="63.897590361445786"/>
      <point x="393.63253012048193" y="117.19277108433735"/>
      <point x="393.63253012048193" y="230.82530120481925" type="curve" smooth="yes"/>
      <point x="393.63253012048193" y="251.46385542168673" type="line" smooth="yes"/>
      <point x="393.63253012048193" y="367.6927710843373"/>
      <point x="429.1927710843373" y="429.98795180722897"/>
      <point x="502.93373493975906" y="429.98795180722897" type="curve" smooth="yes"/>
      <point x="567.3855421686746" y="429.98795180722897"/>
      <point x="597.144578313253" y="379.7831325301205"/>
      <point x="597.144578313253" y="267.59638554216866" type="curve"/>
      <point x="610.8554216867469" y="284.3734939759036" type="line"/>
      <point x="380.078313253012" y="284.3734939759036" type="line"/>
      <point x="380.078313253012" y="224.78313253012047" type="line"/>
      <point x="675.8614457831325" y="224.78313253012047" type="line"/>
      <point x="675.8614457831325" y="261.86746987951807" type="line" smooth="yes"/>
      <point x="675.8614457831325" y="414.71084337349396"/>
      <point x="613.4638554216867" y="496.9759036144578"/>
      <point x="502.5783132530121" y="496.9759036144578" type="curve" smooth="yes"/>
      <point x="432.72891566265054" y="496.9759036144578"/>
      <point x="373.5301204819277" y="454.57228915662654"/>
      <point x="348.46385542168673" y="371.05421686746985" type="curve"/>
      <point x="367.72891566265065" y="371.05421686746985" type="line"/>
      <point x="357.421686746988" y="457.15060240963857"/>
      <point x="314.86746987951807" y="496.9759036144578"/>
      <point x="230.77710843373492" y="496.9759036144578" type="curve" smooth="yes"/>
      <point x="169.8012048192771" y="496.9759036144578"/>
      <point x="103.56024096385542" y="476.62048192771084"/>
      <point x="57.78313253012048" y="442.5542168674699" type="curve"/>
      <point x="87.86746987951807" y="376.144578313253" type="line"/>
      <point x="128.9578313253012" y="406.9457831325301"/>
      <point x="176.8012048192771" y="423.30120481927713"/>
      <point x="220.73493975903614" y="423.30120481927713" type="curve" smooth="yes"/>
      <point x="282.8734939759036" y="423.30120481927713"/>
      <point x="305.1626506024096" y="388.89759036144574"/>
      <point x="305.1626506024096" y="335.40361445783134" type="curve" smooth="yes"/>
      <point x="305.1626506024096" y="186.24698795180723" type="line" smooth="yes"/>
      <point x="305.1626506024096" y="114.86144578313254"/>
      <point x="264.6686746987952" y="58.632530120481924"/>
      <point x="209.15060240963857" y="58.632530120481924" type="curve" smooth="yes"/>
      <point x="165.3012048192771" y="58.632530120481924"/>
      <point x="132.8313253012048" y="93.74698795180723"/>
      <point x="132.8313253012048" y="144.81927710843374" type="curve" smooth="yes"/>
      <point x="132.8313253012048" y="205.69277108433735"/>
      <point x="176.74698795180723" y="224.78313253012047"/>
      <point x="268.0240963855422" y="224.78313253012047" type="curve" smooth="yes"/>
      <point x="317.29518072289153" y="224.78313253012047" type="line"/>
      <point x="317.29518072289153" y="284.3734939759036" type="line"/>
      <point x="260.7831325301205" y="284.3734939759036" type="line" smooth="yes"/>
      <point x="120.5843373493976" y="284.3734939759036"/>
      <point x="42.4277108433735" y="245.77710843373495"/>
      <point x="42.4277108433735" y="145.6867469879518" type="curve" smooth="yes"/>
      <point x="42.4277108433735" y="55.8433734939759"/>
      <point x="108.04819277108435" y="-9.421686746987952"/>
    </contour>
  </outline>
</glyph>
<glyph name="eth" format="2">
  <advance width="475.81325301204816"/>
  <unicode hex="00F0"/>
  <outline>
    <contour>
      <point x="236.37349397590359" y="-9.421686746987952" type="curve" smooth="yes"/>
      <point x="370.94578313253015" y="-9.421686746987952"/>
      <point x="439.18674698795184" y="80.48795180722891"/>
      <point x="439.18674698795184" y="258.62048192771084" type="curve" smooth="yes"/>
      <point x="439.18674698795184" y="423.6927710843373"/>
      <point x="393.921686746988" y="539.2289156626506"/>
      <point x="317.3614457831325" y="616.0301204819276" type="curve"/>
      <point x="317.49397590361446" y="606.8975903614459" type="line"/>
      <point x="414.8072289156626" y="660.4096385542169" type="line"/>
      <point x="388.3012048192771" y="714.777108433735" type="line"/>
      <point x="259.6385542168675" y="645.0903614457832" type="line"/>
      <point x="285.433734939759" y="642.8253012048193" type="line"/>
      <point x="246.03614457831324" y="672.7349397590361"/>
      <point x="193.53012048192772" y="699.4879518072289"/>
      <point x="127.62650602409639" y="714.777108433735" type="curve"/>
      <point x="111.58433734939759" y="657.7650602409639" type="line"/>
      <point x="155.69277108433735" y="645.8975903614459"/>
      <point x="196.15662650602408" y="626.6987951807229"/>
      <point x="215.6265060240964" y="611.0301204819277" type="curve"/>
      <point x="215.84939759036143" y="622.5180722891566" type="line"/>
      <point x="99.49397590361446" y="559.1626506024096" type="line"/>
      <point x="125.99999999999999" y="504.7951807228916" type="line"/>
      <point x="263.88554216867465" y="579.7710843373494" type="line"/>
      <point x="252.79518072289156" y="581.8373493975904" type="line"/>
      <point x="311.0722891566265" y="526.0542168674699"/>
      <point x="352.98192771084337" y="436.0481927710843"/>
      <point x="353.91566265060237" y="302.1265060240964" type="curve"/>
      <point x="377.0240963855422" y="302.1265060240964" type="line"/>
      <point x="359.20481927710847" y="409.8614457831325"/>
      <point x="299.5602409638554" y="453.644578313253"/>
      <point x="218.8012048192771" y="453.644578313253" type="curve" smooth="yes"/>
      <point x="105.66867469879517" y="453.644578313253"/>
      <point x="37.692771084337345" y="367.1566265060241"/>
      <point x="37.692771084337345" y="222.0" type="curve" smooth="yes"/>
      <point x="37.692771084337345" y="74.0"/>
      <point x="109.22289156626505" y="-9.421686746987952"/>
    </contour>
    <contour>
      <point x="236.3734939759036" y="62.12048192771084" type="curve" smooth="yes"/>
      <point x="165.63253012048193" y="62.12048192771084"/>
      <point x="130.7168674698795" y="115.32530120481928"/>
      <point x="130.7168674698795" y="222.289156626506" type="curve" smooth="yes"/>
      <point x="130.7168674698795" y="328.8975903614458"/>
      <point x="165.9879518072289" y="381.7469879518072"/>
      <point x="236.37349397590364" y="381.7469879518072" type="curve" smooth="yes"/>
      <point x="307.4698795180723" y="381.7469879518072"/>
      <point x="342.7409638554217" y="328.8975903614458"/>
      <point x="342.7409638554217" y="222.289156626506" type="curve" smooth="yes"/>
      <point x="342.7409638554217" y="114.96987951807229"/>
      <point x="307.4698795180723" y="62.12048192771084"/>
    </contour>
  </outline>
</glyph>
<glyph name="divide" format="2">
  <advance width="498.0"/>
  <unicode hex="00F7"/>
  <outline>
    <contour>
      <point x="32.0" y="252.0722891566265" type="line"/>
      <point x="466.0" y="252.0722891566265" type="line"/>
      <point x="466.0" y="319.06024096385545" type="line"/>
      <point x="32.0" y="319.06024096385545" type="line"/>
    </contour>
    <contour>
      <point x="206.2048192771084" y="44.75903614457832" type="line"/>
      <point x="292.43975903614455" y="44.75903614457832" type="line"/>
      <point x="292.43975903614455" y="132.28313253012047" type="line"/>
      <point x="206.2048192771084" y="132.28313253012047" type="line"/>
    </contour>
    <contour>
      <point x="206.2048192771084" y="438.84939759036143" type="line"/>
      <point x="292.43975903614455" y="438.84939759036143" type="line"/>
      <point x="292.43975903614455" y="526.3734939759036" type="line"/>
      <point x="206.2048192771084" y="526.3734939759036" type="line"/>
    </contour>
  </outline>
</glyph>
<glyph name="thorn" format="2">
  <advance width="493.1927710843373"/>
  <unicode hex="00FE"/>
  <anchor x="247.08433734939757" y="0.0" name="bottom"/>
  <anchor x="247.08433734939757" y="484.0" name="top"/>
  <outline>
    <contour>
      <point x="60.13855421686747" y="-180.0" type="line"/>
      <point x="152.16265060240966" y="-180.0" type="line"/>
      <point x="152.16265060240966" y="107.84939759036145" type="line"/>
      <point x="141.74096385542168" y="107.84939759036145" type="line"/>
      <point x="158.31927710843374" y="32.09036144578313"/>
      <point x="207.8975903614458" y="-9.421686746987952"/>
      <point x="281.921686746988" y="-9.421686746987952" type="curve" smooth="yes"/>
      <point x="390.78915662650604" y="-9.421686746987952"/>
      <point x="455.49999999999994" y="84.06626506024097"/>
      <point x="455.49999999999994" y="244.13253012048193" type="curve" smooth="yes"/>
      <point x="455.49999999999994" y="404.19879518072287"/>
      <point x="390.78915662650604" y="496.9759036144578"/>
      <point x="281.566265060241" y="496.9759036144578" type="curve" smooth="yes"/>
      <point x="207.54216867469881" y="496.9759036144578"/>
      <point x="158.31927710843374" y="455.8192771084337"/>
      <point x="141.74096385542168" y="380.4156626506024" type="curve"/>
      <point x="152.16265060240966" y="380.4156626506024" type="line"/>
      <point x="152.16265060240966" y="705.0" type="line"/>
      <point x="60.13855421686747" y="705.0" type="line"/>
    </contour>
    <contour>
      <point x="256.46385542168673" y="63.5421686746988" type="curve" smooth="yes"/>
      <point x="185.72289156626508" y="63.5421686746988"/>
      <point x="150.45180722891567" y="124.45783132530121"/>
      <point x="150.45180722891567" y="244.13253012048193" type="curve" smooth="yes"/>
      <point x="150.45180722891567" y="363.8072289156626"/>
      <point x="185.72289156626508" y="424.0120481927711"/>
      <point x="256.46385542168673" y="424.0120481927711" type="curve" smooth="yes"/>
      <point x="326.49397590361446" y="424.0120481927711"/>
      <point x="362.4759036144578" y="364.1626506024096"/>
      <point x="362.4759036144578" y="244.13253012048193" type="curve" smooth="yes"/>
      <point x="362.4759036144578" y="124.10240963855422"/>
      <point x="326.49397590361446" y="63.5421686746988"/>
    </contour>
  </outline>
</glyph>
